<?xml version="1.0" encoding="utf-8"?>
<!-- Generator: Adobe Illustrator 25.2.1, SVG Export Plug-In . SVG Version: 6.00 Build 0)  -->
<svg version="1.1" id="Layer_1" xmlns="http://www.w3.org/2000/svg" xmlns:xlink="http://www.w3.org/1999/xlink" x="0px" y="0px"
	 viewBox="0 0 360.53 75.64" style="enable-background:new 0 0 360.53 75.64;" xml:space="preserve">
<style type="text/css">
	.st0{clip-path:url(#SVGID_2_);fill:#FBEDE2;}
	.st1{clip-path:url(#SVGID_2_);}
	.st2{clip-path:url(#SVGID_4_);fill:#D9AB97;}
	.st3{clip-path:url(#SVGID_6_);fill:#FBEDE2;}
	.st4{clip-path:url(#SVGID_6_);}
	.st5{clip-path:url(#SVGID_8_);fill:#0F5C47;}
	.st6{fill:#0F5C47;}
</style>
<g>
	<g>
		<path class="st6" d="M0,0.4h27.72l0.46,5.06c-0.61-0.81-1.81-1.68-3.6-2.62c-1.78-0.94-3.54-1.41-5.26-1.41H5.98V19.5h11.33
			c3.03,0,5.29-1.02,6.79-3.05v7.13c-1.5-2.03-3.76-3.05-6.79-3.05H5.98v19.56H1.67V6.62c0-1.34-0.14-2.53-0.4-3.57
			C1,2.01,0.71,1.32,0.4,0.98L0,0.4z"/>
		<path class="st6" d="M38.77,0.4v38.65h15.24c1.73,0,3.47-0.46,5.23-1.38c1.76-0.92,2.95-1.78,3.57-2.59l-0.4,5H35.43h-0.98V6.62
			c0-1.19-0.13-2.21-0.4-3.08c-0.27-0.86-0.56-1.41-0.86-1.64l-0.4-0.4L38.77,0.4z"/>
		<path class="st6" d="M72.53,5.41C76.29,1.8,81.02,0,86.74,0c5.71,0,10.45,1.81,14.21,5.44c3.76,3.62,5.64,8.6,5.64,14.93
			c0,6.37-1.88,11.36-5.64,14.99c-3.76,3.62-8.49,5.43-14.21,5.43c-5.71,0-10.45-1.81-14.21-5.43c-3.76-3.62-5.64-8.62-5.64-14.99
			C66.9,14,68.77,9.01,72.53,5.41 M97.29,6.13c-2.74-3.47-6.26-5.2-10.56-5.2c-4.29,0-7.82,1.74-10.58,5.2
			c-2.76,3.47-4.14,8.22-4.14,14.24c0,6.02,1.38,10.78,4.14,14.26c2.76,3.49,6.29,5.23,10.58,5.23c4.29,0,7.81-1.74,10.56-5.23
			c2.74-3.49,4.11-8.24,4.11-14.26C101.41,14.34,100.04,9.6,97.29,6.13"/>
		<path class="st6" d="M125.91,0.4h3.85c1.57,0,3.04,0.17,4.4,0.52c1.36,0.35,2.66,0.89,3.88,1.64c1.23,0.75,2.2,1.83,2.91,3.25
			c0.71,1.42,1.06,3.09,1.06,5.01c0,2.11-0.35,3.93-1.06,5.46c-0.71,1.53-1.68,2.69-2.91,3.48s-2.52,1.35-3.88,1.7
			c-1.36,0.34-2.83,0.52-4.4,0.52h-2.36c3.3,0.54,6.06,1.75,8.28,3.62c1.65,1.38,2.94,3.09,3.88,5.12c0.94,2.03,1.7,3.93,2.27,5.69
			c0.58,1.76,1.24,2.99,2.01,3.68h-1.12h-1.21c-0.17,0-0.53-0.03-1.06-0.09c-0.54-0.06-0.9-0.13-1.09-0.23
			c-0.19-0.1-0.49-0.24-0.89-0.43c-0.4-0.19-0.71-0.43-0.92-0.72c-0.21-0.29-0.43-0.65-0.66-1.09c-0.23-0.44-0.42-0.93-0.57-1.47
			c-0.04-0.11-0.14-0.5-0.32-1.15c-0.17-0.65-0.28-1.07-0.32-1.24c-0.04-0.17-0.14-0.55-0.32-1.15c-0.17-0.6-0.3-1-0.37-1.21
			c-0.08-0.21-0.21-0.57-0.4-1.07c-0.19-0.5-0.36-0.87-0.52-1.12c-0.15-0.25-0.35-0.57-0.6-0.98c-0.25-0.4-0.49-0.74-0.72-1.01
			c-0.23-0.27-0.5-0.56-0.8-0.86c-0.31-0.31-0.63-0.59-0.98-0.86c-1.61-1.23-3.45-2.09-5.52-2.59c-2.07-0.5-4.6-0.77-7.59-0.8v18.06
			h-4.37V6.62c0-1.34-0.13-2.53-0.4-3.57c-0.27-1.04-0.56-1.73-0.86-2.07l-0.4-0.57h6.04H125.91z M117.86,1.44v19.5h11.91
			c2.38,0,4.29-0.95,5.75-2.85c1.46-1.9,2.18-4.32,2.18-7.28c0-2.88-0.72-5.16-2.16-6.85c-1.44-1.69-3.36-2.53-5.78-2.53H117.86z"/>
		<path class="st6" d="M154.84,0.4v39.69h-4.37V6.62c0-1.19-0.13-2.21-0.4-3.08c-0.27-0.86-0.54-1.41-0.81-1.64l-0.4-0.4L154.84,0.4
			z"/>
		<path class="st6" d="M173.13,0.4h6.44l17.03,39.69h-4.77c-2.3-5.37-4.06-9.49-5.29-12.37h-19.21l-5.23,12.37H161l15.24-36.18
			C175.51,2.65,174.48,1.48,173.13,0.4 M176.87,5.12l-9.09,21.57h18.29c-1.11-2.57-2.65-6.19-4.63-10.87
			C179.47,11.14,177.95,7.57,176.87,5.12"/>
		<path class="st6" d="M224.85,0.4v38.65h15.24c1.73,0,3.47-0.46,5.23-1.38c1.76-0.92,2.95-1.78,3.57-2.59l-0.4,5h-26.98h-0.98V6.62
			c0-1.19-0.14-2.21-0.4-3.08c-0.27-0.86-0.55-1.41-0.86-1.64l-0.4-0.4L224.85,0.4z"/>
		<path class="st6" d="M259.59,0.4v25.94c0,3.72,1.13,6.7,3.39,8.94c2.26,2.24,5.29,3.36,9.09,3.36c3.91,0,6.96-1.12,9.15-3.36
			c2.18-2.24,3.28-5.22,3.28-8.94V0.4h1.04c0.04,0,0.06,4.49,0.06,13.46l-0.06,13.4c0,4.1-1.44,7.36-4.31,9.78
			c-2.88,2.42-6.48,3.62-10.82,3.62s-7.95-1.21-10.84-3.62c-2.9-2.42-4.34-5.67-4.34-9.78V6.62c0-1.19-0.14-2.21-0.4-3.08
			c-0.27-0.86-0.54-1.41-0.8-1.64l-0.4-0.4L259.59,0.4z"/>
		<polygon class="st6" points="290.13,0.4 295.65,0.4 309.63,18.64 325.1,0.4 326.43,0.4 310.26,19.5 326.08,40.09 320.62,40.09 
			307.04,22.43 291.8,40.09 290.42,40.09 306.41,21.57 		"/>
		<path class="st6" d="M330.51,0.4h27.72l0.46,5.06c-0.61-0.81-1.81-1.68-3.6-2.62c-1.78-0.94-3.54-1.41-5.26-1.41h-13.34V19.5
			h11.33c3.03,0,5.29-1.02,6.79-3.05v7.13c-1.5-2.03-3.76-3.05-6.79-3.05h-11.33v18.52h15.24c1.72,0,3.47-0.46,5.23-1.38
			c1.76-0.92,2.95-1.78,3.57-2.59l-0.4,5h-26.98h-2.65c1.11-1.15,1.67-3.22,1.67-6.21V6.62c0-1.34-0.14-2.53-0.4-3.57
			c-0.27-1.04-0.56-1.73-0.86-2.07L330.51,0.4z"/>
	</g>
	<g>
		<path class="st6" d="M34.96,70.61l-1.88-4.2H22.87l-1.86,4.2h-1.42l7.67-17.1h1.44l7.67,17.1H34.96z M32.56,65.19l-4.59-10.41
			l-4.59,10.41H32.56z"/>
		<path class="st6" d="M44.8,75.64v-17.1h1.17v2.86c0.95-1.83,2.88-3.03,5.23-3.03c3.27,0.12,5.86,2.32,5.86,6.2
			c0,4.06-2.74,6.25-6.13,6.25c-2.05,0-3.96-1-4.98-3.01v7.82H44.8z M55.87,64.57c0-3.4-2.2-5.06-4.94-5.06
			c-2.81,0-4.89,2.12-4.89,5.08c0,2.96,2.13,5.08,4.89,5.08C53.67,69.68,55.87,67.97,55.87,64.57"/>
		<path class="st6" d="M59.43,64.6c0-3.83,2.74-6.28,6.13-6.28c3.4,0,6.13,2.44,6.13,6.28c0,3.84-2.74,6.18-6.13,6.18
			C62.17,70.78,59.43,68.43,59.43,64.6 M70.52,64.6c0-3.13-2.22-5.15-4.96-5.15s-4.96,2.03-4.96,5.15c0,3.13,2.22,5.01,4.96,5.01
			S70.52,67.73,70.52,64.6"/>
		<path class="st6" d="M73.77,64.57c0-3.62,2.74-6.23,6.13-6.23s6.42,2.08,5.96,6.79H74.99c0.24,2.83,2.42,4.47,4.91,4.47
			c1.59,0,3.45-0.64,4.35-1.83l0.86,0.68c-1.17,1.54-3.27,2.32-5.2,2.32C76.51,70.78,73.77,68.41,73.77,64.57 M84.79,64.09
			c-0.02-2.98-1.98-4.64-4.89-4.64c-2.49,0-4.64,1.69-4.91,4.64H84.79z"/>
		<path class="st6" d="M91.21,54.9v3.64h4.1v1h-4.1v7.35c0,1.64,0.34,2.78,2.22,2.78c0.59,0,1.25-0.2,1.86-0.49l0.42,0.98
			c-0.76,0.37-1.52,0.61-2.27,0.61c-2.57,0-3.4-1.51-3.4-3.88v-7.35h-2.57v-1h2.57v-3.52L91.21,54.9z"/>
		<path class="st6" d="M99.67,54.61c0,1.27-1.93,1.27-1.93,0C97.74,53.34,99.67,53.34,99.67,54.61 M98.08,70.61h1.2V58.49h-1.2
			V70.61z"/>
		<path class="st6" d="M112.59,68.92c-1.22,1.22-2.81,1.81-4.4,1.81c-3.4,0-6.2-2.35-6.2-6.16c0-3.81,2.71-6.16,6.2-6.16
			c1.59,0,3.18,0.61,4.4,1.81l-0.78,0.76c-0.98-0.98-2.32-1.44-3.61-1.44c-2.74,0-5.03,1.78-5.03,5.03c0,3.25,2.3,5.03,5.03,5.03
			c1.29,0,2.61-0.51,3.59-1.49L112.59,68.92z"/>
		<polygon class="st6" points="134.21,70.61 132.89,70.61 130.93,65.33 129.47,60.64 127.95,65.36 126,70.61 124.68,70.61 
			120.38,58.54 121.7,58.54 125.34,69.22 129.03,58.54 129.88,58.54 133.55,69.22 137.16,58.54 138.48,58.54 		"/>
		<path class="st6" d="M139.87,64.6c0-3.83,2.74-6.28,6.13-6.28s6.13,2.44,6.13,6.28c0,3.84-2.74,6.18-6.13,6.18
			S139.87,68.43,139.87,64.6 M150.97,64.6c0-3.13-2.22-5.15-4.96-5.15c-2.74,0-4.96,2.03-4.96,5.15c0,3.13,2.22,5.01,4.96,5.01
			C148.74,69.61,150.97,67.73,150.97,64.6"/>
		<path class="st6" d="M156.02,58.54l0.05,2.15c0.76-1.64,2.47-2.27,4.01-2.27c0.9-0.02,1.78,0.22,2.59,0.71l-0.54,0.98
			c-0.64-0.39-1.34-0.56-2.05-0.56c-2.25,0.02-3.98,1.83-3.98,4.03v7.04h-1.2V58.54H156.02z"/>
		<rect x="164.47" y="53.51" class="st6" width="1.2" height="17.1"/>
		<path class="st6" d="M180.6,53.51v17.1h-1.17v-2.66c-1,1.83-2.98,2.86-5.03,2.86c-3.37,0-6.03-2.22-6.03-6.23
			c0-3.98,2.69-6.23,6.06-6.23c2.08,0,4.03,0.88,5.01,2.83v-7.67H180.6z M169.53,64.57c0,3.35,2.22,5.06,4.93,5.06
			c2.83,0,4.93-2.08,4.93-5.08c0-3.01-2.15-5.06-4.93-5.06C171.75,59.49,169.53,61.18,169.53,64.57"/>
		<path class="st6" d="M190.2,64.6c0-3.83,2.74-6.28,6.13-6.28c3.4,0,6.13,2.44,6.13,6.28c0,3.84-2.74,6.18-6.13,6.18
			C192.93,70.78,190.2,68.43,190.2,64.6 M201.29,64.6c0-3.13-2.22-5.15-4.96-5.15c-2.74,0-4.96,2.03-4.96,5.15
			c0,3.13,2.22,5.01,4.96,5.01C199.06,69.61,201.29,67.73,201.29,64.6"/>
		<path class="st6" d="M206.47,70.61V59.69H204v-1.05h2.47v-1.07c0-2.39,0.95-4.13,3.61-4.13c0.9,0,1.71,0.32,2.39,0.83l-0.59,0.88
			c-0.66-0.39-1.12-0.61-1.86-0.61c-1.51,0-2.39,0.93-2.39,3.03v1.07h3.98v1.05h-3.98v10.92H206.47z"/>
		<path class="st6" d="M220.59,64.6c0-3.83,2.74-6.28,6.13-6.28c3.4,0,6.13,2.44,6.13,6.28c0,3.84-2.74,6.18-6.13,6.18
			C223.32,70.78,220.59,68.43,220.59,64.6 M231.68,64.6c0-3.13-2.22-5.15-4.96-5.15c-2.74,0-4.96,2.03-4.96,5.15
			c0,3.13,2.22,5.01,4.96,5.01C229.45,69.61,231.68,67.73,231.68,64.6"/>
		<path class="st6" d="M236.86,70.61V59.69h-2.47v-1.05h2.47v-1.07c0-2.39,0.95-4.13,3.61-4.13c0.9,0,1.71,0.32,2.39,0.83
			l-0.59,0.88c-0.66-0.39-1.12-0.61-1.86-0.61c-1.51,0-2.39,0.93-2.39,3.03v1.07h3.98v1.05h-3.98v10.92H236.86z"/>
		<path class="st6" d="M252.78,70.61V59.69h-2.47v-1.05h2.47v-1.07c0-2.39,0.95-4.13,3.62-4.13c0.9,0,1.71,0.32,2.39,0.83
			l-0.59,0.88c-0.66-0.39-1.12-0.61-1.86-0.61c-1.52,0-2.39,0.93-2.39,3.03v1.07h3.98v1.05h-3.98v10.92H252.78z"/>
		<path class="st6" d="M260.06,64.57c0-3.62,2.74-6.23,6.13-6.23c3.4,0,6.43,2.08,5.96,6.79h-10.87c0.24,2.83,2.42,4.47,4.91,4.47
			c1.59,0,3.45-0.64,4.35-1.83l0.85,0.68c-1.17,1.54-3.27,2.32-5.2,2.32C262.8,70.78,260.06,68.41,260.06,64.57 M271.08,64.09
			c-0.03-2.98-1.98-4.64-4.89-4.64c-2.49,0-4.64,1.69-4.91,4.64H271.08z"/>
		<path class="st6" d="M292.89,70.61v-7.23c0-2.32-1.56-3.96-3.86-3.96c-2.3,0-3.89,1.71-3.89,4.03v7.16h-1.2v-7.16
			c0-2.32-1.59-4.01-3.89-4.01c-2.3,0-3.86,1.68-3.86,4.01v7.16h-1.2V58.54h1.12l0.03,2c0.83-1.59,2.37-2.25,3.93-2.25
			c1.83,0,3.76,0.83,4.47,2.98c0.73-1.98,2.61-2.98,4.47-2.98c2.95,0,5.06,2.08,5.06,5.08v7.23H292.89z"/>
		<path class="st6" d="M299.05,54.61c0,1.27-1.93,1.27-1.93,0C297.12,53.34,299.05,53.34,299.05,54.61 M297.46,70.61h1.2V58.49h-1.2
			V70.61z"/>
		<path class="st6" d="M303.25,58.54v2.15c0.93-1.66,2.61-2.35,4.3-2.37c3.22,0,5.45,1.98,5.45,5.33v6.96h-1.2v-6.94
			c0-2.74-1.69-4.2-4.3-4.18c-2.49,0.03-4.23,1.9-4.23,4.4v6.72h-1.2V58.54H303.25z"/>
		<path class="st6" d="M317.71,54.61c0,1.27-1.93,1.27-1.93,0C315.78,53.34,317.71,53.34,317.71,54.61 M316.12,70.61h1.2V58.49h-1.2
			V70.61z"/>
		<path class="st6" d="M323.5,54.9v3.64h4.1v1h-4.1v7.35c0,1.64,0.34,2.78,2.22,2.78c0.59,0,1.25-0.2,1.86-0.49l0.42,0.98
			c-0.76,0.37-1.52,0.61-2.27,0.61c-2.57,0-3.4-1.51-3.4-3.88v-7.35h-2.57v-1h2.57v-3.52L323.5,54.9z"/>
		<polygon class="st6" points="340.94,58.54 333.59,75.64 332.32,75.64 334.54,70.46 329.71,58.54 331,58.54 333.81,65.67 
			335.23,69.17 336.62,65.65 339.65,58.54 		"/>
	</g>
</g>
</svg>
