<svg id="Layer_1" data-name="Layer 1" xmlns="http://www.w3.org/2000/svg" viewBox="0 0 440.04 323.67"><defs><style>.cls-1{fill:#fff;}</style></defs><path class="cls-1" d="M217,62.43c-4.75-1.55-9-2.53-12.85-4.26-13.43-6-23.86-14.58-25.19-30.53-.27-3.11,0-6.27,0-9.41l1.1-.66,11.34,6.15c1.49-4.51,2.07-9.87,4.85-13.58,2.59-3.47,6.56-8,12.38-4.46,1.6-1.18,3.06-2.4,4.67-3.39,5.38-3.3,8.48-3.08,13.38,1,1.68,1.39,3.12,2.52,5.6,1.53,1.11-.44,3,.13,4.13.88,7.38,4.91,9.58,10.12,8.54,19.82l13.08-8.15c2,4.59.73,8.55.26,12.43C256.78,42.53,248.52,50.3,237.94,56c-4.2,2.25-8.94,3.48-13.44,5.16-1,.37-2,.67-3,1,1.76,6.12,8.81,11,15.7,11a26.9,26.9,0,0,0,5.67-.61c2.34-.51,5.22-.73,6.72-2.22,1.25-1.25,1-4.14,1.19-6.32,1-9.77,6.33-16.46,14.83-20.83,2.85-1.47,5.85-2.66,8.82-3.85,3.64-1.46,4.54-.75,4,3.26C276.87,53,271.68,61.32,262.68,67c-3.17,2-6.65,3.5-10,5.91,3.68-.39,7.43-.49,11-1.23,13.57-2.79,23.34,3,31.06,13.48,2.67,3.63,2.27,4.6-2,6.29-1.11.44-2.25.82-3.56,1.29a72,72,0,0,1,3.48,6.65c2.25,5.62,2.47,11.52,2.12,17.49-.15,2.39-1.61,2.64-3.33,2-3.91-1.52-7.75-3.21-11.85-4.92a71,71,0,0,1-1.29,7.6,30.78,30.78,0,0,1-2.82,6.91c-1.56,2.74-4.33,4.86-3.64,8.62a2.86,2.86,0,0,1-1.15,2.34c-2.78,1.73-1.33,3.52-.54,5.61,1.8,4.77,3.77,9.55,4.78,14.5a14.8,14.8,0,0,1-1.33,8.62c-1.22,2.62-4.15,3.65-7.25,3.12-3.35-.58-5.26-2.72-6.15-5.86-1.6-5.7.44-10.9,2.3-16.1,1-2.74,2.09-5.45,3.15-8.17l-.83-.4a26,26,0,0,0-1.49,2.6A81.51,81.51,0,0,1,250.65,164a4.27,4.27,0,0,0-1.1,1.74c-1.38,8.45-1.66,16.91,2.52,24.67,1.46,2.7,4.33,4.62,6.45,7l.08.09a1.35,1.35,0,0,1-1.68,2l0,0C250,195,247,188.36,246.56,180.43c-.21-3.76,0-7.55,0-12.22-18.19,15.91-36.12,17.3-54.92.76,0,4.07.19,7.25,0,10.41-.59,8.19-3.49,15.21-10.73,19.85a7.62,7.62,0,0,1-2.1,1.12,1.68,1.68,0,0,1-1.47-.57c-.18-.32.18-1,.4-1.5a1.63,1.63,0,0,1,.69-.56c7.53-4.4,10.29-11.42,10.76-19.68.11-1.9.1-3.81.2-5.71a14.26,14.26,0,0,0-3.3-9.87c-4.36-5.82-7.81-12.31-11.63-18.54-.47-.76-.84-1.58-1.3-2.35-.06-.11-.35-.07-1.08-.17a64,64,0,0,1,2.7,7.7c1,4.76,2.32,9.58,2.34,14.38,0,5.13-3.13,7.7-7.47,7.6a6.71,6.71,0,0,1-6.86-5.93c-1-5.68.68-10.9,2.81-16a24.58,24.58,0,0,1,1.42-2.92c1.46-2.55,2.58-4.95-.72-7.21a3.44,3.44,0,0,1-.95-3c.64-2.45-.61-3.86-2-5.49-4.13-4.77-5-10.57-4.78-17.05-2,1-3.62,2-5.38,2.79-2.2.94-4.48,1.68-6.73,2.49-2.8,1-3.55-.33-3.59-2.9-.16-8.29,1-16.21,6.35-23.29-1.87-.6-3.49-1-5-1.63-2.94-1.22-3.29-2.06-1.48-4.66,7.08-10.11,16.56-17.83,32.6-14.51,3,.62,6.06.78,9.41,1.19-4.28-2.76-8.44-5-12-7.85a37.55,37.55,0,0,1-13.39-22.89c-.54-2.86.16-3.89,2.4-3.34,8.15,2,15.43,5.55,20.87,12.28,4,4.9,5,10.65,5,16.65,0,2.07.7,3,2.59,3.7,8.17,2.87,15.83,2.52,22.55-3.47C214.27,66.54,215.4,64.5,217,62.43Zm1.85,1.87c-5.5,8.69-13.19,11.87-22.56,11.8a68.05,68.05,0,0,0-7.82.28c-8.38.89-15.26,6.58-16.63,14.85a104.75,104.75,0,0,0-1.38,20.32c.59,20.21,6.59,38.49,21,53.28,7.79,8,16.77,13.78,28.56,13.24,10.1-.47,18.16-5.4,25.15-12.19a68.06,68.06,0,0,0,18.76-32.7c3.55-14,4.95-28,2.39-42.3a15.57,15.57,0,0,0-5.55-9.35C255,76.6,248.26,75.66,241,75.84a32,32,0,0,1-8.89-.89C226.4,73.45,222.08,69.79,218.84,64.3Zm-1.46-38.48a38.25,38.25,0,0,1-4.48-3.43,7.92,7.92,0,0,1-.29-11.15c3.68-4,7.83-4.68,11.73-1.81,3.69,2.72,4.23,7.76,1.06,11.73a88.61,88.61,0,0,1-6.25,6.9c-2.27,2.29-1.77,3.93,1.21,5.45l11.28-11.2c1.43,4.69,2.62,8.57,3.81,12.45l1,.14c1.94-3.17,4.53-6.12,5.64-9.55,2.07-6.43,0-12-5.42-16.24-2.82-2.21-4.77-2.44-7.33,0-.87.84-1.2,2.23-2.21,2.92C227,6.21,224,2.92,219,3c-4.84.12-7.54,3.4-8.14,8.72-1.44-1.11-2.09-2.32-3.08-3.09s-2.57-1.59-3.17-1.21c-2.75,1.71-6.21,3.3-7.65,5.91-4.1,7.43-2,15.28,4.94,21.18.93-3,1.82-5.82,2.69-8.67a2.35,2.35,0,0,1,3.77-1.35c2.22,1.48,4.47,2.91,6.8,4.42Zm-10.81,1c-1,4.46-2.12,8.31-2.75,12.25-1.93,12.08,6.07,18.55,12.93,20,4.3.92,6.91-.63,7.58-4.92a17.29,17.29,0,0,0,.08-6.25C222.32,38,215.75,31.76,206.57,26.79Zm-2.09,28.53c-1-3.21-2.85-6.8-3.11-10.49a20.57,20.57,0,0,0-5.55-12.91c-4-4.4-8.47-8.1-14.24-10.19C179.9,36.74,189.87,50.72,204.48,55.32Zm64.33,33a29.9,29.9,0,0,0,23.49,27.62c.44-7.63-.51-14.85-5.31-21.08a4.92,4.92,0,0,0-3.22-1.66A29.29,29.29,0,0,1,268.81,88.32Zm-36.55-32.6c16.35-5.82,25.26-19.27,23.81-34.08-6.35,3.56-12.15,7.56-16.55,13.25-1.31,1.7-3,4-2.82,5.81C237.18,46.33,235.15,51,232.26,55.72ZM169.07,88.3c-4.74,3.65-10,4.4-15.43,4.79a3.9,3.9,0,0,0-2.19,1.4c-5.49,6.12-5.61,13.69-6.12,21.36C155.36,114,167.84,104.29,169.07,88.3Zm-23.92-.24c7.48,3.92,17.86,2.37,24.92-3.7,3.32-2.86,6.68-5.67,10-8.44C165.84,70.76,153.51,73.85,145.15,88.06ZM258.1,76c3.55,3,6.87,5.87,10.26,8.64,5.1,4.18,10.95,6.32,17.55,5.61,2.54-.27,5-1.33,7.73-2.1C284,74.41,272,70.45,258.1,76Zm-95.58-33.8c-.15,11.42,13.95,25.73,22,26.2C187,55.87,175.73,44.46,162.52,42.16Zm91.54,26.13c10.79-2.35,22.58-17.07,21.32-26.39C260.11,46.25,251.28,57.09,254.06,68.29ZM229.88,27.37c-2.38,2.56-4.65,4.83-6.67,7.3a3.05,3.05,0,0,0-.15,2.79c3.48,5.72,5.24,11.77,3.8,18.63C235.7,51.6,235.53,38.89,229.88,27.37Zm37.84,118.11-1.17.06c-1.18,3.9-2.6,7.75-3.41,11.72a22.54,22.54,0,0,0,.11,7.68c.39,2.67,2.4,3.91,5.05,3.54s4-1.92,4.15-4.67C272.83,157.15,270.21,151.34,267.72,145.48ZM170.44,145c-3.23,6.45-5.79,12.17-5.23,18.73.24,2.72,1.71,4.47,4.55,4.68s3.93-1.5,4.48-3.89C175.8,157.7,173,151.81,170.44,145Zm100-41.28c-.87,8.07-1.78,16.11-2.54,24.17a2.94,2.94,0,0,0,1.16,2.41,2.74,2.74,0,0,0,2.48-.71c4.18-4.9,5.6-10.68,5-17a4.85,4.85,0,0,0-.94-2.51C273.92,107.84,272.1,105.73,270.42,103.68Zm-103.46,0c-1.72,2.33-4.55,4.62-5.27,7.44a19.92,19.92,0,0,0,4.25,18.52c.55.64,2.1,1.2,2.63.88a3.29,3.29,0,0,0,1.09-2.69C168.85,119.77,167.89,111.76,167,103.65Zm58-87.48a5.48,5.48,0,0,0-5.16-5.55,6.59,6.59,0,0,0-6.55,6.13c-.08,2.5,3,5.95,5.34,6C221.18,22.88,224.92,19,224.94,16.17ZM170.59,132.81c-2.52,1.17-3.28,2.77-2.18,4.8.9,1.65,2.36,1.8,4,.65C171.8,136.42,171.24,134.75,170.59,132.81Zm94.69,5c1.65,1.34,3.11,1.39,3.85-.37s.55-3.66-2.19-4.46C266.38,134.62,265.85,136.15,265.28,137.82Z"/><path class="cls-1" d="M212.79,118.29c0-1.41,0-2.81,0-4.21.07-9.17-5-15.62-13.83-17.86a36.42,36.42,0,0,0-19,.43l-.09,0a1.14,1.14,0,0,1-.87-2.05,1.23,1.23,0,0,1,.26-.12c8-2.69,16.15-3,24.1.2,6.88,2.77,11,8,11.59,15.46.41,5,.55,10,.63,15a1,1,0,0,1,0,.29,1.36,1.36,0,0,1-2.64-.15.49.49,0,0,1,0-.12c-.19-2.29-.07-4.6-.07-6.9Z"/><path class="cls-1" d="M225.59,116c0-1.4,0-2.81,0-4.21-.07-9.17,5-15.62,13.83-17.85a36.31,36.31,0,0,1,19,.43l.09,0a1.14,1.14,0,0,0,.87-2,1.23,1.23,0,0,0-.26-.12c-8-2.69-16.15-3-24.1.2-6.88,2.77-11,7.95-11.59,15.46-.41,5-.55,15.87-.63,20.87a.93.93,0,0,0,0,.29,1.35,1.35,0,0,0,2.64-.14.49.49,0,0,0,0-.12c.19-2.29.07-10.48.07-12.78Z"/><path class="cls-1" d="M199.16,114.78a20.33,20.33,0,0,1-14.15-.24c-1.42-.55-2.81-1.12-4.19-1.73a1.29,1.29,0,0,1,.71-2.42,2.05,2.05,0,0,1,.67.24c6.47,3.68,12.94,4.35,19.62.57a.76.76,0,0,1,.18-.09,1.24,1.24,0,0,1,1.53,1.85,1,1,0,0,1-.39.31C201.83,113.8,200.51,114.3,199.16,114.78Z"/><path class="cls-1" d="M211.88,148.84a20.27,20.27,0,0,1,14.15.23c1.42.56,2.82,1.13,4.2,1.74a1.33,1.33,0,0,1,.57.6,1.24,1.24,0,0,1-1.29,1.81,2.13,2.13,0,0,1-.67-.23c-6.46-3.68-12.94-4.35-19.62-.57l-.18.09a1.24,1.24,0,0,1-1.53-1.85,1.06,1.06,0,0,1,.4-.31C209.21,149.81,210.54,149.32,211.88,148.84Z"/><path class="cls-1" d="M252.79,114.78a20.33,20.33,0,0,1-14.15-.24c-1.42-.55-2.82-1.12-4.2-1.73a1.27,1.27,0,0,1-.56-.6,1.24,1.24,0,0,1,1.28-1.82,2.14,2.14,0,0,1,.67.24c6.47,3.68,12.94,4.35,19.62.57a.76.76,0,0,1,.18-.09,1.24,1.24,0,0,1,1.53,1.85,1,1,0,0,1-.39.31C255.46,113.8,254.14,114.3,252.79,114.78Z"/><path class="cls-1" d="M223.43,139.68a9.4,9.4,0,0,1-8.56.2c-1.47-.71-2.87-1.41-4.22-2.19a1,1,0,0,1-.37-.6,1.41,1.41,0,0,1,1.87-1.68,1.74,1.74,0,0,1,.33.18c4.66,3.48,7.7,3.5,12.77,0l.25-.13a1.39,1.39,0,0,1,1.84,1.37c0,.34-.07.61-.23.71C225.92,138.31,224.7,139,223.43,139.68Z"/><path class="cls-1" d="M220.87,161.31a6,6,0,0,1-4.65-.09,37.92,37.92,0,0,1-3.94-1.9.81.81,0,0,1-.3-.35,1.43,1.43,0,0,1,1.53-2.05.85.85,0,0,1,.22.09c3.48,2.19,6.84,2.51,10.34,0a.85.85,0,0,1,.63-.07,1.46,1.46,0,0,1,1.16,1.78c-.07.27-.16.48-.32.55C224,160.05,222.44,160.69,220.87,161.31Z"/><path class="cls-1" d="M37.81,235.52v10.67H35c0-4.48-2.47-9.19-8.83-9.19H17.08a2.53,2.53,0,0,0-2.36,2.35v15.43a2.54,2.54,0,0,0,2.36,2.36h5.3c2.83,0,5.54-1.18,5.54-5.42h1.47V264H27.92c0-4.24-2.71-5.42-5.54-5.42h-5.3A2.54,2.54,0,0,0,14.72,261v17.85a2.54,2.54,0,0,0,2.36,2.35v1.47H2.36v-1.47a2.54,2.54,0,0,0,2.35-2.35V239.35A2.53,2.53,0,0,0,2.36,237v-1.48H37.81Z"/><path class="cls-1" d="M78.57,282.64h-36v-1.47a2.54,2.54,0,0,0,2.35-2.35V239.35A2.53,2.53,0,0,0,42.53,237v-1.48H57.25V237a2.53,2.53,0,0,0-2.36,2.35v39.47a2.54,2.54,0,0,0,2.36,2.35H67c6.36,0,8.83-4.71,8.83-9.19h2.77Z"/><path class="cls-1" d="M128.75,258.73c0,13.67-8.18,23.91-22.44,23.91S83.87,272.4,83.87,258.73s8.19-23.91,22.44-23.91S128.75,245.07,128.75,258.73Zm-10.6,0c0-12.43-6.18-22.44-11.84-22.44s-11.84,10-11.84,22.44,6.19,22.44,11.84,22.44S118.15,271.16,118.15,258.73Z"/><path class="cls-1" d="M173.4,279.58c.59,1,.88,1.59,2.06,1.59v1.47h-12L150.72,262.5h-1.94a2.54,2.54,0,0,0-2.36,2.36v14a2.54,2.54,0,0,0,2.36,2.35v1.47H134.06v-1.47a2.54,2.54,0,0,0,2.35-2.35V239.35a2.53,2.53,0,0,0-2.35-2.35v-1.48h17.78c10.31,0,21.38,2.12,21.38,13.49,0,7.54-4.89,11-11.19,12.49Zm-27-20.91a2.54,2.54,0,0,0,2.36,2.36h3.06c6.31,0,11.31-4.07,11.31-12s-5-12-11.31-12h-3.06a2.53,2.53,0,0,0-2.36,2.35Z"/><path class="cls-1" d="M193.13,278.82a2.54,2.54,0,0,0,2.36,2.35v1.47H180.76v-1.47a2.54,2.54,0,0,0,2.36-2.35V239.35a2.53,2.53,0,0,0-2.36-2.35v-1.48h14.73V237a2.53,2.53,0,0,0-2.36,2.35Z"/><path class="cls-1" d="M240,278.82c.41,1,1.17,2.35,2.35,2.35v1.47h-12l-4.77-12.25-.59-1.53c-.47-1.18-1.3-2.36-2.48-2.36H211.63c-1.06,0-1.89,1-2.36,2.07l-.47,1.17-.24.65-4.83,12.25H200.2v-1.47c1.18,0,1.94-1.3,2.36-2.35l16.78-43.3H223ZM222.46,265c.83,0,.77-.59.48-1.23l-.06-.24-.24-.59-.59-1.53-5-12.72-4.41,11.19L211.51,263c-.35.94-1,2.06.18,2.06Z"/><path class="cls-1" d="M306.63,282.64h-36v-1.47a2.54,2.54,0,0,0,2.35-2.35V239.35a2.53,2.53,0,0,0-2.35-2.35v-1.48h14.72V237a2.53,2.53,0,0,0-2.36,2.35v39.47a2.54,2.54,0,0,0,2.36,2.35H295c6.36,0,8.83-4.71,8.83-9.19h2.77Z"/><path class="cls-1" d="M351.1,237a2.52,2.52,0,0,0-2.35,2.35v23.86c0,11.66-5.19,19.43-15.73,19.43-12.72,0-19.32-6.59-19.32-19.43V239.35a2.53,2.53,0,0,0-2.36-2.35v-1.48h14.73V237a2.53,2.53,0,0,0-2.36,2.35v23.86c0,11,3.36,18,9.31,18,8,0,12.9-7.07,12.9-18V239.35a2.53,2.53,0,0,0-2.36-2.35v-1.48h7.54Z"/><path class="cls-1" d="M395.45,279.58c.59,1,.89,1.59,2.06,1.59v1.47H381.38v-1.47a1.74,1.74,0,0,0,1.76-2.24l-10.25-16.31L361.17,279a1.76,1.76,0,0,0,1.77,2.3v1.47h-7.72v-1.47c1.18,0,1.65-.59,2.36-1.59l13.9-19.38-13.66-21.73c-.59-1-1-1.59-2.18-1.59v-1.48h16.25V237a1.73,1.73,0,0,0-1.76,2.24L379,253.43l10.13-14.14a1.76,1.76,0,0,0-1.77-2.29v-1.48h7.72V237c-1.18,0-1.65.59-2.36,1.59l-12.25,17.14Z"/><path class="cls-1" d="M437.68,282.64h-36v-1.47a2.53,2.53,0,0,0,2.35-2.35V239.35a2.52,2.52,0,0,0-2.35-2.35v-1.48h35.45v10.67h-2.76c0-4.48-2.48-9.19-8.84-9.19h-9.13a2.52,2.52,0,0,0-2.35,2.35v15.43a2.53,2.53,0,0,0,2.35,2.36h5.3c2.83,0,5.54-1.18,5.54-5.42h1.47V264H427.2c0-4.24-2.71-5.42-5.54-5.42h-5.3A2.53,2.53,0,0,0,414,261v17.85a2.53,2.53,0,0,0,2.35,2.35h9.72c6.36,0,8.84-4.71,8.84-9.19h2.76Z"/><path class="cls-1" d="M66.46,314l1.76-2.67c1.57-2.37,2.8-4.27,3.72-5.69q2-3.15,3.1-5.2a2.89,2.89,0,0,0,.76.12,2,2,0,0,0,.75-.12q.11,1.1,1.15,6.69,1.22,6.5,2.27,10.14a17,17,0,0,0-1.81-.15c-.14,0-.68.05-1.61.15a49.27,49.27,0,0,0-1-6.21c-.3,0-.73,0-1.31,0s-1,0-1.31,0c-.89,0-1.8,0-2.71.07a57.84,57.84,0,0,0-3.42,6.18,10.48,10.48,0,0,0-1.25-.15c-.18,0-.63.05-1.36.15C64.56,316.78,65.31,315.69,66.46,314ZM71,309.74h4.38q-.1-.58-1-5.47Q72.82,306.82,71,309.74Z"/><path class="cls-1" d="M93.26,305.52,92.87,307a5.23,5.23,0,0,1,3.86-1.78,4.21,4.21,0,0,1,2.78,1,5,5,0,0,1,1.59,4,7.23,7.23,0,0,1-1.87,5.12,5.87,5.87,0,0,1-4.48,2,4.51,4.51,0,0,1-2.42-.57,4.62,4.62,0,0,1-1.15-1.18c-.39,1.95-.87,4.57-1.46,7.86l-1.49-.14c-.12,0-.59,0-1.42.14.56-1.95,1.27-5.09,2.15-9.4.46-2.22,1-5.08,1.61-8.6l1.35.14A11.12,11.12,0,0,0,93.26,305.52Zm2.82,1c-1.38,0-2.48.81-3.29,2.44a9.63,9.63,0,0,0-1,4.41c0,1.87.78,2.8,2.34,2.8s2.53-.85,3.31-2.56a10.18,10.18,0,0,0,.87-4.19C98.29,307.49,97.56,306.52,96.08,306.52Z"/><path class="cls-1" d="M110,305.27a5.35,5.35,0,0,1,4.3,1.69,5,5,0,0,1,1.15,3.32,7.23,7.23,0,0,1-1.66,4.69,6.68,6.68,0,0,1-5.54,2.52,5.27,5.27,0,0,1-3.74-1.37,4.74,4.74,0,0,1-1.47-3.64,7.48,7.48,0,0,1,1.61-4.64A6.38,6.38,0,0,1,110,305.27Zm2.69,4.06c0-2.05-.83-3.08-2.49-3.08q-2.25,0-3.49,2.93a11.21,11.21,0,0,0-.91,4.42c0,1.94.82,2.91,2.45,2.91q2.12,0,3.42-2.71A10.42,10.42,0,0,0,112.68,309.33Z"/><path class="cls-1" d="M117.57,312.19a6.84,6.84,0,0,1,1.78-4.82,6.31,6.31,0,0,1,4.86-2.07,4.59,4.59,0,0,1,2.74.85,4.44,4.44,0,0,1,1.78,3.9,10.4,10.4,0,0,1-.1,1.38H122c-.72,0-1.26,0-1.61,0a6.77,6.77,0,0,0-.08,1,4,4,0,0,0,.94,2.77,3.34,3.34,0,0,0,2.58,1,5.47,5.47,0,0,0,3.45-1.36l.31.24a4.32,4.32,0,0,0-.66,1.49,3.51,3.51,0,0,1-1.32.56,9,9,0,0,1-2.56.37,5.58,5.58,0,0,1-4-1.38A5.18,5.18,0,0,1,117.57,312.19Zm3-1.81H126a7.1,7.1,0,0,0,.17-1.61c0-1.65-.71-2.47-2.12-2.47C122.4,306.3,121.25,307.66,120.55,310.38Z"/><path class="cls-1" d="M131.52,313.54l.82-3.8c.33-1.49.53-2.46.62-2.88a16.83,16.83,0,0,0-1.93.08,5.13,5.13,0,0,0,.24-1.25h1.88c.21-1.13.39-2.06.54-2.8a11.48,11.48,0,0,0,3.15-1.3c-.44,1.49-.78,2.86-1,4.1h2.37a11.51,11.51,0,0,0-.29,1.25,20.56,20.56,0,0,0-2.36-.08l-.41,1.93c-.21,1-.46,2.08-.73,3.37a14.73,14.73,0,0,0-.33,2.38c0,1.09.47,1.63,1.41,1.63a5.11,5.11,0,0,0,1.64-.49l0,.07a5,5,0,0,0-.22.94,6.23,6.23,0,0,1-2.84.72,3.09,3.09,0,0,1-2-.64,2.08,2.08,0,0,1-.76-1.67A7.6,7.6,0,0,1,131.52,313.54Z"/><path class="cls-1" d="M142.63,309.45q-.69,3.23-1.56,7.77c-.79-.1-1.25-.15-1.4-.15l-1.46.15q1.72-7.19,2.44-11.7c.83.1,1.33.14,1.49.14a8.48,8.48,0,0,0,1.39-.14Q143.14,307.2,142.63,309.45Zm.2-9.62a1.61,1.61,0,0,1,1.56,1.58,1.56,1.56,0,0,1-.47,1.12,1.51,1.51,0,0,1-2.21,0,1.55,1.55,0,0,1-.47-1.1,1.47,1.47,0,0,1,.49-1.12A1.54,1.54,0,0,1,142.83,299.83Z"/><path class="cls-1" d="M155.48,308.52H155a2.89,2.89,0,0,0-2.8-2.1,3.65,3.65,0,0,0-3.28,2.12,8.14,8.14,0,0,0-1,4,3.92,3.92,0,0,0,.91,2.8,2.67,2.67,0,0,0,2.1.91,4.83,4.83,0,0,0,3.58-1.54l.4.19a13.83,13.83,0,0,0-.62,1.74,8.66,8.66,0,0,1-3.71.85,5.56,5.56,0,0,1-4-1.39,5.1,5.1,0,0,1-1.48-3.91,6.87,6.87,0,0,1,1.71-4.76,6.63,6.63,0,0,1,5.23-2.15,12,12,0,0,1,4.27.9A9.21,9.21,0,0,0,155.48,308.52Z"/><path class="cls-1" d="M175.29,311.09l.64,3.41,1.88-3.8q.42-.85,2.25-5.18a5.12,5.12,0,0,0,1.07.14,8.91,8.91,0,0,1,1.12-.14l-1.51,2.66q-.86,1.49-2.52,4.5l-2.34,4.54a8.4,8.4,0,0,0-1.06-.15,4.7,4.7,0,0,0-1,.15c-.38-2.82-.86-5.58-1.47-8.28q-2.23,4.11-4.17,8.28l-1.09-.15a6,6,0,0,0-1.1.15c-.21-1.71-.48-3.48-.81-5.33-.14-.78-.49-2.57-1-5.37l-.2-1,.75.07a6.78,6.78,0,0,0,.83.07,6.43,6.43,0,0,0,1.31-.14l.15,1.25c.3,2.45.65,5,1.07,7.71a92.88,92.88,0,0,0,4.37-9,3.9,3.9,0,0,0,2.07,0Q174.71,308,175.29,311.09Z"/><path class="cls-1" d="M189.14,305.27a5.35,5.35,0,0,1,4.3,1.69,5,5,0,0,1,1.15,3.32,7.23,7.23,0,0,1-1.66,4.69,6.71,6.71,0,0,1-5.55,2.52,5.25,5.25,0,0,1-3.73-1.37,4.74,4.74,0,0,1-1.47-3.64,7.48,7.48,0,0,1,1.61-4.64A6.37,6.37,0,0,1,189.14,305.27Zm2.69,4.06c0-2.05-.83-3.08-2.49-3.08q-2.25,0-3.5,2.93a11.38,11.38,0,0,0-.9,4.42c0,1.94.81,2.91,2.44,2.91q2.13,0,3.42-2.71A10.29,10.29,0,0,0,191.83,309.33Z"/><path class="cls-1" d="M199.35,315.12l-.39,2.1a7.19,7.19,0,0,0-1.32-.15l-1.46.15.29-1.12q1.09-4.22,2.15-10.58l1.44.14a7.13,7.13,0,0,0,1.3-.14c-.3,1.14-.5,2-.62,2.71a14.58,14.58,0,0,1,1.81-2.13,3.12,3.12,0,0,1,3-.7c-.19.71-.31,1.18-.34,1.39a9.32,9.32,0,0,0-.15,1.24l-.19.05a1.74,1.74,0,0,0-1-.31,3.41,3.41,0,0,0-3.22,2.1A25.49,25.49,0,0,0,199.35,315.12Z"/><path class="cls-1" d="M206.38,312.06q.88-4.32,2.52-12.94a10.66,10.66,0,0,0,1.54.14,7.93,7.93,0,0,0,1.4-.14q-.69,2.73-2,8.94c-.26,1.17-.6,2.81-1,4.91-.16.94-.41,2.36-.73,4.25a9.43,9.43,0,0,0-1.49-.15,10.63,10.63,0,0,0-1.42.15C205.45,316.08,205.85,314.36,206.38,312.06Z"/><path class="cls-1" d="M212,312.65a7.64,7.64,0,0,1,2-5.47,5.89,5.89,0,0,1,4.4-1.91,4.51,4.51,0,0,1,2,.39,4.31,4.31,0,0,1,1.49,1.4c.26-1.06.53-2.41.81-4,.16-.88.39-2.19.68-3.91a7.92,7.92,0,0,0,1.44.14,7.41,7.41,0,0,0,1.54-.14c-.63,2.36-1.31,5.19-2,8.47-.44,2-1.05,5.25-1.81,9.63a5.22,5.22,0,0,0-1.3-.15,6.94,6.94,0,0,0-1.39.15l.39-1.54a4.84,4.84,0,0,1-3.81,1.81,4,4,0,0,1-3.54-1.74A5.42,5.42,0,0,1,212,312.65Zm5.05,3.54c1.41,0,2.53-.86,3.36-2.59a9.65,9.65,0,0,0,.92-4.1c0-2-.75-3-2.24-3s-2.67.9-3.45,2.71a10,10,0,0,0-.83,4.08C214.84,315.23,215.59,316.19,217.08,316.19Z"/><path class="cls-1" d="M239.83,305.27a5.37,5.37,0,0,1,4.3,1.69,5,5,0,0,1,1.15,3.32,7.29,7.29,0,0,1-1.66,4.69,6.71,6.71,0,0,1-5.55,2.52,5.29,5.29,0,0,1-3.74-1.37,4.77,4.77,0,0,1-1.46-3.64,7.42,7.42,0,0,1,1.61-4.64A6.35,6.35,0,0,1,239.83,305.27Zm2.69,4.06c0-2.05-.83-3.08-2.5-3.08-1.49,0-2.66,1-3.49,2.93a11.38,11.38,0,0,0-.9,4.42c0,1.94.81,2.91,2.44,2.91q2.13,0,3.42-2.71A10.43,10.43,0,0,0,242.52,309.33Z"/><path class="cls-1" d="M253.34,306.84h-1a74.26,74.26,0,0,0-2.08,10.38,8.89,8.89,0,0,0-1.46-.15q-.3,0-1.47.15,1.78-7.2,2.3-10.38a16.43,16.43,0,0,0-2.05.1,5.43,5.43,0,0,0,.27-1.23h2a10.26,10.26,0,0,1,1.76-4.7,4.21,4.21,0,0,1,3.32-1.94,8.92,8.92,0,0,1,1.73.19,7.45,7.45,0,0,0-.63,2.28l-.29.27a4.09,4.09,0,0,0-2-.86q-1.56,0-1.56,2l.17,1.77.1,1H255a6.54,6.54,0,0,0-.29,1.23Z"/><path class="cls-1" d="M268.36,305.27a5.35,5.35,0,0,1,4.3,1.69,5,5,0,0,1,1.15,3.32,7.29,7.29,0,0,1-1.66,4.69,6.71,6.71,0,0,1-5.55,2.52,5.29,5.29,0,0,1-3.74-1.37,4.77,4.77,0,0,1-1.46-3.64,7.48,7.48,0,0,1,1.61-4.64A6.37,6.37,0,0,1,268.36,305.27Zm2.69,4.06c0-2.05-.83-3.08-2.49-3.08q-2.25,0-3.5,2.93a11.38,11.38,0,0,0-.9,4.42c0,1.94.81,2.91,2.44,2.91q2.13,0,3.42-2.71A10.29,10.29,0,0,0,271.05,309.33Z"/><path class="cls-1" d="M281.87,306.84h-1a74.73,74.73,0,0,0-2.07,10.38,9.1,9.1,0,0,0-1.47-.15c-.2,0-.68.05-1.47.15q1.78-7.2,2.3-10.38a16.54,16.54,0,0,0-2.05.1,4.94,4.94,0,0,0,.27-1.23h2a10.37,10.37,0,0,1,1.76-4.7,4.21,4.21,0,0,1,3.32-1.94,9,9,0,0,1,1.74.19,7.22,7.22,0,0,0-.64,2.28l-.29.27a4.09,4.09,0,0,0-2-.86q-1.56,0-1.56,2l.17,1.77.1,1h2.52a6.52,6.52,0,0,0-.3,1.23Z"/><path class="cls-1" d="M295.92,306.84h-1a74.26,74.26,0,0,0-2.08,10.38,8.89,8.89,0,0,0-1.46-.15q-.3,0-1.47.15,1.79-7.2,2.3-10.38a16.72,16.72,0,0,0-2.06.1,4.53,4.53,0,0,0,.27-1.23h2a10.26,10.26,0,0,1,1.76-4.7,4.21,4.21,0,0,1,3.32-1.94,8.92,8.92,0,0,1,1.73.19,7.45,7.45,0,0,0-.63,2.28l-.3.27a4,4,0,0,0-2-.86q-1.56,0-1.56,2l.17,1.77.1,1h2.51a5.85,5.85,0,0,0-.29,1.23Z"/><path class="cls-1" d="M297.67,312.19a6.85,6.85,0,0,1,1.79-4.82,6.31,6.31,0,0,1,4.86-2.07,4.56,4.56,0,0,1,2.73.85,4.45,4.45,0,0,1,1.79,3.9,12.42,12.42,0,0,1-.1,1.38H302.1c-.72,0-1.26,0-1.62,0a6.68,6.68,0,0,0-.07,1,3.91,3.91,0,0,0,.94,2.77,3.34,3.34,0,0,0,2.58,1,5.42,5.42,0,0,0,3.44-1.36l.32.24a4,4,0,0,0-.66,1.49,3.67,3.67,0,0,1-1.32.56,9,9,0,0,1-2.56.37,5.62,5.62,0,0,1-4-1.38A5.18,5.18,0,0,1,297.67,312.19Zm3-1.81h5.43a7.1,7.1,0,0,0,.17-1.61c0-1.65-.71-2.47-2.13-2.47Q301.71,306.3,300.65,310.38Z"/><path class="cls-1" d="M329.63,308.3a19.84,19.84,0,0,1-.66,3.78q-.54,2.26-1,5.14a9.65,9.65,0,0,0-1.49-.15,11.72,11.72,0,0,0-1.49.15q.45-1.61,1.2-4.56a20.29,20.29,0,0,0,.76-3.8,1.68,1.68,0,0,0-1.88-1.92,2.73,2.73,0,0,0-2.54,1.73,17,17,0,0,0-1.15,4c-.41,2-.71,3.56-.91,4.58a7.53,7.53,0,0,0-1.41-.15,6.38,6.38,0,0,0-1.42.15,64.14,64.14,0,0,0,1.86-8.5,1.59,1.59,0,0,0-1.83-1.78,2.57,2.57,0,0,0-1.79.75,4.22,4.22,0,0,0-1.15,1.91,58,58,0,0,0-1.56,7.62,8.9,8.9,0,0,0-1.42-.15,13.16,13.16,0,0,0-1.44.15c.3-1.08.72-2.92,1.27-5.55.31-1.44.71-3.5,1.2-6.15a6.53,6.53,0,0,1,.66.07,4.41,4.41,0,0,0,.73.07,6.37,6.37,0,0,0,1.37-.14,16.63,16.63,0,0,0-.44,1.81,5.29,5.29,0,0,1,4-2,2.91,2.91,0,0,1,3,2.27A8.16,8.16,0,0,1,324,306a4.88,4.88,0,0,1,2.54-.61,3.44,3.44,0,0,1,1.93.54A2.64,2.64,0,0,1,329.63,308.3Z"/><path class="cls-1" d="M335.85,309.45q-.68,3.23-1.56,7.77c-.78-.1-1.24-.15-1.39-.15s-.59.05-1.47.15q1.74-7.19,2.45-11.7c.83.1,1.32.14,1.49.14a8.58,8.58,0,0,0,1.39-.14C336.5,306.64,336.2,308,335.85,309.45Zm.2-9.62a1.51,1.51,0,0,1,1.09.46,1.49,1.49,0,0,1,.47,1.12,1.55,1.55,0,0,1-.46,1.12,1.51,1.51,0,0,1-1.1.47,1.5,1.5,0,0,1-1.11-.49,1.52,1.52,0,0,1-.48-1.1,1.47,1.47,0,0,1,.49-1.12A1.55,1.55,0,0,1,336.05,299.83Z"/><path class="cls-1" d="M338.59,314l1.17-5.47c.23-1,.4-2.06.52-3.05a8.12,8.12,0,0,0,1.29.14l1.49-.14c-.13.5-.28,1.11-.46,1.81a5.35,5.35,0,0,1,4-2,4.08,4.08,0,0,1,2.1.51,2.55,2.55,0,0,1,1.27,2.36,6.6,6.6,0,0,1-.14,1.29l-.52,2.36c-.53,2.45-.87,4.22-1,5.33a10.33,10.33,0,0,0-1.54-.15,9.68,9.68,0,0,0-1.46.15c.52-1.82.87-3.16,1.07-4l.52-2.27a11.77,11.77,0,0,0,.34-2.28,1.64,1.64,0,0,0-.5-1.23,2,2,0,0,0-1.38-.47,3.16,3.16,0,0,0-2.81,1.82,12.11,12.11,0,0,0-.9,3l-.48,2.19c-.11.57-.3,1.65-.56,3.23l-1.36-.15a13,13,0,0,0-1.47.15C338,316.54,338.28,315.48,338.59,314Z"/><path class="cls-1" d="M356.2,309.45q-.68,3.23-1.56,7.77c-.78-.1-1.25-.15-1.39-.15s-.59.05-1.47.15q1.74-7.19,2.44-11.7c.84.1,1.33.14,1.49.14a8.59,8.59,0,0,0,1.4-.14C356.85,306.64,356.54,308,356.2,309.45Zm.2-9.62a1.59,1.59,0,0,1,1.56,1.58,1.55,1.55,0,0,1-.46,1.12,1.51,1.51,0,0,1-1.1.47,1.47,1.47,0,0,1-1.11-.49,1.52,1.52,0,0,1-.48-1.1,1.47,1.47,0,0,1,.49-1.12A1.54,1.54,0,0,1,356.4,299.83Z"/><path class="cls-1" d="M359.55,313.54l.82-3.8c.33-1.49.54-2.46.62-2.88a16.83,16.83,0,0,0-1.93.08,5.65,5.65,0,0,0,.25-1.25h1.88c.21-1.13.39-2.06.53-2.8a11.42,11.42,0,0,0,3.16-1.3c-.44,1.49-.79,2.86-1,4.1h2.37a9.26,9.26,0,0,0-.3,1.25,20.35,20.35,0,0,0-2.35-.08l-.42,1.93-.73,3.37a14.73,14.73,0,0,0-.33,2.38c0,1.09.47,1.63,1.42,1.63a5.07,5.07,0,0,0,1.63-.49l.05.07a6,6,0,0,0-.22.94,6.19,6.19,0,0,1-2.83.72,3.06,3.06,0,0,1-2-.64,2.09,2.09,0,0,1-.77-1.67A7.6,7.6,0,0,1,359.55,313.54Z"/><path class="cls-1" d="M378.53,305.52l-2.88,4.81c-1.71,2.85-3.13,5.29-4.25,7.3q-2.13,3.83-3.06,5.89a5.78,5.78,0,0,0-1-.14,6.46,6.46,0,0,0-1.12.14c.55-.76,1.37-1.94,2.44-3.52l1.39-2.22c0-.11-.24-1.19-.73-3.22l-1.2-5q-.09-.44-1-4.05a8,8,0,0,1,.9.07,6.24,6.24,0,0,0,.81.07,7.11,7.11,0,0,0,1.39-.14c.23,1.56.79,4.57,1.69,9a67.43,67.43,0,0,0,4.44-9,9.9,9.9,0,0,0,1.13.14A11.07,11.07,0,0,0,378.53,305.52Z"/></svg>