<?xml version="1.0" encoding="utf-8"?>
<!-- Generator: Adobe Illustrator 25.2.1, SVG Export Plug-In . SVG Version: 6.00 Build 0)  -->
<svg version="1.1" id="Layer_1" xmlns="http://www.w3.org/2000/svg" xmlns:xlink="http://www.w3.org/1999/xlink" x="0px" y="0px"
	 viewBox="0 0 683.79 326.67" style="enable-background:new 0 0 683.79 326.67;" xml:space="preserve">
<style type="text/css">
	.st0{clip-path:url(#SVGID_2_);fill:#FBEDE2;}
	.st1{clip-path:url(#SVGID_2_);}
	.st2{clip-path:url(#SVGID_4_);fill:#D9AB97;}
	.st3{clip-path:url(#SVGID_6_);fill:#FBEDE2;}
	.st4{clip-path:url(#SVGID_6_);}
	.st5{clip-path:url(#SVGID_8_);fill:#0F5C47;}
	.st6{fill:#0F5C47;}
</style>
<g>
	<g>
		<g>
			<path class="st6" d="M299.02,125.92h27.72l0.46,5.06c-0.61-0.81-1.81-1.68-3.6-2.62c-1.78-0.94-3.54-1.41-5.26-1.41H305v18.06
				h11.33c3.03,0,5.29-1.02,6.79-3.05v7.13c-1.5-2.03-3.76-3.05-6.79-3.05H305v19.56h-4.31v-33.48c0-1.34-0.14-2.53-0.4-3.57
				c-0.27-1.04-0.56-1.73-0.86-2.07L299.02,125.92z"/>
			<path class="st6" d="M337.78,125.92v38.65h15.24c1.73,0,3.47-0.46,5.23-1.38c1.76-0.92,2.95-1.78,3.57-2.59l-0.4,5h-26.98h-0.98
				v-33.48c0-1.19-0.13-2.21-0.4-3.08c-0.27-0.86-0.56-1.41-0.86-1.64l-0.4-0.4L337.78,125.92z"/>
			<path class="st6" d="M371.55,130.92c3.76-3.6,8.49-5.41,14.21-5.41c5.71,0,10.45,1.81,14.21,5.44c3.76,3.62,5.64,8.6,5.64,14.93
				c0,6.37-1.88,11.36-5.64,14.99c-3.76,3.62-8.49,5.43-14.21,5.43c-5.71,0-10.45-1.81-14.21-5.43c-3.76-3.62-5.64-8.62-5.64-14.99
				C365.91,139.51,367.79,134.53,371.55,130.92 M396.31,131.64c-2.74-3.47-6.26-5.2-10.56-5.2c-4.29,0-7.82,1.74-10.58,5.2
				c-2.76,3.47-4.14,8.22-4.14,14.24c0,6.02,1.38,10.78,4.14,14.26c2.76,3.49,6.29,5.23,10.58,5.23c4.29,0,7.81-1.74,10.56-5.23
				c2.74-3.49,4.11-8.24,4.11-14.26C400.42,139.86,399.05,135.11,396.31,131.64"/>
			<path class="st6" d="M424.93,125.92h3.85c1.57,0,3.04,0.17,4.4,0.52c1.36,0.35,2.66,0.89,3.88,1.64c1.23,0.75,2.2,1.83,2.91,3.25
				c0.71,1.42,1.06,3.09,1.06,5.01c0,2.11-0.35,3.93-1.06,5.46c-0.71,1.53-1.68,2.69-2.91,3.48s-2.52,1.35-3.88,1.7
				c-1.36,0.34-2.83,0.52-4.4,0.52h-2.36c3.3,0.54,6.06,1.75,8.28,3.62c1.65,1.38,2.94,3.09,3.88,5.12c0.94,2.03,1.7,3.93,2.27,5.69
				c0.58,1.76,1.24,2.99,2.01,3.68h-1.12h-1.21c-0.17,0-0.53-0.03-1.06-0.09c-0.54-0.06-0.9-0.13-1.09-0.23
				c-0.19-0.1-0.49-0.24-0.89-0.43c-0.4-0.19-0.71-0.43-0.92-0.72c-0.21-0.29-0.43-0.65-0.66-1.09c-0.23-0.44-0.42-0.93-0.57-1.47
				c-0.04-0.11-0.14-0.5-0.32-1.15c-0.17-0.65-0.28-1.07-0.32-1.24c-0.04-0.17-0.14-0.55-0.32-1.15c-0.17-0.6-0.3-1-0.37-1.21
				c-0.08-0.21-0.21-0.57-0.4-1.07c-0.19-0.5-0.36-0.87-0.52-1.12c-0.15-0.25-0.35-0.57-0.6-0.98c-0.25-0.4-0.49-0.74-0.72-1.01
				c-0.23-0.27-0.5-0.56-0.8-0.86c-0.31-0.31-0.63-0.59-0.98-0.86c-1.61-1.23-3.45-2.09-5.52-2.59c-2.07-0.5-4.6-0.77-7.59-0.8
				v18.06h-4.37v-33.48c0-1.34-0.13-2.53-0.4-3.57c-0.27-1.04-0.56-1.73-0.86-2.07l-0.4-0.57h6.04H424.93z M416.87,126.95v19.5
				h11.91c2.38,0,4.29-0.95,5.75-2.85c1.46-1.9,2.18-4.32,2.18-7.28c0-2.88-0.72-5.16-2.16-6.85c-1.44-1.69-3.36-2.53-5.78-2.53
				H416.87z"/>
			<path class="st6" d="M453.86,125.92v39.69h-4.37v-33.48c0-1.19-0.13-2.21-0.4-3.08c-0.27-0.86-0.54-1.41-0.81-1.64l-0.4-0.4
				L453.86,125.92z"/>
			<path class="st6" d="M472.15,125.92h6.44l17.03,39.69h-4.77c-2.3-5.37-4.06-9.49-5.29-12.37h-19.21l-5.23,12.37h-1.09
				l15.24-36.18C474.53,128.16,473.49,126.99,472.15,125.92 M475.89,130.63l-9.09,21.57h18.29c-1.11-2.57-2.65-6.19-4.63-10.87
				C478.49,136.66,476.96,133.09,475.89,130.63"/>
			<path class="st6" d="M523.86,125.92v38.65h15.24c1.73,0,3.47-0.46,5.23-1.38c1.76-0.92,2.95-1.78,3.57-2.59l-0.4,5h-26.98h-0.98
				v-33.48c0-1.19-0.14-2.21-0.4-3.08c-0.27-0.86-0.55-1.41-0.86-1.64l-0.4-0.4L523.86,125.92z"/>
			<path class="st6" d="M558.6,125.92v25.94c0,3.72,1.13,6.7,3.39,8.94c2.26,2.24,5.29,3.36,9.09,3.36c3.91,0,6.96-1.12,9.15-3.36
				c2.18-2.24,3.28-5.22,3.28-8.94v-25.94h1.04c0.04,0,0.06,4.49,0.06,13.46l-0.06,13.4c0,4.1-1.44,7.36-4.31,9.78
				c-2.88,2.42-6.48,3.62-10.82,3.62s-7.95-1.21-10.84-3.62c-2.9-2.42-4.34-5.67-4.34-9.78v-20.65c0-1.19-0.14-2.21-0.4-3.08
				c-0.27-0.86-0.54-1.41-0.8-1.64l-0.4-0.4L558.6,125.92z"/>
			<polygon class="st6" points="589.15,125.92 594.67,125.92 608.65,144.15 624.12,125.92 625.44,125.92 609.28,145.02 
				625.1,165.61 619.63,165.61 606.06,147.95 590.81,165.61 589.43,165.61 605.42,147.09 			"/>
			<path class="st6" d="M629.53,125.92h27.72l0.46,5.06c-0.61-0.81-1.81-1.68-3.6-2.62c-1.78-0.94-3.54-1.41-5.26-1.41h-13.34v18.06
				h11.33c3.03,0,5.29-1.02,6.79-3.05v7.13c-1.5-2.03-3.76-3.05-6.79-3.05h-11.33v18.52h15.24c1.72,0,3.47-0.46,5.23-1.38
				c1.76-0.92,2.95-1.78,3.57-2.59l-0.4,5h-26.98h-2.65c1.11-1.15,1.67-3.22,1.67-6.21v-27.26c0-1.34-0.14-2.53-0.4-3.57
				c-0.27-1.04-0.56-1.73-0.86-2.07L629.53,125.92z"/>
		</g>
		<g>
			<path class="st6" d="M333.97,196.12l-1.88-4.2h-10.21l-1.86,4.2h-1.42l7.67-17.1h1.44l7.67,17.1H333.97z M331.58,190.7
				l-4.59-10.41l-4.59,10.41H331.58z"/>
			<path class="st6" d="M343.82,201.16v-17.1h1.17v2.86c0.95-1.83,2.88-3.03,5.23-3.03c3.27,0.12,5.86,2.32,5.86,6.2
				c0,4.06-2.74,6.25-6.13,6.25c-2.05,0-3.96-1-4.98-3.01v7.82H343.82z M354.88,190.09c0-3.4-2.2-5.06-4.94-5.06
				c-2.81,0-4.89,2.12-4.89,5.08c0,2.96,2.13,5.08,4.89,5.08C352.68,195.19,354.88,193.49,354.88,190.09"/>
			<path class="st6" d="M358.45,190.11c0-3.83,2.74-6.28,6.13-6.28c3.4,0,6.13,2.44,6.13,6.28c0,3.84-2.74,6.18-6.13,6.18
				C361.19,196.29,358.45,193.95,358.45,190.11 M369.54,190.11c0-3.13-2.22-5.15-4.96-5.15s-4.96,2.03-4.96,5.15
				c0,3.13,2.22,5.01,4.96,5.01S369.54,193.24,369.54,190.11"/>
			<path class="st6" d="M372.79,190.09c0-3.62,2.74-6.23,6.13-6.23s6.42,2.08,5.96,6.79h-10.87c0.24,2.83,2.42,4.47,4.91,4.47
				c1.59,0,3.45-0.64,4.35-1.83l0.86,0.68c-1.17,1.54-3.27,2.32-5.2,2.32C375.52,196.29,372.79,193.92,372.79,190.09 M383.81,189.6
				c-0.02-2.98-1.98-4.64-4.89-4.64c-2.49,0-4.64,1.69-4.91,4.64H383.81z"/>
			<path class="st6" d="M390.23,180.42v3.64h4.1v1h-4.1v7.35c0,1.64,0.34,2.78,2.22,2.78c0.59,0,1.25-0.2,1.86-0.49l0.42,0.98
				c-0.76,0.37-1.52,0.61-2.27,0.61c-2.57,0-3.4-1.51-3.4-3.88v-7.35h-2.57v-1h2.57v-3.52L390.23,180.42z"/>
			<path class="st6" d="M398.68,180.12c0,1.27-1.93,1.27-1.93,0C396.75,178.85,398.68,178.85,398.68,180.12 M397.1,196.12h1.2
				v-12.12h-1.2V196.12z"/>
			<path class="st6" d="M411.61,194.44c-1.22,1.22-2.81,1.81-4.4,1.81c-3.4,0-6.2-2.35-6.2-6.16c0-3.81,2.71-6.16,6.2-6.16
				c1.59,0,3.18,0.61,4.4,1.81l-0.78,0.76c-0.98-0.98-2.32-1.44-3.61-1.44c-2.74,0-5.03,1.78-5.03,5.03c0,3.25,2.3,5.03,5.03,5.03
				c1.29,0,2.61-0.51,3.59-1.49L411.61,194.44z"/>
			<polygon class="st6" points="433.22,196.12 431.91,196.12 429.95,190.85 428.49,186.16 426.97,190.87 425.02,196.12 
				423.7,196.12 419.4,184.06 420.72,184.06 424.36,194.73 428.05,184.06 428.9,184.06 432.56,194.73 436.18,184.06 437.5,184.06 
							"/>
			<path class="st6" d="M438.89,190.11c0-3.83,2.74-6.28,6.13-6.28s6.13,2.44,6.13,6.28c0,3.84-2.74,6.18-6.13,6.18
				S438.89,193.95,438.89,190.11 M449.98,190.11c0-3.13-2.22-5.15-4.96-5.15c-2.74,0-4.96,2.03-4.96,5.15
				c0,3.13,2.22,5.01,4.96,5.01C447.76,195.12,449.98,193.24,449.98,190.11"/>
			<path class="st6" d="M455.04,184.05l0.05,2.15c0.76-1.64,2.47-2.27,4.01-2.27c0.9-0.02,1.78,0.22,2.59,0.71l-0.54,0.98
				c-0.64-0.39-1.34-0.56-2.05-0.56c-2.25,0.02-3.98,1.83-3.98,4.03v7.04h-1.2v-12.07H455.04z"/>
			<rect x="463.49" y="179.02" class="st6" width="1.2" height="17.1"/>
			<path class="st6" d="M479.61,179.02v17.1h-1.17v-2.66c-1,1.83-2.98,2.86-5.03,2.86c-3.37,0-6.03-2.22-6.03-6.23
				c0-3.98,2.69-6.23,6.06-6.23c2.08,0,4.03,0.88,5.01,2.83v-7.67H479.61z M468.55,190.09c0,3.35,2.22,5.06,4.93,5.06
				c2.83,0,4.93-2.08,4.93-5.08c0-3.01-2.15-5.06-4.93-5.06C470.77,185.01,468.55,186.69,468.55,190.09"/>
			<path class="st6" d="M489.21,190.11c0-3.83,2.74-6.28,6.13-6.28c3.4,0,6.13,2.44,6.13,6.28c0,3.84-2.74,6.18-6.13,6.18
				C491.95,196.29,489.21,193.95,489.21,190.11 M500.3,190.11c0-3.13-2.22-5.15-4.96-5.15c-2.74,0-4.96,2.03-4.96,5.15
				c0,3.13,2.22,5.01,4.96,5.01C498.08,195.12,500.3,193.24,500.3,190.11"/>
			<path class="st6" d="M505.48,196.12V185.2h-2.47v-1.05h2.47v-1.07c0-2.39,0.95-4.13,3.61-4.13c0.9,0,1.71,0.32,2.39,0.83
				l-0.59,0.88c-0.66-0.39-1.12-0.61-1.86-0.61c-1.51,0-2.39,0.93-2.39,3.03v1.07h3.98v1.05h-3.98v10.92H505.48z"/>
			<path class="st6" d="M519.6,190.11c0-3.83,2.74-6.28,6.13-6.28c3.4,0,6.13,2.44,6.13,6.28c0,3.84-2.74,6.18-6.13,6.18
				C522.34,196.29,519.6,193.95,519.6,190.11 M530.69,190.11c0-3.13-2.22-5.15-4.96-5.15c-2.74,0-4.96,2.03-4.96,5.15
				c0,3.13,2.22,5.01,4.96,5.01C528.47,195.12,530.69,193.24,530.69,190.11"/>
			<path class="st6" d="M535.87,196.12V185.2h-2.47v-1.05h2.47v-1.07c0-2.39,0.95-4.13,3.61-4.13c0.9,0,1.71,0.32,2.39,0.83
				l-0.59,0.88c-0.66-0.39-1.12-0.61-1.86-0.61c-1.51,0-2.39,0.93-2.39,3.03v1.07h3.98v1.05h-3.98v10.92H535.87z"/>
			<path class="st6" d="M551.8,196.12V185.2h-2.47v-1.05h2.47v-1.07c0-2.39,0.95-4.13,3.62-4.13c0.9,0,1.71,0.32,2.39,0.83
				l-0.59,0.88c-0.66-0.39-1.12-0.61-1.86-0.61c-1.52,0-2.39,0.93-2.39,3.03v1.07h3.98v1.05h-3.98v10.92H551.8z"/>
			<path class="st6" d="M559.08,190.09c0-3.62,2.74-6.23,6.13-6.23c3.4,0,6.43,2.08,5.96,6.79H560.3c0.24,2.83,2.42,4.47,4.91,4.47
				c1.59,0,3.45-0.64,4.35-1.83l0.85,0.68c-1.17,1.54-3.27,2.32-5.2,2.32C561.81,196.29,559.08,193.92,559.08,190.09 M570.1,189.6
				c-0.03-2.98-1.98-4.64-4.89-4.64c-2.49,0-4.64,1.69-4.91,4.64H570.1z"/>
			<path class="st6" d="M591.91,196.12v-7.23c0-2.32-1.56-3.96-3.86-3.96c-2.3,0-3.89,1.71-3.89,4.03v7.16h-1.2v-7.16
				c0-2.32-1.59-4.01-3.89-4.01c-2.3,0-3.86,1.68-3.86,4.01v7.16h-1.2v-12.07h1.12l0.03,2c0.83-1.59,2.37-2.25,3.93-2.25
				c1.83,0,3.76,0.83,4.47,2.98c0.73-1.98,2.61-2.98,4.47-2.98c2.95,0,5.06,2.08,5.06,5.08v7.23H591.91z"/>
			<path class="st6" d="M598.06,180.12c0,1.27-1.93,1.27-1.93,0C596.13,178.85,598.06,178.85,598.06,180.12 M596.48,196.12h1.2
				v-12.12h-1.2V196.12z"/>
			<path class="st6" d="M602.27,184.05v2.15c0.93-1.66,2.61-2.35,4.3-2.37c3.22,0,5.45,1.98,5.45,5.33v6.96h-1.2v-6.94
				c0-2.74-1.69-4.2-4.3-4.18c-2.49,0.03-4.23,1.9-4.23,4.4v6.72h-1.2v-12.07H602.27z"/>
			<path class="st6" d="M616.73,180.12c0,1.27-1.93,1.27-1.93,0C614.8,178.85,616.73,178.85,616.73,180.12 M615.14,196.12h1.2
				v-12.12h-1.2V196.12z"/>
			<path class="st6" d="M622.52,180.42v3.64h4.1v1h-4.1v7.35c0,1.64,0.34,2.78,2.22,2.78c0.59,0,1.25-0.2,1.86-0.49l0.42,0.98
				c-0.76,0.37-1.52,0.61-2.27,0.61c-2.57,0-3.4-1.51-3.4-3.88v-7.35h-2.57v-1h2.57v-3.52L622.52,180.42z"/>
			<polygon class="st6" points="639.96,184.05 632.61,201.16 631.34,201.16 633.56,195.98 628.72,184.05 630.02,184.05 
				632.83,191.19 634.24,194.68 635.63,191.16 638.66,184.05 			"/>
		</g>
	</g>
	<g>
		<path class="st6" d="M215.64,150.05c-0.98-10.22-6.73-18.5-16.19-23.73c-1.18-0.66-2.41-1.26-3.71-1.81
			c-0.99-0.43-2-0.82-3.05-1.18c-0.86-0.3-4.29-1.13-5.19-1.39l-0.01,2.29c0.18,0.05,0.91,0.36,1.09,0.42
			c0.25,0.07,0.49,0.14,0.73,0.21c1.28,0.36,2.51,0.76,3.68,1.22c1.62,0.61,3.16,1.31,4.6,2.07c9.13,4.83,14.67,12.58,15.58,22.15
			c0.82,8.5-2.13,17.34-7.8,24.97c-0.54-8.59-3.5-17.22-9.32-24.51c-0.88-1.11-1.83-2.18-2.85-3.21c-1.7-1.76-3.61-3.4-5.72-4.92
			v-17.6l-0.58,0.57c-0.58,0.58-1.5,0.54-2.08,0c-0.07-0.07-0.14-0.15-0.19-0.24c-0.34-0.03-0.71-0.06-1.16-0.09h-0.03l-9.78,0.09
			l-6.49,0.06l-1.66,0.02c-0.64,0.03-1.28,0.07-1.95,0.11c-0.03,0-0.08,0.01-0.11,0.01c-6.7,0.44-12.83,3.55-16.42,9.32
			c-1.18,1.91-2.08,4.02-2.62,6.2c-0.18,0.71,0.31,1.42,1.04,1.51c0.04,0.01,0.1,0.01,0.15,0.01c0.55,0,1.06-0.38,1.18-0.94
			c0.66-2.82,3.24-10.36,12.23-12.86c1-0.29,2.07-0.5,3.24-0.63c0.47-0.07,0.95-0.11,1.46-0.15c3.07-0.2,5.78-0.32,8.16-0.38
			c0.12-0.01,0.24-0.01,0.36-0.02c6.76-0.18,10.75,0.07,12.59,0.24c0.11,0.01,0.2,0.1,0.2,0.22v17.28c0,0.06-0.03,0.13-0.08,0.17
			c-0.33,0.29-0.64,0.57-0.96,0.84c-1.89,1.61-3.75,2.91-5.56,3.96c-1.06,0.63-2.12,1.15-3.16,1.61c-2.15,0.95-4.22,1.56-6.18,1.91
			c-0.92,0.17-1.8,0.29-2.67,0.34c-6.68,0.52-11.75-1.74-13.78-2.85c-0.57-0.31-1.25-0.12-1.61,0.4c-0.14,0.21-0.21,0.46-0.21,0.69
			c0,0.43,0.23,0.85,0.64,1.08c2.1,1.12,6.86,3.23,13.11,3.23c0.6,0,1.22-0.02,1.85-0.06c0.87-0.06,1.76-0.15,2.67-0.31
			c1.97-0.33,4.04-0.88,6.18-1.74c1.04-0.41,2.1-0.9,3.16-1.46c1.82-0.96,3.67-2.16,5.56-3.62c0.22-0.16,0.45-0.34,0.68-0.52
			c0.14-0.12,0.36-0.03,0.36,0.16v9.46c0,3.53-0.36,6.99-1.04,10.34c-1.07,5.28-2.97,10.29-5.56,14.87
			c-0.96,1.68-2.02,3.32-3.16,4.88c-1.84,2.52-3.91,4.86-6.18,7c-0.86,0.82-1.75,1.59-2.67,2.34c-5.02,4.1-10.88,7.29-17.39,9.28
			l-10.51,3.24c-0.04,0.01-0.09,0.01-0.13,0l-10.62-3.24c-6.63-2.03-12.61-5.31-17.72-9.54c-0.92-0.76-1.8-1.55-2.67-2.38
			c-2.28-2.16-4.34-4.54-6.18-7.08c-1.14-1.58-2.2-3.24-3.15-4.95c-2.63-4.68-4.52-9.78-5.57-15.15c-0.64-3.21-0.96-6.51-0.96-9.87
			v-9.21c0-0.19,0.21-0.28,0.35-0.16c0.21,0.16,0.41,0.32,0.61,0.47c1.89,1.48,3.74,2.67,5.57,3.64c1.06,0.57,2.12,1.06,3.15,1.47
			c2.16,0.87,4.22,1.43,6.18,1.77c0.91,0.15,1.8,0.25,2.67,0.31c0.65,0.04,1.29,0.06,1.91,0.06c6.25,0,11.02-2.11,13.11-3.24
			c0.64-0.34,0.84-1.16,0.44-1.77c-0.24-0.35-0.63-0.55-1.03-0.55c-0.2,0-0.39,0.04-0.58,0.15c-2.05,1.11-7.15,3.38-13.86,2.84
			c-0.86-0.05-1.76-0.16-2.67-0.34c-1.96-0.36-4.03-0.97-6.18-1.92c-1.04-0.46-2.09-1-3.15-1.62c-1.83-1.06-3.68-2.37-5.57-3.98
			c-0.27-0.24-0.57-0.48-0.84-0.74c0,0,0,0,0,0v-19.63c-0.88-0.62-1.76-1.23-2.65-1.83v2.02h0.01l0.04,14.79h0
			c-0.03,0.02-0.03,0.02-0.06,0.04c-3.08,1.95-5.8,4.16-8.14,6.57c-1.02,1.04-1.97,2.1-2.85,3.21c-5.81,7.28-8.78,15.92-9.32,24.51
			c-5.67-7.63-8.61-16.48-7.8-24.97c0.87-9.17,5.99-16.67,14.45-21.53c1.63-0.94,3.38-1.78,5.26-2.52c1.18-0.46,2.41-0.89,3.69-1.26
			c0.39-0.12,0.8-0.23,1.2-0.34c1.03-0.27,3.9-0.87,4.89-1.16c-0.54-0.36,0.55-0.81,0-1.16c-0.33-0.21-0.51-1.12-0.61-1.46
			c-0.46,0.12-4.46,1.27-4.93,1.39c-1.37,0.37-2.7,0.79-3.98,1.25c-1.05,0.37-2.06,0.78-3.04,1.23c-1.53,0.67-2.97,1.42-4.33,2.22
			c-8.8,5.26-14.14,13.29-15.08,23.1c-0.96,10.24,2.87,20.67,10.2,29.25c0.13,5.31,1.18,10.51,3.03,15.25
			c0.95,2.41,2.18,4.82,3.69,7.1c0.17,0.27,0.34,0.52,0.53,0.78c0.21,0.31,0.42,0.62,0.65,0.91c0.31,0.43,0.64,0.85,0.97,1.25
			c0.17,0.21,0.34,0.42,0.52,0.63c0,0,0,28.93-0.01,28.93c-1.13,0.18-1.8,0.31-1.92,0.33l-1.56,0.31l0.69,1.43
			c0.77,1.63,1.71,3.17,2.81,4.61v3.7c0,31.08,24.15,56.63,54.67,58.87c1.43,0.11,2.88,0.16,4.33,0.16h0.04
			c1.45,0,2.89-0.04,4.33-0.15c30.54-2.22,54.72-27.79,54.72-58.88v-3.72c1.08-1.43,2.02-2.96,2.79-4.59l0.68-1.43l-1.55-0.31
			c-0.13-0.03-0.8-0.16-1.91-0.33v-28.94c2.76-3.25,4.89-6.93,6.35-10.66c1.86-4.75,2.91-9.94,3.05-15.26
			C212.78,170.7,216.61,160.28,215.64,150.05 M77.97,201.15c-1.68-2.38-3.04-4.95-4.04-7.51c-1.43-3.6-2.34-7.47-2.71-11.45
			c2.05,2.04,4.31,3.98,6.76,5.73c0.92,0.66,1.87,1.3,2.85,1.91c1.76,1.12,3.61,2.16,5.56,3.09c0.88,0.43,1.74,0.86,2.58,1.3
			c1.22,0.63,2.38,1.25,3.5,1.89c2,1.12,3.86,2.27,5.57,3.39c1.11,0.74,2.16,1.46,3.15,2.19c2.35,1.71,4.4,3.4,6.18,5.06
			c0.97,0.88,1.85,1.76,2.67,2.62c0.94,0.99,1.77,1.94,2.52,2.87c-0.85,0.26-1.69,0.48-2.52,0.66h-0.01
			c-0.61,0.15-1.22,0.27-1.81,0.38c-0.28,0.05-0.57,0.11-0.85,0.15h-0.01c-2.16,0.33-4.21,0.47-6.17,0.43
			c-0.72-0.02-1.43-0.07-2.12-0.14c-0.34-0.03-0.7-0.06-1.04-0.1c-1.97-0.26-3.82-0.7-5.56-1.3c-0.82-0.28-1.61-0.61-2.36-0.96
			c-0.39-0.16-0.77-0.33-1.14-0.53h-0.01c-3.13-1.58-5.85-3.71-8.14-6.16v-0.01c-0.77-0.83-1.49-1.69-2.18-2.59
			C78.4,201.77,78.19,201.47,77.97,201.15C77.97,201.16,77.97,201.15,77.97,201.15 M114.17,214.33c0.13,0.19,0.27,0.38,0.4,0.55
			c0.01,0.03,0.03,0.06,0.04,0.08c2.17,3.46,7.27,12.78,4.99,21.09c-0.09,0.37-0.21,0.73-0.33,1.09c-2.88-1.05-5.95-1.9-9.23-2.55
			v-19.15C111.39,215.15,112.77,214.78,114.17,214.33 M107.37,215.94v18.18h-0.01c-0.25-0.04-0.49-0.09-0.74-0.12
			c-1.84-0.28-3.65-0.49-5.44-0.64v-16.99c0.21,0.01,0.4,0.01,0.62,0.01C103.6,216.38,105.44,216.23,107.37,215.94L107.37,215.94z
			 M98.03,216.16v16.98c-1.61-0.07-3.17-0.11-4.67-0.11c-0.3,0-0.6,0.01-0.89,0.01v-18.05C94.22,215.54,96.07,215.93,98.03,216.16
			 M88.96,213.65v19.46h-0.01c-3.2,0.13-5.98,0.39-8.14,0.64V208.2C83.18,210.38,85.89,212.25,88.96,213.65 M80.82,236.27
			c2.11-0.26,4.9-0.52,8.14-0.65h0.01c0.36-0.02,0.74-0.03,1.11-0.03c0.78-0.03,1.57-0.04,2.4-0.05c0.35-0.01,0.71-0.01,1.08-0.01
			c1.44,0,2.94,0.03,4.48,0.12c0.33,0.02,0.67,0.03,1,0.06c0.71,0.04,1.43,0.09,2.15,0.15h0.01c1.69,0.15,3.39,0.34,5.13,0.6
			c0.35,0.06,0.7,0.11,1.05,0.17h0.01c0.28,0.04,0.58,0.1,0.87,0.16c0.6,0.1,1.2,0.21,1.79,0.33h0.01c2.91,0.59,5.64,1.35,8.2,2.25
			c-1.65,2.92-4.34,5.37-8.05,7.3h-0.01c-0.72,0.39-1.49,0.75-2.28,1.09c-0.09,0.03-0.16,0.07-0.25,0.1
			c-1.92,0.79-3.92,1.3-5.93,1.51h-0.01c-1.06,0.11-2.11,0.15-3.18,0.11h-0.01c-1.99-0.08-3.98-0.44-5.89-1.07
			c-0.89-0.29-1.77-0.64-2.62-1.06c-0.33-0.16-0.66-0.33-1-0.51c-3.31-1.73-6.04-3.87-8.21-6.42v-0.01c-1-1.18-1.89-2.43-2.65-3.78
			C78.86,236.53,79.74,236.4,80.82,236.27 M193.21,244.54c0,0.75-0.01,1.49-0.05,2.22c-1.08,27.92-22.65,50.68-50.06,53.64
			c-1.47,0.16-2.95,0.27-4.46,0.31c-0.54,0.02-1.08,0.02-1.63,0.02h-0.04c-0.55,0-1.09-0.01-1.63-0.02
			c-1.5-0.04-2.99-0.16-4.46-0.32c-27.39-2.97-48.92-25.72-50.01-53.62c-0.03-0.74-0.05-1.49-0.05-2.23v-0.51
			c2.28,2.17,4.98,4.01,8.12,5.54c0.1,0.05,0.21,0.1,0.32,0.16c0.08,0.79,0.19,1.56,0.31,2.34c3.12,19.83,18.1,35.76,37.43,40.3
			c-0.56-1.37-1.05-2.7-1.48-4.01v-0.01c-16.29-4.71-28.86-18.25-32.18-35.07c-0.15-0.71-0.27-1.44-0.38-2.17
			c1.97,0.55,4,0.84,6.06,0.88c0.15,0.68,0.32,1.35,0.51,2.02c3.42,12.16,12.42,22.01,24.06,26.57c-0.21-1.25-0.36-2.45-0.46-3.61
			c-9.75-4.36-17.26-12.82-20.38-23.17c-0.2-0.64-0.37-1.31-0.53-1.97c1.99-0.24,3.96-0.72,5.87-1.45h0.01
			c0.14,0.66,0.31,1.31,0.51,1.96c2.27,7.8,7.55,14.33,14.48,18.25c0.08-1,0.18-1.97,0.33-2.9c-5.94-3.69-10.42-9.52-12.34-16.4
			c-0.18-0.66-0.35-1.33-0.47-2.01c4.67-2.28,8.03-5.3,9.99-8.99c4.77,1.97,8.9,4.51,12.33,7.65c0.82,0.74,1.59,1.51,2.32,2.32
			c-5.2,6.81-7.68,13.32-8.5,19.21c-0.13,0.95-0.21,1.87-0.27,2.78c-0.11,2.13-0.03,4.17,0.22,6.1c0.15,1.21,0.37,2.38,0.62,3.49
			c0.67,2.85,1.62,5.41,2.65,7.58c0.69,1.46,1.42,2.76,2.1,3.86c1.75,2.86,3.25,4.49,3.31,4.55l1.6,1.7l0.02,0.01l0.03-0.02
			l1.63-1.68c0.05-0.05,1.46-1.59,3.15-4.29c0.67-1.06,1.37-2.31,2.06-3.72h-0.01c1.02-2.11,2-4.58,2.69-7.35h0.01
			c0.27-1.09,0.51-2.22,0.69-3.4h-0.01c0.27-1.88,0.41-3.87,0.35-5.96h0.01c-0.02-0.9-0.09-1.82-0.19-2.75h-0.01
			c-0.69-6.13-3.14-12.96-8.62-20.12c0.73-0.8,1.5-1.57,2.3-2.31c3.44-3.14,7.57-5.69,12.35-7.66c2.22,4.12,6.14,7.4,11.73,9.77
			c0.16,0.08,0.33,0.14,0.5,0.2h0.01c-0.16,0.67-0.34,1.32-0.55,1.97c-2.32,7.32-7.56,13.36-14.35,16.74
			c0.1,0.92,0.18,1.87,0.21,2.85c7.88-3.59,14.01-10.4,16.67-18.74c0.2-0.64,0.38-1.29,0.54-1.95c1.97,0.55,3.98,0.83,6.02,0.88
			c-0.16,0.67-0.35,1.34-0.56,2c-3.43,11.15-11.97,20.07-22.88,24.01c-0.12,1.13-0.29,2.3-0.52,3.49
			c12.93-4.04,23.06-14.48,26.71-27.59c0.19-0.68,0.37-1.37,0.52-2.08c2.1-0.25,4.15-0.78,6.14-1.58c-0.1,0.77-0.22,1.54-0.36,2.29
			c-3.26,18.1-17.19,32.52-35.02,36.53c-0.43,1.26-0.92,2.54-1.47,3.85c21.03-3.68,37.51-20.75,40.3-42.07
			c0.11-0.81,0.2-1.63,0.26-2.45v-0.01c2.22-1.25,4.17-2.7,5.88-4.36V244.54z M133.45,289.89L133.45,289.89
			c-1.5-2.43-2.5-4.94-3.14-7.36c-0.3-1.15-0.53-2.29-0.7-3.39h-0.01c-0.33-2.16-0.41-4.17-0.37-5.93c0.03-1.01,0.09-1.94,0.16-2.76
			c0.12-1.21,0.28-2.19,0.41-2.88c0.13-0.68,0.23-1.06,0.24-1.09c1.47-5.42,3.77-10.13,6.93-14.14c0.01-0.01,0.02-0.03,0.03-0.04
			c3.16,4.02,5.48,8.75,6.96,14.18c0.02,0.05,0.48,1.84,0.7,4.64c0.07,0.82,0.11,1.73,0.12,2.71c0.02,1.75-0.1,3.73-0.46,5.81
			c-0.17,1.07-0.41,2.19-0.73,3.3c-0.67,2.36-1.67,4.77-3.13,7.14c-0.75,1.2-1.62,2.4-2.65,3.55c-0.26,0.3-0.53,0.6-0.82,0.9
			c-0.02-0.02-0.03-0.03-0.04-0.04c-0.28-0.29-0.56-0.59-0.82-0.89h0.01C135.12,292.4,134.21,291.16,133.45,289.89 M159.39,214.96
			c0.02-0.02,0.03-0.04,0.04-0.08c0.14-0.17,0.27-0.36,0.4-0.55c2.28,0.71,4.47,1.24,6.57,1.57h0.01v18.25h-0.01
			c-4.18,0.68-8.08,1.67-11.66,2.98c-0.12-0.36-0.25-0.72-0.34-1.09C152.13,227.74,157.23,218.42,159.39,214.96 M193.2,240.41
			c-1.6,1.88-3.5,3.53-5.73,4.97c-1.09,0.71-2.25,1.36-3.49,1.97c-0.03,0.02-0.07,0.03-0.1,0.06h-0.01
			c-1.89,0.9-3.87,1.51-5.92,1.82h-0.01c-1.07,0.17-2.15,0.26-3.24,0.27h-0.01c-2.02,0.01-4.04-0.27-6.03-0.84
			c-0.87-0.24-1.73-0.54-2.57-0.9c-2.45-1.04-4.55-2.27-6.28-3.67c-1.72-1.41-3.08-2.98-4.06-4.72c3.25-1.15,6.81-2.05,10.63-2.7
			h0.01c0.13-0.02,0.26-0.04,0.39-0.06c0.3-0.05,0.6-0.11,0.9-0.15c0.46-0.07,0.93-0.13,1.38-0.19c2.1-0.28,4.16-0.47,6.17-0.58
			h0.01c0.35-0.02,0.71-0.03,1.06-0.05c0.71-0.03,1.41-0.06,2.1-0.07c0.83-0.02,1.65-0.03,2.45-0.03c1.07,0,2.1,0.02,3.11,0.06h0.01
			c0.39,0.01,0.76,0.03,1.13,0.03c0.82,0.04,1.61,0.08,2.36,0.13h0.01c2.22,0.14,4.15,0.33,5.71,0.52h0.01
			c1.07,0.13,1.95,0.26,2.65,0.36C195.1,237.98,194.21,239.23,193.2,240.41 M169.08,233.76v-17.53c1.06,0.1,2.1,0.15,3.13,0.15
			c1.04,0,2.06-0.05,3.05-0.14h0.01v16.95h-0.01C173.25,233.3,171.19,233.48,169.08,233.76 M178.43,233.06v-17.28
			c1.96-0.38,3.8-0.94,5.56-1.66v18.96h-0.01C182.23,233.02,180.38,233.01,178.43,233.06 M187.49,233.24v-20.85
			c2.1-1.19,4-2.62,5.72-4.22v25.58h-0.01C191.62,233.58,189.7,233.39,187.49,233.24 M200.1,193.64c-1,2.57-2.36,5.13-4.04,7.51
			c-0.86,1.22-1.81,2.4-2.85,3.5c-1.68,1.79-3.57,3.42-5.71,4.78h-0.01c-0.76,0.49-1.55,0.93-2.36,1.34
			c-0.38,0.2-0.75,0.39-1.13,0.58h-0.01c-1.73,0.79-3.58,1.41-5.55,1.85h-0.01c-0.7,0.15-1.4,0.27-2.12,0.36
			c-0.35,0.05-0.69,0.1-1.03,0.14h-0.01c-1.96,0.2-4,0.22-6.17,0.02c-0.6-0.05-1.21-0.12-1.83-0.21c-0.27-0.03-0.56-0.07-0.84-0.12
			h-0.01c-1.6-0.27-3.25-0.65-4.96-1.16c1.37-1.67,3.01-3.44,4.96-5.26c0.82-0.77,1.72-1.55,2.67-2.35
			c1.82-1.51,3.88-3.06,6.18-4.62c1-0.68,2.05-1.36,3.16-2.03c1.73-1.06,3.58-2.12,5.56-3.18c1.12-0.6,2.29-1.19,3.5-1.79
			c0.05-0.03,0.11-0.05,0.16-0.08c1.93-0.94,3.79-1.97,5.56-3.1c0.98-0.61,1.93-1.25,2.85-1.91c2.45-1.76,4.71-3.69,6.75-5.74
			C202.43,186.17,201.51,190.04,200.1,193.64 M196.05,184.76c-0.92,0.73-1.86,1.42-2.85,2.08c-1.81,1.24-3.72,2.37-5.72,3.39
			c-0.3,0.15-0.61,0.31-0.92,0.46c-0.88,0.42-1.74,0.86-2.58,1.29c-1.97,1.02-3.83,2.04-5.56,3.07c-1.1,0.65-2.15,1.3-3.16,1.95
			c-2.28,1.46-4.34,2.93-6.18,4.37c-0.94,0.74-1.83,1.47-2.67,2.2c-3.15,2.71-5.62,5.35-7.56,7.81c-5.99,7.64-6.8,13.55-6.9,14.82
			c-0.72,3.33-0.89,6.95,0.06,10.48c0.13,0.46,0.28,0.9,0.43,1.34c-5.03,2.09-9.39,4.83-13.05,8.17c-0.75,0.68-1.46,1.38-2.15,2.1
			l-0.22,0.18l-0.03-0.03l-0.19-0.15l-0.01,0.01c-0.7-0.73-1.41-1.44-2.16-2.11c-3.65-3.35-8.01-6.08-13.03-8.17
			c0.15-0.44,0.3-0.88,0.43-1.34c0.96-3.55,0.77-7.19,0.05-10.55c-0.13-1.38-1-7.17-6.82-14.64c-0.01-0.03-0.03-0.03-0.04-0.06
			l-0.04-0.05c-1.41-1.79-3.09-3.68-5.13-5.62c-0.83-0.81-1.72-1.61-2.67-2.42c-0.79-0.67-1.61-1.36-2.5-2.03
			c-1.15-0.9-2.37-1.8-3.68-2.7c-1-0.7-2.05-1.39-3.15-2.09c-1.73-1.09-3.58-2.18-5.57-3.27c-1.12-0.61-2.28-1.21-3.5-1.82
			c-0.49-0.25-1-0.5-1.5-0.75c-2.34-1.14-4.56-2.43-6.64-3.86c-0.99-0.66-1.93-1.35-2.85-2.08c-2.55-1.99-4.88-4.19-6.94-6.55
			c-0.01-7.97,2.18-16.15,6.94-23.24c0.86-1.29,1.81-2.55,2.85-3.76c2.28-2.66,4.99-5.11,8.14-7.26c0.03-0.01,0.04-0.03,0.07-0.04
			v13.81c0,6.68,1.15,13.31,3.43,19.51c1.43,3.87,3.28,7.57,5.57,11.03c0.71,1.08,1.49,2.15,2.28,3.19
			c0.29,0.36,0.58,0.72,0.87,1.08c1.9,2.31,3.97,4.44,6.18,6.38c0.88,0.76,1.76,1.48,2.67,2.17c5.01,3.82,10.68,6.74,16.85,8.62
			l11.5,3.5c0.04,0.01,0.09,0.01,0.13,0l11.09-3.41c6.2-1.91,11.87-4.86,16.81-8.65c0.92-0.69,1.81-1.43,2.67-2.19
			c2.24-1.95,4.31-4.08,6.18-6.36c1.12-1.36,2.18-2.77,3.16-4.24c2.25-3.35,4.12-6.96,5.56-10.76c2.28-5.98,3.5-12.42,3.5-19.09
			v-12.78c2.15,1.7,4.05,3.54,5.72,5.5c1.04,1.2,1.99,2.46,2.85,3.74c4.76,7.09,6.95,15.28,6.94,23.26
			C200.93,180.57,198.61,182.77,196.05,184.76"/>
		<path class="st6" d="M93.42,104.45h91.3c0.04-0.05,0.07-0.1,0.11-0.14l2.66-2.66V83.16l-0.04-4.26c-0.16-0.04-0.33-0.1-0.49-0.14
			c-6.26-1.88-11.51-3.93-15.96-6.03c0.98-0.71,1.9-1.49,2.75-2.32c0.84-0.82,1.61-1.68,2.31-2.58c0.39-0.49,0.75-1,1.09-1.52
			c0.66-0.97,1.25-1.98,1.77-3.03c0.42-0.86,0.81-1.74,1.14-2.64c0.36-0.97,0.66-1.97,0.9-2.96c0.07-0.27,0.13-0.55,0.18-0.82
			c0.12-0.59,0.22-1.19,0.29-1.78c0.03-0.27,0.07-0.53,0.09-0.8c0.06-0.68,0.09-1.37,0.1-2.03V52.2c0-0.78-0.69-1.38-1.47-1.25
			l-0.05,0.01c-0.1,0.02-5.09,0.93-10.12,4.12c-1.15,0.74-2.31,1.61-3.41,2.6c-0.43,0.39-0.86,0.81-1.25,1.24
			c-1.95,2.06-3.6,4.62-4.59,7.78c-0.02,0.04-0.03,0.09-0.04,0.14c-0.27,0.87-0.48,1.8-0.64,2.79c-0.25,1.41-0.35,2.93-0.31,4.56
			c0.01,0.61-0.38,1.15-0.95,1.28c-0.83,0.19-1.67,0.36-2.52,0.48c-0.02,0.01-0.06,0.02-0.09,0.02c-0.88,0.14-1.75,0.23-2.63,0.28
			c-0.23,0.02-0.47,0.03-0.7,0.04c-1.06,0.05-2.12,0.05-3.18-0.02h-0.03c-1.31-0.07-2.6-0.22-3.88-0.46
			c-3.24-0.61-5.69-3.1-7.28-5.34c0.1-0.15,0.21-0.28,0.28-0.42c0.21-0.3,0.52-0.5,0.88-0.54c1.59-0.22,3.62-0.61,5.86-1.28
			c0.81-0.24,1.61-0.52,2.47-0.83c1.84-0.69,3.77-1.6,5.65-2.76c0.77-0.47,1.53-0.99,2.27-1.55c1.17-0.86,2.29-1.85,3.38-2.97
			c0.74-0.77,1.42-1.59,2.06-2.44c0.61-0.82,1.18-1.69,1.69-2.6c2.81-4.89,4.12-10.86,3.92-17.79l-0.01-0.05
			c-0.03-0.89-0.96-1.48-1.77-1.12l-0.04,0.02c-0.33,0.15-4.25,1.91-8.36,4.72c0.06-5.75-1.39-8.2-5.32-12.27
			c-1.32-1.37-4-2.55-6.38-2.09c-0.26,0.06-0.52,0.13-0.76,0.22c-0.12-0.29-0.25-0.54-0.4-0.76c-1.37-2.05-4.46-2.82-6.89-2.87
			c-2-0.04-5.8,0.82-7.48,3.25c-0.05,0.05-0.08,0.09-0.1,0.14c-0.27,0.44-0.81,0.69-1.32,0.56c-0.15-0.03-0.29-0.08-0.45-0.1
			c-3.15-0.59-5.74,0.08-7.72,1.96c-2.88,2.74-3.76,7.64-3.67,11.95c-2.72-2.09-5.54-3.95-7.82-4.75l-0.04-0.01
			c-0.75-0.27-1.55,0.21-1.67,1l-0.02,0.04c-0.05,0.42-1.39,9.66,3.26,17.95c0.48,0.88,1.04,1.76,1.68,2.6
			c0.04,0.06,0.09,0.13,0.15,0.2c1.57,2.05,3.47,3.79,5.66,5.19c0.78,0.52,1.61,0.98,2.46,1.39c1.75,0.88,3.68,1.58,5.74,2.11
			c0.82,0.21,1.67,0.39,2.55,0.55c0.46,0.08,0.94,0.21,1.42,0.23c0.03,0.01,0.08,0.01,0.11,0.01c0.16,0.03,0.31,0.01,0.46-0.03h0.19
			c0.11,0.02,0.21,0.07,0.31,0.12c0.04,0.03,0.09,0.07,0.15,0.09c0.47,0.3,0.97,0.57,1.49,0.82c0.57,0.28,1.13,0.55,1.74,0.78
			c0.82,0.32,1.08,1.36,0.48,2.02c-0.96,1.03-2.03,2-3.21,2.88c-2.15,1.6-4.96,2.38-7.92,2.63c-0.2,0.02-0.39,0.03-0.59,0.03h-0.01
			c-0.88,0.05-1.78,0.06-2.66,0.03c-0.16-0.01-0.33-0.01-0.49-0.03c-0.82-0.04-1.64-0.12-2.43-0.22c-0.09,0-0.17-0.01-0.26-0.02
			c-1.42-0.14-3.67-0.73-3.67-0.73v-0.58c-0.04-0.97-0.18-2.57-0.31-3.83c0-0.03,0-0.05-0.01-0.08c-0.07-0.42-0.15-0.84-0.25-1.27
			c-0.2-0.9-0.46-1.79-0.77-2.66c-0.27-0.75-0.57-1.49-0.9-2.21c-0.01-0.01-0.01-0.02-0.01-0.02c-1.02-2.18-2.38-4.21-4.02-5.94
			c-0.49-0.52-1-1.01-1.54-1.47c-0.14-0.12-0.27-0.24-0.42-0.35c-0.97-0.82-2.01-1.58-3.13-2.25c-0.23-0.13-0.47-0.28-0.71-0.41
			c-2.89-1.63-5.93-3.15-8.6-3.21h-0.03c-0.72-0.02-1.31,0.56-1.31,1.27v0.03c0.01,0.51,0.04,1.01,0.1,1.53
			c0.03,0.27,0.06,0.52,0.1,0.79c0.1,0.6,0.22,1.19,0.37,1.79c0.07,0.27,0.15,0.54,0.22,0.82c0.3,1,0.67,2,1.08,2.96
			c0.39,0.92,0.83,1.81,1.29,2.67c0.58,1.1,1.2,2.13,1.8,3.07c0.2,0.3,0.39,0.59,0.58,0.87c0.77,1.13,1.62,2.2,2.58,3.19
			c0.8,0.87,1.67,1.67,2.59,2.42c-3.64,1.7-7.83,3.38-12.66,4.96l-0.32,17.26l-0.04,2.64l-0.05,2.76l-0.02,0.9
			c1.42,0.92-0.02,1.88,1.37,2.85C90.44,104.3,93.34,104.37,93.42,104.45 M184.74,80.79V94.9c-1.27,0.4-2.64,0.62-4.04,0.62
			c-7.45,0-13.51-6.06-13.51-13.51c0-2.65,0.76-5.12,2.09-7.2C173.6,76.89,178.72,78.91,184.74,80.79 M162.36,72.48
			c0.03-0.46,0.05-0.9,0.1-1.33c0.02-0.12,0.03-0.25,0.04-0.37c0.1-0.84,0.25-1.66,0.45-2.43c0.77-3,2.18-5.41,3.89-7.34
			c1.15-1.32,2.46-2.42,3.77-3.33c1.64-1.13,3.31-1.98,4.8-2.6c0.49-0.2,0.96-0.38,1.4-0.53c0.07-0.03,0.13-0.05,0.2-0.08
			c0.23-0.08,0.47-0.09,0.69-0.03c0.36,0.08,0.67,0.32,0.82,0.64c0.14,0.26,0.19,0.54,0.14,0.85c-0.07,0.33-0.14,0.68-0.22,1.02
			c-0.05,0.24-0.12,0.49-0.18,0.73c-0.3,1.1-0.69,2.19-1.15,3.25c-0.44,1.03-0.94,2.03-1.52,2.98c-0.48,0.81-1.01,1.59-1.58,2.33
			c-0.61,0.78-1.27,1.52-1.98,2.22c-0.93,0.92-1.95,1.77-3.04,2.53c-0.21,0.15-0.42,0.3-0.64,0.44c-0.85,0.56-1.73,1.07-2.66,1.55
			h-0.01c-0.31,0.16-1.24,0.66-2.03,1.08c-0.5,0.25-0.94,0.47-1.14,0.57C161.66,75,162.33,73.42,162.36,72.48 M162.54,77.11
			c0.37-0.13,0.72-0.25,1.06-0.38l-0.01-0.01c0.43-0.15,0.84-0.33,1.26-0.5c0.25-0.11,0.48-0.21,0.7-0.32
			c0.1-0.04,0.21-0.1,0.31-0.15c-0.81,1.91-1.26,4.03-1.26,6.24c0,8.87,7.22,16.09,16.09,16.09c1.4,0,2.76-0.18,4.04-0.51v2.78
			c-1.31,0.29-2.65,0.45-4.04,0.45c-10.37,0-18.8-8.43-18.8-18.8C161.89,80.31,162.11,78.67,162.54,77.11 M155.77,78.64
			c0.27-0.02,0.53-0.06,0.8-0.09c0.78-0.11,1.55-0.26,2.32-0.42c0.27-0.06,0.55-0.13,0.82-0.2c-0.26,1.32-0.39,2.69-0.39,4.08
			c0,9.52,6.26,17.61,14.88,20.37h-8.24c-6.31-4.57-10.41-11.99-10.41-20.37C155.53,80.86,155.61,79.74,155.77,78.64 M141.31,65.41
			c-0.05-0.2,0.1-0.61,0.19-0.83c0.34-1.08,0.58-2.2,0.73-3.31c0.15-1.22,0.15-2.42,0.04-3.59c-0.1-0.88-0.27-1.74-0.51-2.6
			c-0.38-1.37-0.95-2.71-1.72-3.98c-0.26-0.45-0.24-1.01,0.06-1.43l3.01-3.93c0.63-0.83,1.95-0.57,2.22,0.45
			c0.17,0.7,0.39,1.39,0.57,2.04c0.29,1.01,0.6,1.93,0.83,2.67c0.18,0.53,0.33,0.96,0.43,1.27v0.01c0.12,0.3,0.17,0.46,0.19,0.52
			l0.05,0.1l0.01,0.03c0.01,0.01,0.01,0.02,0.02,0.04c0.03,0.08,0.05,0.21,0.11,0.42c0.05,0.44,0.01,0.25,0.05,0.44
			c0.08,0.47,0.12,0.93,0.13,1.37c0.03,0.84-0.05,1.63-0.22,2.38c-0.02,0.07-0.03,0.15-0.05,0.22c-0.21,0.88-0.57,1.71-0.99,2.47
			c-0.64,1.11-1.44,2.08-2.28,2.9C143.26,63.95,142.16,64.86,141.31,65.41 M154.92,45.51c0.01-0.01,0.02-0.01,0.03-0.02
			c0-0.01,0.01-0.02,0.02-0.03c0.45-0.38,0.9-0.75,1.36-1.1v-0.01c0.48-0.37,0.95-0.71,1.44-1.04c0.32-0.23,0.64-0.45,0.97-0.67
			c0.33-0.21,0.64-0.41,0.96-0.61c0.32-0.21,0.63-0.39,0.94-0.58c0.58-0.35,1.17-0.69,1.77-1.03c0.87-0.47,1.96,0.2,1.87,1.2
			c-0.37,5.22-1.8,9.72-4.28,13.45c-0.59,0.91-1.26,1.78-1.99,2.6c-0.19,0.21-0.38,0.42-0.58,0.63c-1.06,1.12-2.23,2.11-3.42,2.97
			c-0.76,0.54-1.53,1.03-2.3,1.49c-1.49,0.86-3.01,1.56-4.48,2.12c-0.67,0.25-1.32,0.48-1.97,0.68c0.58-0.51,1.17-1.09,1.73-1.74
			c0.92-1.06,1.78-2.32,2.4-3.73c0.32-0.75,0.58-1.56,0.75-2.4c0.05-0.3,0.09-0.59,0.13-0.9c0.08-0.55,0.1-1.12,0.09-1.7
			c-0.01-0.57-0.02-1.23-0.18-1.81c0-0.02-0.01-0.02-0.01-0.04c-0.03-0.12-0.07-0.24-0.13-0.33C150,52.87,150,52.86,150,52.85
			c-0.01-0.03-0.02-0.05-0.03-0.08c-0.01-0.01-0.02-0.03-0.02-0.04c-0.02-0.03-0.04-0.07-0.04-0.11c-0.01-0.04-0.03-0.09-0.04-0.14
			c-0.13-1.06,1.27-2.87,1.84-3.62c0.01-0.01,0.02-0.03,0.03-0.04c0.21-0.28,0.45-0.57,0.69-0.83c0.22-0.27,0.46-0.52,0.71-0.77
			c0.43-0.46,0.88-0.89,1.34-1.31C154.61,45.77,154.76,45.65,154.92,45.51 M118.91,42.78v-0.07c0.03-0.11,0.03-0.23,0.03-0.34
			c-0.01-0.12-0.02-0.25-0.02-0.36c0.01-1.64-0.04-3.25,0.15-4.89c0.03-0.18,0.04-0.37,0.07-0.55c0.03-0.16,0.04-0.32,0.09-0.46
			c0.01-0.03,0.01-0.05,0.01-0.08c0.04-0.2,0.09-0.41,0.13-0.64c0.46-1.88,1.23-3.54,2.37-4.62c1.36-1.3,3.13-1.71,5.44-1.29
			c0.78,0.15,1.25,0.39,1.53,0.65c0.21,0.21,0.49,0.32,0.77,0.33c0.14,0,0.29,0.02,0.41-0.04c0.25-0.12,0.46-0.24,0.74-0.3
			c0.3-0.05,0.92-0.13,0.9-0.57c-0.01-0.24-0.17-0.46-0.17-0.7c0-0.37,0.09-0.73,0.3-1.03c1-1.43,3.71-2.17,5.31-2.15
			c1.83,0.03,4.05,0.62,4.78,1.72c0.15,0.21,0.29,0.52,0.25,1c-0.06,0.55,0.28,1.06,0.78,1.25l0.49,0.2
			c0.46,0.19,0.99,0.03,1.36-0.33c0.23-0.24,0.55-0.39,0.94-0.47c1.36-0.27,3.18,0.47,4.01,1.35c3.77,3.87,4.83,5.72,4.57,11.75
			c-0.01,0.19,0.03,0.39,0.1,0.56c-1.47,1.18-2.88,2.48-4.04,3.89c-0.64,0.78-1.92,0.52-2.19-0.47c-0.58-2.1-1.06-4.35-1.06-5.86
			v-0.1c0-1.22-1.54-1.73-2.28-0.77l-5.8,7.64c-0.47,0.61-1.37,0.68-1.91,0.13c-0.38-0.39-0.78-0.78-1.2-1.17
			c1.13-1,2.23-2.08,3.29-3.25c2.36-2.64,5.61-6.27,2.88-10.63c-2.16-3.44-6.01-3.47-8.66-2.03c-2.65,1.42-4.75,4.57-3.12,8.16
			c0.81,1.77,2.09,3.05,3.61,3.7c0.83,0.35,1,1.48,0.33,2.08l-0.16,0.14c-0.05,0.04-0.09,0.09-0.12,0.14
			c-1.57-1.28-3.34-2.54-5.31-3.76l-0.03-0.03c-0.61-0.38-1.43-0.17-1.77,0.46L126.66,41c-0.12,0.22-1.56,2.86-2.53,6.53
			c0-0.26-1.81-1.64-2.22-1.99c-0.03-0.02-0.06-0.03-0.07-0.05c-0.3-0.27-0.61-0.54-0.92-0.8c-0.19-0.17-0.38-0.33-0.57-0.5
			c-0.43-0.37-0.86-0.73-1.29-1.09c-0.03-0.03-0.06-0.04-0.09-0.07c-0.01-0.03-0.03-0.03-0.04-0.06
			C118.9,42.9,118.91,42.83,118.91,42.78 M134.69,39.52c-0.09-0.04-0.15-0.08-0.21-0.11c-0.23-0.13-0.46-0.28-0.66-0.46
			c-0.08-0.07-0.17-0.15-0.24-0.22c-0.09-0.09-0.18-0.17-0.25-0.28c-0.18-0.2-0.34-0.42-0.49-0.65c-0.06-0.1-0.1-0.19-0.16-0.29
			l-0.17-0.34c-0.94-2.08,0.3-3.9,1.97-4.79c0.67-0.37,1.44-0.58,2.21-0.58c1.13,0,2.26,0.49,3.02,1.71c0.1,0.15,0.19,0.33,0.27,0.5
			c0.03,0.08,0.06,0.15,0.1,0.24c0.31,0.82,0.33,1.69,0.02,2.56c-0.03,0.08-0.05,0.15-0.09,0.24c-0.27,0.66-0.72,1.35-1.28,2.07
			c-0.01,0.02-0.02,0.02-0.02,0.03c-0.23,0.19-0.51,0.34-0.8,0.46c-0.09,0.02-0.18,0.03-0.26,0.04c-0.31,0.07-0.58,0.1-0.64,0.12
			c-0.13,0.03-0.24,0.04-0.37,0.06h-0.02C135.96,39.85,135.28,39.78,134.69,39.52 M121.89,62.52c-0.87-0.39-1.69-0.82-2.48-1.29
			c-1.65-1-3.12-2.19-4.38-3.55c-0.41-0.43-0.8-0.89-1.15-1.37c-0.32-0.4-0.61-0.81-0.88-1.24c-3.09-4.7-3.81-10.09-3.9-13.64
			c-0.02-1.01,1.1-1.63,1.95-1.09c4.4,2.79,9.64,7.58,11.93,9.68c0.04,0.03,0.07,0.07,0.11,0.09c0.13,0.13,0.27,0.21,0.42,0.27
			c-0.24,1.49-0.37,3.08-0.27,4.7c0.03,0.44,0.06,0.87,0.12,1.3c0.06,0.43,0.13,0.88,0.23,1.31c0.13,0.71,0.33,1.42,0.6,2.13
			c0.04,0.13,0.09,0.27,0.15,0.39c0.52,1.3,1.2,2.47,2.05,3.55c-0.02,0.1,0.49,0.4,0.47,0.49
			C125.28,63.84,123.27,63.14,121.89,62.52 M129.2,62.99c-0.96-1-1.72-2.13-2.27-3.37c-0.06-0.11-0.12-0.25-0.16-0.38
			c-0.21-0.51-0.38-1.04-0.51-1.56c-0.06-0.21-0.11-0.43-0.15-0.65c-0.13-0.65-0.21-1.3-0.26-1.95c-0.08-1.21-0.03-2.42,0.14-3.59
			c0.03-0.23,0.05-0.45,0.09-0.67c0.12-0.74,0.27-1.45,0.43-2.13c0.35-1.43,0.79-2.69,1.18-3.72c0.3-0.77,1.25-1.04,1.91-0.57
			c2.88,2.02,5.19,4.08,6.89,6.16c1.18,1.42,2.02,2.94,2.56,4.51c0.28,0.85,0.48,1.71,0.59,2.6c0.13,1.05,0.13,2.15-0.01,3.26
			c-0.22,1.87-0.85,3.77-1.79,5.58c-0.21,0.39-0.61,0.64-1.04,0.67c-0.06,0-0.13,0-0.18,0.01c-0.16,0.01-0.33-0.01-0.49-0.06
			C133.21,66.14,130.88,64.76,129.2,62.99 M120.06,79.3c0.75,0.03,1.43,0.03,2.04,0.02h0.02c0.96-0.02,1.76-0.08,2.37-0.15
			c0.24-0.02,0.46-0.05,0.64-0.08c0.12-0.01,0.25-0.03,0.38-0.06c0.21-0.02,0.32-0.05,0.32-0.05c2.6-0.45,5.07-1.36,7.08-2.87
			c1.45-1.07,2.76-2.28,3.91-3.55c2.45,3.22,5.35,5.22,8.47,5.8c0.76,0.15,1.52,0.26,2.28,0.34c0.15,0.02,0.31,0.03,0.46,0.04
			c1.26,0.13,2.48,0.18,3.64,0.17c0.5,0,0.99-0.02,1.47-0.04c-0.12,1.03-0.18,2.07-0.18,3.13c0,7.93,3.35,15.09,8.7,20.14
			c-3.33-0.82-10.44-3.12-13.67-8.24c0.09,0.01,0.18,0.01,0.27,0.01c2.04,0,3.72-1.66,3.72-3.72c0-2.04-1.67-3.71-3.72-3.71
			s-3.72,1.66-3.72,3.71c0,0.92,0.34,1.75,0.88,2.4l0.01,0.01c1.95,5.13,6.98,8.1,11.2,9.77h-18.74c0.98-1.33,1.87-2.78,2.61-4.33
			c3.59-7.52,2.46-14.97-3.33-22.13l-0.59-0.74l-0.68,0.67c-0.24,0.23-5.92,5.93-5.42,14.64c0.22,4.03,1.73,8,4.5,11.88h-17.53
			c4.22-1.66,9.26-4.65,11.21-9.79c0.55-0.64,0.88-1.48,0.88-2.39c0-2.04-1.67-3.71-3.71-3.71c-2.05,0-3.72,1.66-3.72,3.71
			c0,2.05,1.67,3.72,3.72,3.72c0.09,0,0.18,0,0.27-0.01c-3.58,5.68-11.93,7.88-14.62,8.47h-0.2c5.49-5.07,8.93-12.32,8.93-20.37
			C120.2,81.09,120.16,80.19,120.06,79.3 M146.25,90.19c0-1.1,0.9-1.99,2-1.99c1.1,0,2,0.89,2,1.99c0,1.11-0.9,2-2,2
			C147.15,92.19,146.25,91.3,146.25,90.19 M136.44,101.47c-2.61-3.63-4.03-7.32-4.25-11.06c-0.36-6.23,2.86-10.89,4.28-12.61
			c3.78,5.02,5.11,10.19,3.93,15.39C139.68,96.33,138.18,99.12,136.44,101.47 M125.83,92.19c-1.1,0-2-0.89-2-2
			c0-1.1,0.9-1.99,2-1.99c1.1,0,1.99,0.89,1.99,1.99C127.82,91.3,126.92,92.19,125.83,92.19 M113.85,82c0-1.23-0.1-2.43-0.31-3.61
			c1.37,0.33,2.69,0.56,3.92,0.69c0.11,0.95,0.17,1.92,0.17,2.91c0,8.37-4.11,15.8-10.42,20.37h-8.23
			C107.59,99.61,113.85,91.53,113.85,82 M101.17,68.48c-0.77-0.83-1.48-1.73-2.11-2.66c-0.35-0.52-0.76-1.13-1.17-1.82
			c-0.54-0.9-1.12-1.92-1.67-3.03c-0.51-1.04-0.98-2.15-1.36-3.29c-0.09-0.24-0.16-0.49-0.23-0.73l-0.13-0.46
			c-0.16-0.58,0.11-1.13,0.58-1.41c0.32-0.2,0.75-0.25,1.15-0.08c0.06,0.02,0.12,0.05,0.19,0.08c1.41,0.62,2.73,1.37,3.57,1.85
			c0.43,0.23,0.83,0.5,1.24,0.76c0.85,0.55,1.66,1.14,2.4,1.79c0.55,0.45,1.06,0.94,1.55,1.46c2.09,2.22,3.65,4.93,4.59,7.83
			c0.12,0.38,0.23,0.77,0.33,1.16c0.13,0.51,0.23,1.01,0.33,1.52c0.09,0.45,0.15,0.88,0.2,1.32c0.1,0.98,0.89,2.28,0.01,1.86
			c-0.18-0.09-0.58-0.25-1.05-0.43c-0.89-0.33-2.02-0.76-2.35-0.95c-0.85-0.47-1.66-0.99-2.42-1.55c-0.04-0.03-0.09-0.06-0.13-0.09
			C103.38,70.67,102.2,69.63,101.17,68.48 M91.71,79.8c4.63-1.57,8.69-3.22,12.23-4.92c1.29,2.07,2.03,4.51,2.03,7.13
			c0,7.45-6.05,13.51-13.51,13.51c-0.25,0-0.51-0.01-0.76-0.02V79.8z M91.71,100.79v-2.71c0.25,0.01,0.5,0.02,0.76,0.02
			c8.87,0,16.08-7.22,16.08-16.09c0-2.02-0.38-3.96-1.06-5.74c1.1,0.52,2.19,0.96,3.26,1.33c0.34,1.42,0.52,2.89,0.52,4.41
			c0,10.37-8.43,18.8-18.8,18.8C92.22,100.81,91.96,100.8,91.71,100.79"/>
		<path class="st6" d="M133.1,149.33c0.11,3.51-0.1,7.1-0.33,10.58l-0.13,2c-0.02,0.38-0.06,0.82-0.11,1.29
			c-0.22,2.19-0.5,4.92,0.7,6.76c1.21,1.85,3.21,2.81,5.85,2.81c0.51,0,1.04-0.03,1.6-0.11c1.2-0.16,3.14-0.64,4.66-1.31
			c1.11-0.48,1.01-2.08-0.13-2.46c-0.01-0.01-0.02-0.01-0.04-0.01c-0.52,0-4.19,1.77-7.13,1.33c-1.26-0.18-2.16-0.71-2.74-1.61
			c-0.72-1.11-0.48-3.45-0.31-5.16c0.04-0.51,0.09-0.98,0.13-1.4l0.12-1.98c0.21-3.54,0.45-7.19,0.33-10.81
			c-0.26-7.69-2.93-14.38-7.42-18.67h0c-0.14-0.14-0.28-0.27-0.43-0.4c-0.34-0.31-0.69-0.6-1.05-0.87c-2.52-1.96-5.37-2.95-8.33-3.4
			c0.01-0.01,0.02-0.02,0.03-0.02l-11.32,0.1h-0.01l-2.15,0.03h-0.03l-2.13,0.02h-0.07c-0.22,0.01-0.43,0.01-0.64,0.02
			c0,0-3.18,0.03-6,0.06h-0.07c-0.48,0-0.95,0.01-1.4,0.01v2.46l2.05-0.02h0.01l0.38-0.01h0.07c0,0,0,0,0,0l4.99-0.04
			c1.74-0.01,3.57-0.13,5.35-0.24c1.5-0.1,3.02-0.19,4.53-0.23c1.32-0.03,2.64-0.03,3.92,0.05c3.39,0.25,6.6,1.06,9.31,3.17
			C129.94,134.98,132.84,141.56,133.1,149.33"/>
		<path class="st6" d="M145.75,180.4c-1.57-1.66-3.07-1.8-4.03-1.64c-1.37,0.24-2.45,1.21-3.21,2.18c-0.09,0.11-0.25,0.11-0.33,0
			c-0.76-0.97-1.84-1.94-3.21-2.18c-0.97-0.16-2.45-0.02-4.03,1.64c-2.28,2.4-5.43,2.06-7.01,1.67c-0.59-0.15-1.2,0.18-1.43,0.74
			c-0.07,0.15-0.09,0.31-0.09,0.46c0,0.56,0.39,1.06,0.96,1.21c0.73,0.17,1.72,0.33,2.81,0.33c2.06,0,4.52-0.58,6.55-2.72
			c0.66-0.69,1.26-1,1.8-0.9c1.13,0.19,2.18,1.89,2.58,2.69c0.05,0.11,0.17,0.15,0.27,0.1c0.3-0.14,0.63-0.2,0.94-0.2
			s0.64,0.06,0.94,0.2c0.03,0.02,0.06,0.02,0.09,0.02c0.08,0,0.15-0.05,0.19-0.13c0.39-0.8,1.45-2.5,2.58-2.69
			c0.54-0.1,1.15,0.21,1.8,0.9c2.04,2.15,4.5,2.72,6.55,2.72c1.1,0,2.08-0.16,2.82-0.33c0.74-0.18,1.15-0.97,0.87-1.67
			c-0.2-0.47-0.65-0.77-1.14-0.77c-0.09,0-0.19,0.01-0.28,0.03C151.17,182.46,148.03,182.8,145.75,180.4"/>
		<path class="st6" d="M147.02,188.15c-0.2,0-0.4,0.05-0.59,0.15c-6.23,3.36-13.81,0.88-16.54-0.21c-0.6-0.24-1.28,0.02-1.56,0.59
			v0.01c-0.33,0.64-0.04,1.43,0.63,1.7c1.91,0.78,5.8,2.1,10.18,2.1c2.76,0,5.71-0.52,8.48-2.03c0.63-0.35,0.82-1.17,0.42-1.78
			C147.81,188.34,147.43,188.15,147.02,188.15"/>
		<path class="st6" d="M207.33,184.79l-0.17,1.46l1.47-0.08c0.21-0.01,20.89-1.4,21.88-20.86h0.01c0-1.06-0.02-1.88-0.06-2.49
			c-0.77,0.11-1.53,0.24-2.28,0.4c-5.55,1.18-10.34,3.73-13.88,7.36C210.47,174.48,207.93,179.66,207.33,184.79 M227.98,165.8
			c-1.05,13.93-13.49,17.04-17.95,17.72c0.83-4.04,3.01-8.13,6.01-11.21C219.11,169.19,223.22,166.95,227.98,165.8"/>
		<path class="st6" d="M65.38,186.16l1.47,0.09l-0.17-1.46c-0.6-5.13-3.13-10.3-6.95-14.21c-3.55-3.63-8.35-6.17-13.88-7.36
			c-0.76-0.16-1.52-0.29-2.28-0.4c-0.04,0.61-0.06,1.43-0.07,2.49h0.01C44.49,184.76,65.17,186.15,65.38,186.16 M57.95,172.31
			c3.01,3.07,5.19,7.17,6.01,11.21c-4.46-0.68-16.89-3.8-17.95-17.72C50.78,166.95,54.89,169.19,57.95,172.31"/>
		<path class="st6" d="M66.85,187.18l-1.47,0.09c-0.21,0.01-20.89,1.4-21.88,20.86h-0.01c0.01,1.06,0.03,1.88,0.07,2.49
			c0.76-0.11,1.53-0.24,2.28-0.4c5.54-1.18,10.34-3.73,13.88-7.36c3.81-3.91,6.35-9.08,6.95-14.21L66.85,187.18z M57.95,201.12
			c-3.06,3.13-7.17,5.37-11.93,6.52c1.06-13.93,13.49-17.04,17.95-17.72C63.14,193.95,60.96,198.05,57.95,201.12"/>
		<path class="st6" d="M57.13,186.25l-1.18-0.87c-0.17-0.13-16.98-12.26-30.15,2.1l-0.01-0.01c-0.67,0.82-1.18,1.47-1.54,1.96
			c0.66,0.41,1.32,0.8,2.01,1.15c5.02,2.62,10.35,3.73,15.39,3.19c5.44-0.58,10.69-2.95,14.42-6.5L57.13,186.25z M41.38,191.31
			c-4.35,0.45-8.95-0.45-13.34-2.6c9.69-10.05,21.26-4.52,25.12-2.19C49.95,189.09,45.66,190.85,41.38,191.31"/>
		<path class="st6" d="M247.21,187.47c-13.19-14.34-29.98-2.22-30.15-2.09l-1.18,0.87l1.06,1.02c3.74,3.55,8.99,5.92,14.42,6.5
			c5.05,0.53,10.36-0.58,15.39-3.19c0.69-0.35,1.36-0.74,2.02-1.15C248.39,188.93,247.89,188.28,247.21,187.47 M231.62,191.31
			c-4.28-0.46-8.57-2.22-11.78-4.79c3.86-2.33,15.42-7.86,25.12,2.19C240.56,190.86,235.96,191.76,231.62,191.31"/>
		<path class="st6" d="M208.62,187.27l-1.47-0.09l0.17,1.46c0.6,5.13,3.14,10.3,6.95,14.21c3.55,3.63,8.34,6.17,13.88,7.36
			c0.76,0.16,1.51,0.29,2.28,0.4c0.03-0.61,0.06-1.43,0.06-2.49h-0.01C229.51,188.67,208.84,187.28,208.62,187.27 M216.05,201.12
			c-3.01-3.07-5.18-7.17-6.01-11.21c4.46,0.68,16.9,3.8,17.95,17.72C223.22,206.49,219.11,204.24,216.05,201.12"/>
		<path class="st6" d="M68.96,193.52l-1.06-1.03l-0.83,1.22c-2.9,4.27-4.37,9.84-4.05,15.28c0.3,5.07,2.26,10.13,5.67,14.66
			c0.46,0.62,0.95,1.22,1.47,1.8c0.42-0.43,0.98-1.04,1.67-1.85h-0.01C83.82,208.26,69.1,193.67,68.96,193.52 M65.49,208.85
			c-0.25-4.28,0.78-8.81,2.8-12.4c2.93,3.43,10.29,13.93,1.95,25.14C67.4,217.6,65.76,213.22,65.49,208.85"/>
		<path class="st6" d="M205.74,193.52l-1.06-1.03l-0.83,1.22c-2.9,4.27-4.37,9.84-4.05,15.28c0.3,5.07,2.26,10.13,5.67,14.66
			c0.46,0.62,0.95,1.22,1.47,1.8c0.42-0.43,0.98-1.04,1.68-1.85h-0.01C220.6,208.26,205.88,193.67,205.74,193.52 M207.02,221.59
			c-2.84-3.98-4.48-8.37-4.75-12.74c-0.25-4.28,0.78-8.81,2.8-12.4C208,199.87,215.35,210.37,207.02,221.59"/>
		<rect x="88.96" y="100.36" class="st6" width="2.76" height="27.51"/>
		<rect x="184.74" y="100.36" class="st6" width="2.76" height="27.51"/>
		<path class="st6" d="M147.09,114.2c-2.21-0.27-3.85-1.36-4.69-3.42c-0.39-0.94-0.54-1.98-0.76-2.99c-0.23-1.04-0.47-2.07-1.02-3
			c-0.83-1.4-2.24-1.79-3.62-0.97c0.15,0.18,0.3,0.36,0.44,0.54c2.77,3.36,4.13,7.2,3.83,11.56c-0.21,3.19-1.34,6.09-3.08,8.76
			c-0.44,0.68-0.96,1.31-1.44,1.97c-0.08,0.11-0.18,0.2-0.29,0.32c-0.94-1.05-1.71-2.17-2.38-3.36c-1.57-2.78-2.49-5.73-2.46-8.94
			c0.04-3.84,1.37-7.22,3.78-10.18c0.17-0.21,0.35-0.42,0.53-0.63c-1.02-0.7-2.35-0.55-3.16,0.36c-0.84,0.94-1.14,2.12-1.4,3.31
			c-0.23,1.01-0.35,2.05-0.7,3.01c-0.76,2.08-2.33,3.29-4.5,3.71c-0.09,0.02-0.19,0.02-0.29,0.03c0-0.04-0.01-0.07,0-0.08
			c1.24-0.77,2.02-1.92,2.5-3.25c0.5-1.36,0.88-2.75,1.33-4.13c0.21-0.63,0.4-1.27,0.7-1.85c0.72-1.41,1.85-2.31,3.44-2.57
			c0.77-0.13,1.48,0.08,2.12,0.51c0.17,0.11,0.33,0.24,0.48,0.35c0.04-0.01,0.05-0.01,0.06-0.01c1.67-1.49,3.65-0.9,5.02,0.36
			c0.71,0.66,1.14,1.48,1.43,2.39c0.48,1.5,0.91,3.01,1.42,4.49c0.41,1.21,1.01,2.33,2,3.19
			C146.6,113.86,146.85,114.02,147.09,114.2 M136.46,105.19c-3.67,5.18-3.8,12.07-0.01,17.13
			C140.15,117.59,140.3,110.48,136.46,105.19"/>
		<path class="st6" d="M144.58,106.94c2.46-0.16,4.35,0.97,5.25,3.13c0.36,0.86,0.61,1.76,0.86,2.65c0.51,1.82,0.96,3.65,2.05,5.25
			c-0.76-0.32-1.38-0.83-1.92-1.43c-0.85-0.94-1.35-2.08-1.79-3.25c-0.23-0.6-0.44-1.21-0.67-1.81
			C147.65,109.58,146.58,107.96,144.58,106.94"/>
		<path class="st6" d="M120.22,117.98c1.29-1.9,1.69-4.12,2.31-6.26c0.35-1.2,0.76-2.38,1.65-3.31c1.1-1.15,2.51-1.48,4.06-1.5
			c-0.04,0.07-0.04,0.11-0.06,0.12c-1.82,0.98-2.88,2.57-3.59,4.45c-0.44,1.15-0.86,2.31-1.37,3.42
			C122.6,116.26,121.6,117.31,120.22,117.98"/>
	</g>
</g>
</svg>
