<?xml version="1.0" encoding="utf-8"?>
<!-- Generator: Adobe Illustrator 25.2.1, SVG Export Plug-In . SVG Version: 6.00 Build 0)  -->
<svg version="1.1" id="Layer_1" xmlns="http://www.w3.org/2000/svg" xmlns:xlink="http://www.w3.org/1999/xlink" x="0px" y="0px"
	 viewBox="0 0 360.53 436.68" style="enable-background:new 0 0 360.53 436.68;" xml:space="preserve">
<style type="text/css">
	.st0{clip-path:url(#SVGID_2_);fill:#FBEDE2;}
	.st1{clip-path:url(#SVGID_2_);}
	.st2{clip-path:url(#SVGID_4_);fill:#D9AB97;}
	.st3{clip-path:url(#SVGID_6_);fill:#FBEDE2;}
	.st4{clip-path:url(#SVGID_6_);}
	.st5{clip-path:url(#SVGID_8_);fill:#0F5C47;}
	.st6{fill:#0F5C47;}
</style>
<g>
	<g>
		<path class="st6" d="M0,361.44h27.72l0.46,5.06c-0.61-0.81-1.81-1.68-3.6-2.62c-1.78-0.94-3.54-1.41-5.26-1.41H5.98v18.06h11.33
			c3.03,0,5.29-1.02,6.79-3.05v7.13c-1.5-2.03-3.76-3.05-6.79-3.05H5.98v19.56H1.67v-33.48c0-1.34-0.14-2.53-0.4-3.57
			c-0.27-1.04-0.56-1.73-0.86-2.07L0,361.44z"/>
		<path class="st6" d="M38.77,361.44v38.65h15.24c1.73,0,3.47-0.46,5.23-1.38c1.76-0.92,2.95-1.78,3.57-2.59l-0.4,5H35.43h-0.98
			v-33.48c0-1.19-0.13-2.21-0.4-3.08c-0.27-0.86-0.56-1.41-0.86-1.64l-0.4-0.4L38.77,361.44z"/>
		<path class="st6" d="M72.53,366.45c3.76-3.6,8.49-5.41,14.21-5.41c5.71,0,10.45,1.81,14.21,5.44c3.76,3.62,5.64,8.6,5.64,14.92
			c0,6.37-1.88,11.36-5.64,14.99c-3.76,3.62-8.49,5.43-14.21,5.43c-5.71,0-10.45-1.81-14.21-5.43c-3.76-3.62-5.64-8.62-5.64-14.99
			C66.9,375.04,68.77,370.05,72.53,366.45 M97.29,367.17c-2.74-3.47-6.26-5.2-10.56-5.2c-4.29,0-7.82,1.74-10.58,5.2
			c-2.76,3.47-4.14,8.22-4.14,14.24c0,6.02,1.38,10.78,4.14,14.27c2.76,3.49,6.29,5.23,10.58,5.23c4.29,0,7.81-1.74,10.56-5.23
			c2.74-3.49,4.11-8.24,4.11-14.27C101.41,375.38,100.04,370.64,97.29,367.17"/>
		<path class="st6" d="M125.91,361.44h3.85c1.57,0,3.04,0.17,4.4,0.52c1.36,0.35,2.66,0.89,3.88,1.64c1.23,0.75,2.2,1.83,2.91,3.25
			c0.71,1.42,1.06,3.09,1.06,5.01c0,2.11-0.35,3.93-1.06,5.46c-0.71,1.53-1.68,2.69-2.91,3.48c-1.23,0.79-2.52,1.35-3.88,1.7
			c-1.36,0.35-2.83,0.52-4.4,0.52h-2.36c3.3,0.54,6.06,1.75,8.28,3.62c1.65,1.38,2.94,3.09,3.88,5.12c0.94,2.03,1.7,3.93,2.27,5.69
			c0.58,1.76,1.24,2.99,2.01,3.68h-1.12h-1.21c-0.17,0-0.53-0.03-1.06-0.09c-0.54-0.06-0.9-0.13-1.09-0.23
			c-0.19-0.1-0.49-0.24-0.89-0.43c-0.4-0.19-0.71-0.43-0.92-0.72c-0.21-0.29-0.43-0.65-0.66-1.09c-0.23-0.44-0.42-0.93-0.57-1.47
			c-0.04-0.11-0.14-0.5-0.32-1.15c-0.17-0.65-0.28-1.07-0.32-1.24c-0.04-0.17-0.14-0.55-0.32-1.15c-0.17-0.6-0.3-1-0.37-1.21
			c-0.08-0.21-0.21-0.57-0.4-1.07c-0.19-0.5-0.36-0.87-0.52-1.12c-0.15-0.25-0.35-0.58-0.6-0.98c-0.25-0.4-0.49-0.74-0.72-1.01
			c-0.23-0.27-0.5-0.55-0.8-0.86s-0.63-0.59-0.98-0.86c-1.61-1.23-3.45-2.09-5.52-2.59c-2.07-0.5-4.6-0.77-7.59-0.8v18.06h-4.37
			v-33.48c0-1.34-0.13-2.53-0.4-3.57c-0.27-1.04-0.56-1.73-0.86-2.07l-0.4-0.57h6.04H125.91z M117.86,362.48v19.5h11.91
			c2.38,0,4.29-0.95,5.75-2.85c1.46-1.9,2.18-4.32,2.18-7.28c0-2.88-0.72-5.16-2.16-6.85c-1.44-1.69-3.36-2.53-5.78-2.53H117.86z"/>
		<path class="st6" d="M154.84,361.44v39.69h-4.37v-33.48c0-1.19-0.13-2.21-0.4-3.08c-0.27-0.86-0.54-1.41-0.81-1.64l-0.4-0.4
			L154.84,361.44z"/>
		<path class="st6" d="M173.13,361.44h6.44l17.03,39.69h-4.77c-2.3-5.37-4.06-9.49-5.29-12.37h-19.21l-5.23,12.37H161l15.24-36.18
			C175.51,363.69,174.48,362.52,173.13,361.44 M176.87,366.16l-9.09,21.57h18.29c-1.11-2.57-2.65-6.19-4.63-10.87
			C179.47,372.18,177.95,368.61,176.87,366.16"/>
		<path class="st6" d="M224.85,361.44v38.65h15.24c1.73,0,3.47-0.46,5.23-1.38c1.76-0.92,2.95-1.78,3.57-2.59l-0.4,5h-26.98h-0.98
			v-33.48c0-1.19-0.14-2.21-0.4-3.08c-0.27-0.86-0.55-1.41-0.86-1.64l-0.4-0.4L224.85,361.44z"/>
		<path class="st6" d="M259.59,361.44v25.94c0,3.72,1.13,6.7,3.39,8.94c2.26,2.24,5.29,3.36,9.09,3.36c3.91,0,6.96-1.12,9.15-3.36
			c2.18-2.24,3.28-5.22,3.28-8.94v-25.94h1.04c0.04,0,0.06,4.49,0.06,13.46l-0.06,13.4c0,4.1-1.44,7.36-4.31,9.78
			c-2.88,2.42-6.48,3.62-10.82,3.62s-7.95-1.21-10.84-3.62c-2.9-2.42-4.34-5.67-4.34-9.78v-20.65c0-1.19-0.14-2.21-0.4-3.08
			c-0.27-0.86-0.54-1.41-0.8-1.64l-0.4-0.4L259.59,361.44z"/>
		<polygon class="st6" points="290.13,361.44 295.65,361.44 309.63,379.68 325.1,361.44 326.43,361.44 310.26,380.54 326.08,401.13 
			320.62,401.13 307.04,383.47 291.8,401.13 290.42,401.13 306.41,382.61 		"/>
		<path class="st6" d="M330.51,361.44h27.72l0.46,5.06c-0.61-0.81-1.81-1.68-3.6-2.62c-1.78-0.94-3.54-1.41-5.26-1.41h-13.34v18.06
			h11.33c3.03,0,5.29-1.02,6.79-3.05v7.13c-1.5-2.03-3.76-3.05-6.79-3.05h-11.33v18.52h15.24c1.72,0,3.47-0.46,5.23-1.38
			c1.76-0.92,2.95-1.78,3.57-2.59l-0.4,5h-26.98h-2.65c1.11-1.15,1.67-3.22,1.67-6.21v-27.26c0-1.34-0.14-2.53-0.4-3.57
			c-0.27-1.04-0.56-1.73-0.86-2.07L330.51,361.44z"/>
	</g>
	<g>
		<path class="st6" d="M34.96,431.65l-1.88-4.2H22.87l-1.86,4.2h-1.42l7.67-17.1h1.44l7.67,17.1H34.96z M32.56,426.23l-4.59-10.41
			l-4.59,10.41H32.56z"/>
		<path class="st6" d="M44.8,436.68v-17.1h1.17v2.86c0.95-1.83,2.88-3.03,5.23-3.03c3.27,0.12,5.86,2.32,5.86,6.2
			c0,4.06-2.74,6.25-6.13,6.25c-2.05,0-3.96-1-4.98-3.01v7.82H44.8z M55.87,425.61c0-3.4-2.2-5.06-4.94-5.06
			c-2.81,0-4.89,2.12-4.89,5.08c0,2.96,2.13,5.08,4.89,5.08C53.67,430.72,55.87,429.01,55.87,425.61"/>
		<path class="st6" d="M59.43,425.64c0-3.83,2.74-6.28,6.13-6.28c3.4,0,6.13,2.44,6.13,6.28c0,3.84-2.74,6.18-6.13,6.18
			C62.17,431.82,59.43,429.47,59.43,425.64 M70.52,425.64c0-3.13-2.22-5.15-4.96-5.15s-4.96,2.03-4.96,5.15
			c0,3.13,2.22,5.01,4.96,5.01S70.52,428.77,70.52,425.64"/>
		<path class="st6" d="M73.77,425.61c0-3.61,2.74-6.23,6.13-6.23s6.42,2.08,5.96,6.79H74.99c0.24,2.83,2.42,4.47,4.91,4.47
			c1.59,0,3.45-0.64,4.35-1.83l0.86,0.68c-1.17,1.54-3.27,2.32-5.2,2.32C76.51,431.82,73.77,429.45,73.77,425.61 M84.79,425.13
			c-0.02-2.98-1.98-4.64-4.89-4.64c-2.49,0-4.64,1.69-4.91,4.64H84.79z"/>
		<path class="st6" d="M91.21,415.94v3.64h4.1v1h-4.1v7.35c0,1.64,0.34,2.78,2.22,2.78c0.59,0,1.25-0.2,1.86-0.49l0.42,0.98
			c-0.76,0.37-1.52,0.61-2.27,0.61c-2.57,0-3.4-1.51-3.4-3.88v-7.35h-2.57v-1h2.57v-3.52L91.21,415.94z"/>
		<path class="st6" d="M99.67,415.65c0,1.27-1.93,1.27-1.93,0C97.74,414.38,99.67,414.38,99.67,415.65 M98.08,431.65h1.2v-12.12
			h-1.2V431.65z"/>
		<path class="st6" d="M112.59,429.96c-1.22,1.22-2.81,1.81-4.4,1.81c-3.4,0-6.2-2.35-6.2-6.16c0-3.81,2.71-6.16,6.2-6.16
			c1.59,0,3.18,0.61,4.4,1.81l-0.78,0.76c-0.98-0.98-2.32-1.44-3.61-1.44c-2.74,0-5.03,1.78-5.03,5.03s2.3,5.03,5.03,5.03
			c1.29,0,2.61-0.51,3.59-1.49L112.59,429.96z"/>
		<polygon class="st6" points="134.21,431.65 132.89,431.65 130.93,426.37 129.47,421.68 127.95,426.4 126,431.65 124.68,431.65 
			120.38,419.58 121.7,419.58 125.34,430.26 129.03,419.58 129.88,419.58 133.55,430.26 137.16,419.58 138.48,419.58 		"/>
		<path class="st6" d="M139.87,425.64c0-3.83,2.74-6.28,6.13-6.28s6.13,2.44,6.13,6.28c0,3.84-2.74,6.18-6.13,6.18
			S139.87,429.47,139.87,425.64 M150.97,425.64c0-3.13-2.22-5.15-4.96-5.15c-2.74,0-4.96,2.03-4.96,5.15c0,3.13,2.22,5.01,4.96,5.01
			C148.74,430.65,150.97,428.77,150.97,425.64"/>
		<path class="st6" d="M156.02,419.58l0.05,2.15c0.76-1.64,2.47-2.27,4.01-2.27c0.9-0.02,1.78,0.22,2.59,0.71l-0.54,0.98
			c-0.64-0.39-1.34-0.56-2.05-0.56c-2.25,0.02-3.98,1.83-3.98,4.03v7.04h-1.2v-12.07H156.02z"/>
		<rect x="164.47" y="414.55" class="st6" width="1.2" height="17.1"/>
		<path class="st6" d="M180.6,414.55v17.1h-1.17v-2.66c-1,1.83-2.98,2.86-5.03,2.86c-3.37,0-6.03-2.22-6.03-6.23
			c0-3.98,2.69-6.23,6.06-6.23c2.08,0,4.03,0.88,5.01,2.83v-7.67H180.6z M169.53,425.61c0,3.35,2.22,5.06,4.93,5.06
			c2.83,0,4.93-2.08,4.93-5.08c0-3.01-2.15-5.06-4.93-5.06C171.75,420.53,169.53,422.22,169.53,425.61"/>
		<path class="st6" d="M190.2,425.64c0-3.83,2.74-6.28,6.13-6.28c3.4,0,6.13,2.44,6.13,6.28c0,3.84-2.74,6.18-6.13,6.18
			C192.93,431.82,190.2,429.47,190.2,425.64 M201.29,425.64c0-3.13-2.22-5.15-4.96-5.15c-2.74,0-4.96,2.03-4.96,5.15
			c0,3.13,2.22,5.01,4.96,5.01C199.06,430.65,201.29,428.77,201.29,425.64"/>
		<path class="st6" d="M206.47,431.65v-10.92H204v-1.05h2.47v-1.07c0-2.39,0.95-4.13,3.61-4.13c0.9,0,1.71,0.32,2.39,0.83
			l-0.59,0.88c-0.66-0.39-1.12-0.61-1.86-0.61c-1.51,0-2.39,0.93-2.39,3.03v1.07h3.98v1.05h-3.98v10.92H206.47z"/>
		<path class="st6" d="M220.59,425.64c0-3.83,2.74-6.28,6.13-6.28c3.4,0,6.13,2.44,6.13,6.28c0,3.84-2.74,6.18-6.13,6.18
			C223.32,431.82,220.59,429.47,220.59,425.64 M231.68,425.64c0-3.13-2.22-5.15-4.96-5.15c-2.74,0-4.96,2.03-4.96,5.15
			c0,3.13,2.22,5.01,4.96,5.01C229.45,430.65,231.68,428.77,231.68,425.64"/>
		<path class="st6" d="M236.86,431.65v-10.92h-2.47v-1.05h2.47v-1.07c0-2.39,0.95-4.13,3.61-4.13c0.9,0,1.71,0.32,2.39,0.83
			l-0.59,0.88c-0.66-0.39-1.12-0.61-1.86-0.61c-1.51,0-2.39,0.93-2.39,3.03v1.07h3.98v1.05h-3.98v10.92H236.86z"/>
		<path class="st6" d="M252.78,431.65v-10.92h-2.47v-1.05h2.47v-1.07c0-2.39,0.95-4.13,3.62-4.13c0.9,0,1.71,0.32,2.39,0.83
			l-0.59,0.88c-0.66-0.39-1.12-0.61-1.86-0.61c-1.52,0-2.39,0.93-2.39,3.03v1.07h3.98v1.05h-3.98v10.92H252.78z"/>
		<path class="st6" d="M260.06,425.61c0-3.61,2.74-6.23,6.13-6.23c3.4,0,6.43,2.08,5.96,6.79h-10.87c0.24,2.83,2.42,4.47,4.91,4.47
			c1.59,0,3.45-0.64,4.35-1.83l0.85,0.68c-1.17,1.54-3.27,2.32-5.2,2.32C262.8,431.82,260.06,429.45,260.06,425.61 M271.08,425.13
			c-0.03-2.98-1.98-4.64-4.89-4.64c-2.49,0-4.64,1.69-4.91,4.64H271.08z"/>
		<path class="st6" d="M292.89,431.65v-7.23c0-2.32-1.56-3.96-3.86-3.96c-2.3,0-3.89,1.71-3.89,4.03v7.16h-1.2v-7.16
			c0-2.32-1.59-4.01-3.89-4.01c-2.3,0-3.86,1.68-3.86,4.01v7.16h-1.2v-12.07h1.12l0.03,2c0.83-1.59,2.37-2.25,3.93-2.25
			c1.83,0,3.76,0.83,4.47,2.98c0.73-1.98,2.61-2.98,4.47-2.98c2.95,0,5.06,2.08,5.06,5.08v7.23H292.89z"/>
		<path class="st6" d="M299.05,415.65c0,1.27-1.93,1.27-1.93,0C297.12,414.38,299.05,414.38,299.05,415.65 M297.46,431.65h1.2
			v-12.12h-1.2V431.65z"/>
		<path class="st6" d="M303.25,419.58v2.15c0.93-1.66,2.61-2.35,4.3-2.37c3.22,0,5.45,1.98,5.45,5.33v6.96h-1.2v-6.94
			c0-2.74-1.69-4.2-4.3-4.18c-2.49,0.02-4.23,1.9-4.23,4.4v6.72h-1.2v-12.07H303.25z"/>
		<path class="st6" d="M317.71,415.65c0,1.27-1.93,1.27-1.93,0C315.78,414.38,317.71,414.38,317.71,415.65 M316.12,431.65h1.2
			v-12.12h-1.2V431.65z"/>
		<path class="st6" d="M323.5,415.94v3.64h4.1v1h-4.1v7.35c0,1.64,0.34,2.78,2.22,2.78c0.59,0,1.25-0.2,1.86-0.49l0.42,0.98
			c-0.76,0.37-1.52,0.61-2.27,0.61c-2.57,0-3.4-1.51-3.4-3.88v-7.35h-2.57v-1h2.57v-3.52L323.5,415.94z"/>
		<polygon class="st6" points="340.94,419.58 333.59,436.68 332.32,436.68 334.54,431.5 329.71,419.58 331,419.58 333.81,426.71 
			335.23,430.21 336.62,426.69 339.65,419.58 		"/>
	</g>
	<g>
		<path class="st6" d="M272.44,147.86c-1.14-11.9-7.84-21.55-18.86-27.64c-1.37-0.77-2.81-1.47-4.32-2.11
			c-1.15-0.5-2.33-0.96-3.55-1.38c-1-0.35-4.99-1.31-6.05-1.62l-0.01,2.67c0.21,0.06,1.06,0.42,1.27,0.48
			c0.29,0.08,0.57,0.16,0.85,0.24c1.49,0.42,2.92,0.89,4.29,1.42c1.89,0.71,3.68,1.52,5.36,2.41c10.63,5.62,17.09,14.65,18.15,25.8
			c0.95,9.9-2.48,20.19-9.08,29.08c-0.63-10-4.08-20.06-10.86-28.54c-1.02-1.29-2.13-2.54-3.32-3.74c-1.98-2.05-4.21-3.96-6.66-5.73
			v-20.49l-0.67,0.67c-0.68,0.68-1.74,0.63-2.43,0c-0.08-0.08-0.16-0.17-0.22-0.28c-0.39-0.04-0.83-0.07-1.35-0.11h-0.03
			l-11.39,0.11l-7.56,0.07l-1.94,0.02c-0.74,0.04-1.49,0.08-2.27,0.13c-0.04,0-0.09,0.01-0.13,0.01
			c-7.8,0.51-14.94,4.13-19.12,10.86c-1.38,2.23-2.42,4.68-3.05,7.22c-0.21,0.83,0.36,1.65,1.21,1.76c0.05,0.01,0.12,0.01,0.18,0.01
			c0.64,0,1.23-0.44,1.38-1.1c0.77-3.29,3.77-12.07,14.24-14.98c1.16-0.34,2.41-0.58,3.77-0.74c0.55-0.08,1.11-0.13,1.7-0.17
			c3.57-0.23,6.73-0.37,9.5-0.44c0.14-0.01,0.28-0.01,0.42-0.02c7.87-0.21,12.52,0.08,14.66,0.28c0.13,0.01,0.23,0.12,0.23,0.26
			v20.13c0,0.07-0.04,0.15-0.09,0.2c-0.38,0.34-0.75,0.66-1.12,0.98c-2.2,1.87-4.37,3.39-6.48,4.61c-1.24,0.73-2.47,1.34-3.68,1.87
			c-2.5,1.11-4.92,1.82-7.2,2.22c-1.07,0.2-2.1,0.34-3.11,0.4c-7.78,0.6-13.68-2.03-16.05-3.32c-0.66-0.36-1.46-0.14-1.88,0.47
			c-0.16,0.25-0.24,0.53-0.24,0.81c0,0.5,0.27,0.99,0.75,1.26c2.45,1.3,7.99,3.76,15.27,3.76c0.7,0,1.42-0.02,2.15-0.07
			c1.01-0.07,2.05-0.18,3.11-0.36c2.3-0.38,4.71-1.02,7.2-2.03c1.21-0.48,2.44-1.05,3.68-1.7c2.12-1.12,4.28-2.51,6.48-4.22
			c0.26-0.19,0.52-0.4,0.79-0.61c0.16-0.14,0.42-0.03,0.42,0.19v11.02c0,4.11-0.42,8.14-1.21,12.04
			c-1.25,6.15-3.46,11.98-6.48,17.32c-1.12,1.96-2.35,3.87-3.68,5.69c-2.14,2.93-4.55,5.66-7.2,8.15c-1,0.95-2.04,1.85-3.11,2.72
			c-5.84,4.77-12.67,8.49-20.25,10.81l-12.24,3.77c-0.05,0.01-0.11,0.01-0.15,0l-12.37-3.77c-7.72-2.36-14.69-6.18-20.64-11.11
			c-1.07-0.88-2.1-1.81-3.11-2.77c-2.65-2.52-5.06-5.29-7.2-8.25c-1.33-1.84-2.56-3.77-3.67-5.76c-3.06-5.45-5.27-11.39-6.49-17.64
			c-0.74-3.74-1.12-7.58-1.12-11.49v-10.73c0-0.22,0.25-0.33,0.41-0.19c0.24,0.19,0.48,0.37,0.71,0.55c2.2,1.72,4.36,3.11,6.49,4.24
			c1.24,0.66,2.47,1.23,3.67,1.71c2.51,1.01,4.92,1.67,7.2,2.06c1.06,0.17,2.1,0.29,3.11,0.36c0.76,0.05,1.5,0.07,2.23,0.07
			c7.28,0,12.83-2.46,15.27-3.77c0.75-0.4,0.98-1.35,0.51-2.06c-0.28-0.41-0.73-0.64-1.2-0.64c-0.23,0-0.45,0.05-0.67,0.17
			c-2.39,1.29-8.33,3.94-16.14,3.31c-1-0.06-2.05-0.19-3.11-0.4c-2.28-0.42-4.69-1.13-7.2-2.24c-1.21-0.53-2.43-1.16-3.67-1.89
			c-2.13-1.23-4.29-2.76-6.49-4.64c-0.32-0.28-0.66-0.56-0.98-0.86c0,0,0,0,0,0v-22.86c-1.02-0.72-2.05-1.43-3.09-2.13v2.35h0.01
			l0.05,17.23h0c-0.03,0.02-0.04,0.03-0.07,0.05c-3.59,2.27-6.75,4.85-9.48,7.65c-1.19,1.21-2.3,2.45-3.32,3.74
			c-6.77,8.48-10.23,18.54-10.86,28.54c-6.6-8.89-10.03-19.19-9.08-29.08c1.01-10.68,6.98-19.41,16.83-25.07
			c1.9-1.09,3.94-2.07,6.13-2.93c1.38-0.54,2.81-1.03,4.3-1.47c0.46-0.14,0.93-0.27,1.4-0.4c1.2-0.32,4.54-1.02,5.69-1.36
			c-0.63-0.42,0.64-0.95,0-1.35c-0.39-0.25-0.59-1.31-0.71-1.7c-0.54,0.15-5.19,1.47-5.74,1.62c-1.6,0.43-3.15,0.92-4.64,1.46
			c-1.22,0.43-2.4,0.91-3.54,1.43c-1.78,0.78-3.46,1.65-5.04,2.59c-10.25,6.13-16.47,15.48-17.56,26.9
			c-1.12,11.92,3.34,24.07,11.88,34.07c0.15,6.18,1.37,12.24,3.53,17.76c1.11,2.81,2.54,5.61,4.3,8.27c0.2,0.31,0.4,0.61,0.62,0.91
			c0.25,0.36,0.49,0.72,0.76,1.06c0.36,0.5,0.75,0.99,1.13,1.46c0.2,0.25,0.4,0.49,0.61,0.73c0,0,0,33.69-0.01,33.69
			c-1.32,0.21-2.1,0.36-2.24,0.39l-1.82,0.36l0.8,1.67c0.9,1.9,1.99,3.69,3.27,5.37v4.31c0,36.2,28.13,65.96,63.67,68.57
			c1.67,0.13,3.35,0.19,5.04,0.19h0.05c1.69,0,3.37-0.05,5.04-0.18c35.57-2.58,63.73-32.36,63.73-68.58v-4.33
			c1.26-1.66,2.35-3.45,3.25-5.35l0.79-1.67l-1.81-0.36c-0.15-0.03-0.93-0.18-2.23-0.39V212.1c3.22-3.79,5.69-8.07,7.39-12.41
			c2.17-5.53,3.39-11.58,3.55-17.77C269.11,171.91,273.57,159.78,272.44,147.86 M112.1,207.38c-1.96-2.77-3.54-5.76-4.71-8.75
			c-1.66-4.19-2.73-8.7-3.16-13.34c2.39,2.38,5.02,4.63,7.87,6.67c1.07,0.77,2.18,1.52,3.32,2.23c2.05,1.3,4.21,2.51,6.47,3.6
			c1.03,0.5,2.03,1,3.01,1.51c1.42,0.73,2.77,1.46,4.08,2.2c2.33,1.31,4.49,2.64,6.49,3.95c1.29,0.86,2.51,1.7,3.67,2.55
			c2.74,1.99,5.12,3.96,7.2,5.89c1.13,1.03,2.16,2.05,3.11,3.05c1.09,1.15,2.06,2.26,2.94,3.34c-0.99,0.3-1.97,0.56-2.93,0.77h-0.01
			c-0.71,0.17-1.42,0.31-2.11,0.44c-0.33,0.06-0.66,0.13-0.99,0.18h-0.01c-2.51,0.39-4.9,0.55-7.19,0.5
			c-0.84-0.02-1.66-0.08-2.47-0.16c-0.4-0.04-0.81-0.07-1.21-0.12c-2.29-0.3-4.45-0.81-6.48-1.51c-0.96-0.33-1.87-0.71-2.75-1.12
			c-0.45-0.19-0.9-0.39-1.33-0.62h-0.01c-3.65-1.84-6.81-4.32-9.48-7.18v-0.01c-0.9-0.97-1.74-1.97-2.54-3.01
			c-0.27-0.34-0.52-0.69-0.77-1.05C112.1,207.39,112.1,207.38,112.1,207.38 M154.27,222.73c0.15,0.22,0.31,0.44,0.47,0.64
			c0.01,0.04,0.03,0.07,0.05,0.09c2.53,4.03,8.47,14.88,5.81,24.56c-0.11,0.43-0.25,0.85-0.39,1.27c-3.35-1.22-6.93-2.21-10.75-2.97
			v-22.3C151.03,223.68,152.63,223.25,154.27,222.73 M146.35,224.6v21.17h-0.01c-0.29-0.05-0.57-0.1-0.86-0.14
			c-2.14-0.33-4.25-0.57-6.33-0.74V225.1c0.24,0.01,0.47,0.01,0.72,0.01c2.08,0,4.23-0.17,6.47-0.51H146.35z M135.47,224.86v19.77
			c-1.88-0.08-3.69-0.13-5.44-0.13c-0.35,0-0.7,0.01-1.04,0.01v-21.02C131.03,224.13,133.19,224.59,135.47,224.86 M124.91,221.93
			v22.67h-0.01c-3.73,0.15-6.96,0.46-9.48,0.75v-29.76C118.17,218.12,121.33,220.3,124.91,221.93 M115.42,248.28
			c2.46-0.3,5.71-0.61,9.48-0.76h0.01c0.42-0.02,0.86-0.04,1.29-0.04c0.91-0.04,1.83-0.05,2.79-0.06c0.41-0.01,0.83-0.01,1.26-0.01
			c1.68,0,3.42,0.04,5.22,0.14c0.39,0.02,0.78,0.04,1.17,0.07c0.83,0.05,1.66,0.1,2.5,0.17h0.01c1.97,0.17,3.95,0.4,5.97,0.7
			c0.41,0.07,0.82,0.13,1.22,0.2h0.01c0.33,0.05,0.67,0.12,1.01,0.18c0.7,0.12,1.4,0.25,2.09,0.39h0.01
			c3.39,0.69,6.57,1.57,9.55,2.62c-1.92,3.4-5.05,6.25-9.37,8.5h-0.01c-0.84,0.45-1.73,0.87-2.66,1.27
			c-0.1,0.04-0.19,0.08-0.29,0.12c-2.24,0.92-4.56,1.51-6.91,1.76h-0.01c-1.23,0.13-2.46,0.18-3.7,0.13h-0.01
			c-2.32-0.09-4.63-0.51-6.86-1.25c-1.04-0.34-2.06-0.75-3.05-1.23c-0.39-0.19-0.77-0.39-1.16-0.59c-3.85-2.02-7.03-4.51-9.56-7.48
			v-0.01c-1.17-1.37-2.2-2.83-3.09-4.4C113.14,248.58,114.17,248.43,115.42,248.28 M246.32,257.91c0,0.87-0.01,1.73-0.06,2.59
			c-1.26,32.52-26.38,59.02-58.3,62.47c-1.71,0.19-3.44,0.31-5.19,0.36c-0.63,0.02-1.26,0.03-1.9,0.03h-0.05
			c-0.64,0-1.27-0.01-1.9-0.03c-1.75-0.05-3.48-0.18-5.19-0.37c-31.9-3.46-56.98-29.96-58.25-62.45c-0.04-0.86-0.06-1.73-0.06-2.6
			v-0.59c2.65,2.53,5.8,4.67,9.46,6.45c0.12,0.06,0.24,0.12,0.37,0.18c0.09,0.92,0.22,1.82,0.36,2.72
			c3.63,23.09,21.08,41.65,43.59,46.93c-0.65-1.6-1.22-3.15-1.72-4.67v-0.01c-18.97-5.49-33.61-21.25-37.48-40.85
			c-0.17-0.83-0.32-1.68-0.44-2.53c2.3,0.64,4.66,0.98,7.06,1.02c0.17,0.79,0.37,1.57,0.59,2.35c3.98,14.16,14.46,25.63,28.02,30.94
			c-0.24-1.45-0.42-2.85-0.53-4.21c-11.35-5.08-20.1-14.93-23.73-26.98c-0.23-0.75-0.43-1.52-0.62-2.29
			c2.32-0.28,4.61-0.84,6.84-1.69h0.01c0.16,0.77,0.36,1.53,0.59,2.28c2.64,9.08,8.79,16.69,16.86,21.25
			c0.09-1.16,0.21-2.29,0.38-3.38c-6.92-4.3-12.13-11.09-14.37-19.1c-0.21-0.77-0.41-1.55-0.55-2.34
			c5.44-2.66,9.35-6.17,11.64-10.47c5.56,2.29,10.36,5.25,14.36,8.91c0.95,0.86,1.85,1.76,2.7,2.7c-6.06,7.93-8.94,15.51-9.9,22.37
			c-0.15,1.1-0.25,2.18-0.31,3.24c-0.13,2.48-0.03,4.86,0.26,7.11c0.18,1.41,0.43,2.77,0.72,4.07c0.78,3.32,1.89,6.3,3.09,8.83
			c0.8,1.7,1.65,3.21,2.44,4.5c2.04,3.33,3.79,5.23,3.85,5.3l1.86,1.98l0.02,0.01l0.03-0.03l1.9-1.96c0.06-0.06,1.7-1.85,3.67-5
			c0.78-1.24,1.6-2.69,2.4-4.33h-0.01c1.19-2.46,2.33-5.33,3.13-8.56h0.01c0.32-1.27,0.59-2.59,0.8-3.96h-0.01
			c0.32-2.19,0.48-4.51,0.41-6.94h0.01c-0.03-1.05-0.1-2.12-0.22-3.2h-0.01c-0.8-7.14-3.66-15.09-10.04-23.43
			c0.85-0.93,1.75-1.83,2.68-2.69c4.01-3.66,8.81-6.63,14.38-8.92c2.58,4.8,7.15,8.62,13.66,11.38c0.19,0.09,0.38,0.16,0.58,0.23
			h0.01c-0.19,0.78-0.4,1.54-0.64,2.29c-2.7,8.53-8.8,15.56-16.71,19.5c0.12,1.07,0.21,2.18,0.25,3.32
			c9.18-4.18,16.32-12.11,19.42-21.83c0.23-0.75,0.44-1.5,0.63-2.27c2.3,0.64,4.64,0.97,7.01,1.02c-0.19,0.78-0.41,1.56-0.65,2.33
			c-3.99,12.99-13.94,23.38-26.65,27.96c-0.14,1.32-0.34,2.68-0.6,4.07c15.06-4.71,26.86-16.86,31.11-32.13
			c0.22-0.79,0.43-1.6,0.61-2.42c2.44-0.29,4.83-0.91,7.15-1.84c-0.12,0.9-0.26,1.79-0.42,2.67c-3.8,21.08-20.02,37.88-40.79,42.54
			c-0.5,1.47-1.07,2.96-1.71,4.49c24.49-4.29,43.69-24.17,46.94-49c0.13-0.94,0.23-1.9,0.3-2.85v-0.01
			c2.58-1.46,4.86-3.15,6.85-5.08V257.91z M176.72,310.73h-0.01c-1.74-2.83-2.9-5.75-3.65-8.57c-0.35-1.34-0.62-2.67-0.81-3.95
			h-0.01c-0.38-2.51-0.48-4.86-0.43-6.91c0.03-1.18,0.1-2.26,0.19-3.21c0.14-1.41,0.33-2.55,0.48-3.35
			c0.15-0.79,0.27-1.24,0.28-1.27c1.71-6.31,4.39-11.8,8.07-16.47c0.01-0.01,0.02-0.04,0.04-0.05c3.68,4.68,6.38,10.19,8.11,16.52
			c0.02,0.06,0.56,2.14,0.82,5.4c0.08,0.96,0.13,2.02,0.14,3.16c0.02,2.04-0.12,4.34-0.54,6.77c-0.2,1.25-0.48,2.55-0.85,3.85
			c-0.78,2.75-1.94,5.56-3.65,8.31c-0.87,1.4-1.89,2.79-3.08,4.13c-0.3,0.35-0.62,0.7-0.95,1.05c-0.02-0.02-0.03-0.04-0.05-0.05
			c-0.33-0.34-0.65-0.69-0.95-1.04h0.01C178.66,313.65,177.6,312.21,176.72,310.73 M206.93,223.46c0.02-0.02,0.04-0.05,0.05-0.09
			c0.16-0.2,0.32-0.42,0.47-0.64c2.65,0.83,5.2,1.44,7.65,1.83h0.01v21.26h-0.01c-4.87,0.79-9.41,1.95-13.58,3.47
			c-0.14-0.42-0.29-0.84-0.39-1.27C198.48,238.34,204.41,227.49,206.93,223.46 M246.31,253.1c-1.86,2.19-4.08,4.11-6.67,5.79
			c-1.27,0.83-2.62,1.59-4.06,2.29c-0.04,0.02-0.08,0.04-0.12,0.07h-0.01c-2.2,1.05-4.51,1.76-6.89,2.12h-0.01
			c-1.25,0.2-2.5,0.3-3.77,0.31h-0.01c-2.35,0.01-4.71-0.31-7.02-0.98c-1.01-0.28-2.01-0.63-2.99-1.05
			c-2.86-1.21-5.3-2.64-7.31-4.27c-2.01-1.64-3.59-3.47-4.73-5.5c3.79-1.34,7.93-2.39,12.38-3.14h0.01c0.15-0.02,0.3-0.05,0.45-0.07
			c0.35-0.06,0.7-0.13,1.05-0.18c0.54-0.08,1.08-0.15,1.61-0.22c2.45-0.33,4.85-0.55,7.19-0.68h0.01c0.41-0.02,0.83-0.04,1.23-0.06
			c0.83-0.04,1.64-0.07,2.45-0.08c0.97-0.02,1.92-0.04,2.85-0.04c1.24,0,2.45,0.02,3.62,0.07h0.01c0.45,0.01,0.88,0.03,1.32,0.04
			c0.95,0.05,1.87,0.09,2.75,0.15h0.01c2.58,0.16,4.83,0.39,6.65,0.61h0.01c1.25,0.15,2.27,0.3,3.08,0.42
			C248.52,250.27,247.49,251.73,246.31,253.1 M218.22,245.35v-20.41c1.24,0.12,2.45,0.17,3.64,0.17c1.21,0,2.4-0.06,3.55-0.16h0.01
			v19.74h-0.01C223.07,244.82,220.68,245.03,218.22,245.35 M229.1,244.54v-20.13c2.28-0.44,4.43-1.1,6.48-1.93v22.08h-0.01
			C233.53,244.49,231.38,244.48,229.1,244.54 M239.66,244.75v-24.28c2.44-1.39,4.66-3.05,6.66-4.91v29.79h-0.01
			C244.47,245.14,242.23,244.92,239.66,244.75 M254.34,198.63c-1.17,2.99-2.75,5.98-4.71,8.75c-1,1.42-2.11,2.79-3.32,4.08
			c-1.95,2.09-4.16,3.98-6.65,5.57h-0.01c-0.88,0.57-1.8,1.08-2.75,1.56c-0.44,0.23-0.87,0.46-1.32,0.67h-0.01
			c-2.02,0.92-4.17,1.64-6.47,2.15h-0.01c-0.81,0.17-1.63,0.31-2.47,0.42c-0.41,0.06-0.8,0.12-1.2,0.16h-0.01
			c-2.28,0.23-4.66,0.26-7.19,0.02c-0.7-0.06-1.41-0.14-2.13-0.25c-0.32-0.04-0.65-0.08-0.98-0.14h-0.01
			c-1.86-0.32-3.78-0.76-5.77-1.35c1.59-1.95,3.5-4.01,5.77-6.13c0.96-0.9,2-1.81,3.11-2.74c2.12-1.76,4.52-3.57,7.2-5.38
			c1.17-0.79,2.39-1.58,3.68-2.36c2.01-1.24,4.17-2.47,6.48-3.7c1.31-0.7,2.67-1.39,4.08-2.08c0.06-0.03,0.13-0.06,0.19-0.09
			c2.25-1.09,4.41-2.3,6.47-3.61c1.14-0.71,2.25-1.45,3.32-2.22c2.85-2.05,5.48-4.3,7.86-6.68
			C257.06,189.93,255.99,194.44,254.34,198.63 M249.63,188.29c-1.07,0.85-2.17,1.65-3.32,2.42c-2.11,1.44-4.33,2.76-6.66,3.95
			c-0.35,0.18-0.71,0.36-1.07,0.54c-1.03,0.49-2.03,1-3.01,1.5c-2.3,1.19-4.46,2.38-6.48,3.58c-1.28,0.76-2.5,1.51-3.68,2.27
			c-2.65,1.7-5.05,3.41-7.2,5.09c-1.09,0.86-2.13,1.71-3.11,2.56c-3.67,3.16-6.54,6.23-8.8,9.1c-6.98,8.9-7.92,15.78-8.04,17.26
			c-0.84,3.88-1.04,8.1,0.07,12.21c0.15,0.53,0.32,1.05,0.5,1.56c-5.86,2.44-10.94,5.63-15.2,9.52c-0.87,0.79-1.7,1.61-2.5,2.45
			l-0.26,0.21l-0.04-0.03l-0.22-0.18l-0.01,0.01c-0.81-0.85-1.64-1.68-2.52-2.46c-4.25-3.9-9.33-7.08-15.18-9.52
			c0.17-0.51,0.35-1.03,0.5-1.56c1.12-4.14,0.9-8.38,0.06-12.29c-0.15-1.61-1.17-8.35-7.94-17.05c-0.01-0.03-0.03-0.04-0.05-0.07
			l-0.05-0.06c-1.64-2.09-3.6-4.29-5.97-6.54c-0.97-0.94-2-1.87-3.11-2.82c-0.92-0.78-1.88-1.58-2.91-2.37
			c-1.34-1.05-2.76-2.09-4.29-3.14c-1.16-0.82-2.39-1.62-3.67-2.43c-2.02-1.27-4.17-2.54-6.49-3.81c-1.31-0.71-2.66-1.41-4.08-2.12
			c-0.57-0.29-1.16-0.58-1.75-0.87c-2.72-1.33-5.31-2.83-7.73-4.49c-1.15-0.77-2.25-1.57-3.32-2.42c-2.97-2.32-5.68-4.88-8.08-7.63
			c-0.01-9.28,2.54-18.81,8.08-27.07c1-1.5,2.11-2.97,3.32-4.38c2.66-3.1,5.81-5.95,9.48-8.46c0.03-0.01,0.05-0.03,0.08-0.05v16.08
			c0,7.78,1.34,15.5,4,22.72c1.66,4.51,3.82,8.82,6.49,12.85c0.83,1.26,1.73,2.5,2.66,3.71c0.34,0.42,0.67,0.84,1.01,1.26
			c2.21,2.69,4.62,5.17,7.2,7.43c1.02,0.88,2.05,1.72,3.11,2.53c5.83,4.45,12.44,7.85,19.62,10.04l13.39,4.08
			c0.05,0.01,0.1,0.01,0.15,0l12.91-3.97c7.22-2.22,13.83-5.66,19.58-10.07c1.07-0.81,2.11-1.67,3.11-2.55
			c2.61-2.27,5.02-4.75,7.2-7.41c1.31-1.58,2.54-3.23,3.68-4.94c2.62-3.9,4.8-8.11,6.48-12.53c2.65-6.96,4.08-14.47,4.08-22.23
			v-14.88c2.5,1.98,4.72,4.12,6.66,6.4c1.21,1.4,2.32,2.86,3.32,4.36c5.54,8.26,8.09,17.8,8.08,27.09
			C255.31,183.41,252.61,185.97,249.63,188.29"/>
		<path class="st6" d="M130.09,94.75h106.33c0.04-0.05,0.08-0.11,0.13-0.16l3.1-3.1V69.96L239.61,65c-0.19-0.05-0.38-0.11-0.57-0.16
			c-7.29-2.19-13.41-4.58-18.59-7.02c1.14-0.83,2.21-1.74,3.2-2.7c0.98-0.95,1.87-1.96,2.69-3.01c0.45-0.57,0.87-1.16,1.27-1.77
			c0.77-1.13,1.45-2.31,2.06-3.53c0.49-1,0.94-2.03,1.33-3.08c0.42-1.13,0.77-2.29,1.05-3.45c0.08-0.32,0.15-0.64,0.21-0.96
			c0.14-0.69,0.26-1.38,0.34-2.07c0.04-0.31,0.08-0.62,0.11-0.93c0.07-0.79,0.11-1.59,0.12-2.37V33.9c0-0.91-0.81-1.61-1.71-1.46
			l-0.06,0.01c-0.11,0.02-5.93,1.08-11.78,4.8c-1.34,0.86-2.69,1.87-3.97,3.03c-0.5,0.46-1,0.94-1.46,1.45
			c-2.27,2.4-4.19,5.38-5.35,9.06c-0.02,0.05-0.03,0.11-0.05,0.16c-0.31,1.02-0.56,2.1-0.74,3.25c-0.29,1.64-0.41,3.41-0.36,5.31
			c0.01,0.71-0.44,1.34-1.11,1.49c-0.97,0.22-1.95,0.42-2.94,0.56c-0.03,0.01-0.07,0.02-0.1,0.02c-1.03,0.16-2.04,0.27-3.06,0.33
			c-0.27,0.02-0.55,0.04-0.82,0.05c-1.23,0.06-2.47,0.06-3.7-0.02h-0.03c-1.53-0.08-3.03-0.26-4.52-0.54
			c-3.77-0.71-6.63-3.61-8.48-6.22c0.12-0.17,0.24-0.33,0.33-0.49c0.25-0.35,0.61-0.58,1.03-0.63c1.85-0.26,4.22-0.71,6.82-1.49
			c0.94-0.28,1.88-0.6,2.88-0.97c2.14-0.81,4.39-1.86,6.58-3.21c0.9-0.55,1.78-1.15,2.65-1.81c1.36-1,2.67-2.15,3.93-3.46
			c0.86-0.9,1.66-1.85,2.4-2.84c0.71-0.96,1.37-1.97,1.97-3.03c3.27-5.7,4.8-12.65,4.56-20.72l-0.01-0.06
			c-0.03-1.04-1.12-1.72-2.06-1.3l-0.05,0.02c-0.38,0.17-4.95,2.22-9.74,5.5c0.07-6.7-1.62-9.55-6.2-14.29
			c-1.54-1.59-4.66-2.97-7.43-2.43c-0.3,0.07-0.61,0.15-0.89,0.26c-0.14-0.34-0.29-0.63-0.47-0.89c-1.59-2.39-5.19-3.29-8.03-3.34
			c-2.33-0.05-6.76,0.96-8.71,3.79c-0.06,0.06-0.09,0.11-0.12,0.16c-0.32,0.51-0.94,0.8-1.54,0.65c-0.18-0.04-0.34-0.09-0.52-0.12
			c-3.67-0.69-6.68,0.09-8.99,2.28c-3.35,3.19-4.38,8.9-4.28,13.92c-3.17-2.43-6.45-4.6-9.11-5.53l-0.05-0.01
			c-0.87-0.31-1.8,0.25-1.94,1.16l-0.02,0.05c-0.06,0.49-1.62,11.25,3.8,20.9c0.56,1.03,1.21,2.05,1.96,3.03
			c0.05,0.07,0.11,0.15,0.17,0.23c1.83,2.39,4.04,4.41,6.59,6.05c0.91,0.6,1.87,1.14,2.86,1.62c2.04,1.02,4.29,1.84,6.69,2.46
			c0.96,0.24,1.95,0.46,2.97,0.64c0.53,0.09,1.09,0.24,1.65,0.27c0.04,0.01,0.09,0.01,0.13,0.01c0.19,0.03,0.36,0.01,0.54-0.04h0.22
			c0.13,0.02,0.24,0.08,0.36,0.14c0.05,0.04,0.11,0.08,0.18,0.11c0.55,0.35,1.13,0.66,1.73,0.95c0.66,0.33,1.32,0.64,2.03,0.91
			c0.95,0.37,1.26,1.59,0.56,2.35c-1.12,1.2-2.37,2.33-3.74,3.35c-2.5,1.86-5.78,2.77-9.22,3.06c-0.23,0.02-0.46,0.04-0.69,0.04
			h-0.01c-1.03,0.06-2.07,0.07-3.1,0.03c-0.19-0.01-0.38-0.01-0.57-0.03c-0.96-0.05-1.91-0.14-2.83-0.26c-0.1,0-0.2-0.01-0.3-0.02
			c-1.65-0.16-4.27-0.85-4.27-0.85v-0.67c-0.05-1.13-0.21-2.99-0.36-4.46c0-0.04,0-0.06-0.01-0.09c-0.08-0.49-0.18-0.98-0.29-1.48
			c-0.23-1.05-0.54-2.08-0.9-3.1c-0.31-0.87-0.66-1.73-1.05-2.57c-0.01-0.01-0.01-0.02-0.01-0.02c-1.19-2.54-2.77-4.9-4.68-6.92
			c-0.57-0.6-1.17-1.18-1.79-1.71c-0.16-0.14-0.32-0.28-0.49-0.41c-1.13-0.96-2.34-1.84-3.64-2.62c-0.27-0.15-0.55-0.32-0.83-0.48
			c-3.37-1.9-6.91-3.67-10.02-3.74h-0.03c-0.84-0.02-1.52,0.65-1.52,1.48v0.04c0.01,0.59,0.05,1.18,0.12,1.78
			c0.03,0.31,0.07,0.61,0.12,0.92c0.12,0.7,0.26,1.39,0.43,2.08c0.08,0.32,0.17,0.63,0.26,0.95c0.35,1.17,0.78,2.33,1.26,3.45
			c0.46,1.07,0.97,2.11,1.5,3.11c0.68,1.28,1.4,2.48,2.1,3.58c0.23,0.35,0.46,0.69,0.68,1.02c0.9,1.31,1.89,2.56,3,3.72
			c0.93,1.01,1.94,1.95,3.02,2.82c-4.24,1.98-9.12,3.93-14.74,5.77l-0.37,20.1L125,86.92l-0.06,3.21l-0.02,1.05
			c1.65,1.07-0.02,2.19,1.59,3.32C126.62,94.58,130,94.66,130.09,94.75 M236.45,67.2v16.43c-1.48,0.47-3.07,0.72-4.71,0.72
			c-8.68,0-15.74-7.06-15.74-15.74c0-3.09,0.89-5.96,2.43-8.39C223.48,62.66,229.45,65.01,236.45,67.2 M210.39,57.52
			c0.03-0.54,0.06-1.05,0.12-1.55c0.02-0.14,0.03-0.29,0.05-0.43c0.12-0.98,0.29-1.93,0.53-2.83c0.89-3.49,2.54-6.3,4.53-8.55
			c1.34-1.54,2.86-2.82,4.39-3.88c1.91-1.32,3.85-2.3,5.59-3.03c0.57-0.23,1.12-0.44,1.63-0.62c0.08-0.04,0.15-0.06,0.23-0.09
			c0.27-0.09,0.55-0.1,0.8-0.04c0.42,0.09,0.78,0.37,0.96,0.75c0.16,0.3,0.22,0.63,0.16,0.99c-0.08,0.39-0.16,0.79-0.26,1.19
			c-0.06,0.28-0.14,0.57-0.21,0.85c-0.35,1.28-0.8,2.55-1.34,3.79c-0.51,1.2-1.1,2.36-1.77,3.47c-0.56,0.94-1.18,1.85-1.84,2.71
			c-0.71,0.91-1.48,1.77-2.31,2.58c-1.08,1.07-2.27,2.06-3.54,2.95c-0.24,0.18-0.49,0.35-0.74,0.51c-0.99,0.65-2.02,1.25-3.1,1.8
			h-0.01c-0.36,0.19-1.44,0.77-2.36,1.26c-0.58,0.29-1.09,0.55-1.33,0.66C209.57,60.45,210.35,58.61,210.39,57.52 M210.6,62.91
			c0.43-0.15,0.84-0.29,1.23-0.44l-0.01-0.01c0.5-0.18,0.98-0.38,1.47-0.58c0.29-0.13,0.56-0.25,0.82-0.37
			c0.12-0.05,0.24-0.11,0.36-0.17c-0.95,2.23-1.47,4.69-1.47,7.27c0,10.33,8.41,18.74,18.74,18.74c1.63,0,3.21-0.21,4.71-0.6v3.24
			c-1.52,0.34-3.09,0.52-4.71,0.52c-12.08,0-21.9-9.82-21.9-21.9C209.84,66.64,210.1,64.73,210.6,62.91 M202.71,64.69
			c0.31-0.03,0.62-0.07,0.93-0.11c0.91-0.13,1.81-0.3,2.7-0.49c0.32-0.07,0.64-0.15,0.96-0.23c-0.3,1.54-0.46,3.13-0.46,4.75
			c0,11.09,7.29,20.51,17.33,23.72h-9.6c-7.35-5.32-12.13-13.97-12.13-23.72C202.44,67.28,202.53,65.97,202.71,64.69 M185.88,49.29
			c-0.06-0.23,0.12-0.71,0.22-0.97c0.4-1.26,0.68-2.56,0.85-3.86c0.17-1.42,0.18-2.82,0.05-4.18c-0.12-1.03-0.31-2.03-0.59-3.03
			c-0.44-1.6-1.11-3.15-2-4.64c-0.3-0.52-0.28-1.18,0.07-1.67l3.5-4.58c0.73-0.96,2.27-0.66,2.59,0.53c0.2,0.81,0.45,1.62,0.66,2.37
			c0.34,1.18,0.7,2.25,0.97,3.11c0.21,0.62,0.39,1.12,0.5,1.48v0.01c0.14,0.35,0.2,0.54,0.22,0.6l0.06,0.12l0.01,0.03
			c0.01,0.01,0.01,0.03,0.02,0.05c0.03,0.09,0.06,0.24,0.13,0.49c0.06,0.51,0.01,0.29,0.06,0.51c0.09,0.55,0.14,1.08,0.15,1.59
			c0.04,0.98-0.06,1.9-0.26,2.77c-0.02,0.08-0.04,0.17-0.06,0.26c-0.25,1.03-0.66,1.99-1.15,2.88c-0.75,1.29-1.68,2.42-2.66,3.38
			C188.15,47.58,186.86,48.64,185.88,49.29 M201.72,26.11c0.01-0.01,0.02-0.01,0.03-0.02c0-0.01,0.01-0.02,0.02-0.03
			c0.53-0.44,1.05-0.87,1.59-1.28v-0.01c0.56-0.43,1.11-0.83,1.68-1.21c0.37-0.27,0.75-0.53,1.13-0.78
			c0.38-0.24,0.74-0.48,1.12-0.71c0.37-0.24,0.73-0.46,1.09-0.68c0.68-0.41,1.36-0.81,2.06-1.2c1.02-0.55,2.28,0.23,2.18,1.4
			c-0.43,6.08-2.1,11.32-4.99,15.66c-0.69,1.06-1.47,2.07-2.32,3.03c-0.22,0.25-0.44,0.49-0.68,0.73c-1.23,1.31-2.6,2.46-3.98,3.46
			c-0.88,0.63-1.78,1.2-2.68,1.73c-1.74,1-3.51,1.82-5.22,2.47c-0.78,0.29-1.54,0.56-2.29,0.79c0.67-0.59,1.36-1.27,2.01-2.03
			c1.07-1.24,2.07-2.7,2.79-4.35c0.37-0.87,0.67-1.82,0.87-2.8c0.06-0.35,0.11-0.69,0.15-1.05c0.09-0.64,0.12-1.3,0.1-1.98
			c-0.01-0.66-0.02-1.43-0.21-2.11c0-0.02-0.01-0.03-0.01-0.05c-0.03-0.14-0.08-0.28-0.15-0.39c-0.01-0.02-0.01-0.03-0.02-0.04
			c-0.01-0.04-0.02-0.06-0.04-0.09c-0.01-0.01-0.02-0.03-0.02-0.05c-0.02-0.04-0.05-0.08-0.05-0.13c-0.01-0.05-0.04-0.1-0.05-0.16
			c-0.15-1.24,1.48-3.34,2.14-4.22c0.01-0.01,0.02-0.03,0.03-0.05c0.25-0.33,0.52-0.66,0.8-0.97c0.26-0.31,0.53-0.61,0.83-0.9
			c0.5-0.53,1.02-1.04,1.56-1.52C201.36,26.41,201.54,26.27,201.72,26.11 M159.79,22.93v-0.08c0.03-0.13,0.04-0.27,0.03-0.4
			c-0.01-0.14-0.02-0.29-0.02-0.42c0.01-1.91-0.05-3.78,0.17-5.69c0.03-0.21,0.05-0.43,0.08-0.64c0.03-0.18,0.05-0.37,0.1-0.53
			c0.01-0.03,0.01-0.06,0.01-0.09c0.05-0.23,0.1-0.48,0.15-0.75c0.54-2.19,1.43-4.12,2.76-5.38c1.58-1.51,3.65-1.99,6.34-1.5
			c0.91,0.18,1.46,0.45,1.78,0.76c0.24,0.24,0.57,0.37,0.9,0.39c0.16,0,0.34,0.02,0.48-0.05c0.29-0.14,0.53-0.28,0.86-0.35
			c0.35-0.06,1.07-0.15,1.05-0.66c-0.01-0.28-0.2-0.54-0.2-0.82c0-0.43,0.1-0.85,0.35-1.2c1.16-1.67,4.32-2.53,6.18-2.5
			c2.13,0.03,4.72,0.72,5.57,2c0.17,0.24,0.34,0.6,0.29,1.17c-0.07,0.64,0.33,1.23,0.91,1.46l0.57,0.23
			c0.54,0.22,1.15,0.03,1.59-0.39c0.27-0.28,0.64-0.45,1.1-0.55c1.58-0.31,3.7,0.55,4.67,1.57c4.39,4.51,5.63,6.66,5.32,13.69
			c-0.01,0.22,0.03,0.46,0.11,0.65c-1.71,1.38-3.35,2.89-4.71,4.53c-0.75,0.91-2.24,0.61-2.55-0.55c-0.67-2.44-1.24-5.07-1.24-6.83
			v-0.11c0-1.42-1.79-2.02-2.66-0.9l-6.76,8.9c-0.55,0.71-1.6,0.79-2.22,0.15c-0.44-0.46-0.91-0.91-1.4-1.36
			c1.32-1.17,2.6-2.42,3.83-3.78c2.75-3.08,6.53-7.3,3.35-12.38c-2.51-4.01-7-4.04-10.09-2.37c-3.09,1.65-5.53,5.32-3.63,9.5
			c0.94,2.06,2.44,3.55,4.21,4.31c0.97,0.41,1.16,1.72,0.38,2.42l-0.19,0.16c-0.06,0.05-0.1,0.1-0.14,0.16
			c-1.83-1.49-3.89-2.96-6.19-4.38l-0.04-0.03c-0.71-0.44-1.67-0.2-2.06,0.54l-0.02,0.03c-0.14,0.26-1.82,3.33-2.95,7.6
			c0-0.3-2.11-1.91-2.59-2.32c-0.04-0.03-0.07-0.04-0.08-0.06c-0.35-0.31-0.71-0.63-1.07-0.93c-0.22-0.2-0.44-0.39-0.66-0.58
			c-0.5-0.43-1-0.85-1.5-1.27c-0.03-0.03-0.07-0.05-0.1-0.08c-0.01-0.03-0.03-0.04-0.05-0.07
			C159.78,23.07,159.79,22.99,159.79,22.93 M178.17,19.13c-0.1-0.05-0.17-0.09-0.25-0.13c-0.27-0.15-0.53-0.32-0.77-0.53
			c-0.09-0.08-0.2-0.17-0.28-0.26c-0.11-0.1-0.21-0.2-0.29-0.32c-0.21-0.23-0.4-0.49-0.57-0.76c-0.07-0.12-0.12-0.22-0.19-0.34
			l-0.2-0.4c-1.1-2.42,0.35-4.54,2.3-5.58c0.78-0.43,1.68-0.68,2.57-0.68c1.32,0,2.63,0.57,3.52,1.99c0.12,0.18,0.22,0.38,0.32,0.58
			c0.04,0.09,0.07,0.18,0.11,0.28c0.36,0.95,0.38,1.97,0.02,2.98c-0.03,0.09-0.06,0.18-0.1,0.28c-0.32,0.77-0.84,1.57-1.49,2.41
			c-0.01,0.02-0.02,0.02-0.02,0.03c-0.27,0.22-0.59,0.39-0.93,0.53c-0.11,0.02-0.21,0.03-0.3,0.05c-0.36,0.08-0.67,0.12-0.75,0.14
			c-0.15,0.03-0.28,0.05-0.43,0.07h-0.02C179.64,19.51,178.85,19.43,178.17,19.13 M163.26,45.92c-1.01-0.46-1.97-0.96-2.89-1.5
			c-1.92-1.17-3.63-2.55-5.1-4.14c-0.48-0.5-0.93-1.04-1.34-1.59c-0.37-0.47-0.71-0.94-1.02-1.44c-3.6-5.47-4.44-11.75-4.54-15.89
			c-0.02-1.18,1.28-1.9,2.27-1.27c5.12,3.25,11.23,8.83,13.9,11.27c0.05,0.04,0.08,0.08,0.13,0.11c0.15,0.15,0.31,0.24,0.49,0.31
			c-0.28,1.73-0.43,3.59-0.31,5.47c0.03,0.51,0.07,1.01,0.14,1.51c0.07,0.5,0.15,1.02,0.27,1.52c0.15,0.83,0.39,1.66,0.7,2.48
			c0.05,0.15,0.11,0.31,0.17,0.45c0.6,1.51,1.4,2.88,2.39,4.14c-0.02,0.11,0.57,0.47,0.55,0.57
			C167.21,47.46,164.86,46.64,163.26,45.92 M171.77,46.47c-1.12-1.17-2-2.48-2.64-3.93c-0.07-0.13-0.14-0.29-0.19-0.44
			c-0.25-0.6-0.44-1.21-0.59-1.82c-0.07-0.25-0.13-0.5-0.17-0.76c-0.15-0.76-0.24-1.51-0.3-2.27c-0.09-1.41-0.03-2.82,0.16-4.18
			c0.03-0.27,0.06-0.52,0.11-0.78c0.14-0.86,0.31-1.69,0.5-2.48c0.41-1.66,0.92-3.13,1.38-4.33c0.35-0.9,1.46-1.21,2.23-0.66
			c3.36,2.35,6.05,4.75,8.03,7.18c1.37,1.65,2.35,3.42,2.98,5.25c0.33,0.99,0.56,1.99,0.69,3.03c0.15,1.22,0.15,2.5-0.01,3.8
			c-0.26,2.18-0.99,4.39-2.09,6.5c-0.24,0.45-0.71,0.74-1.21,0.78c-0.07,0-0.15,0-0.21,0.01c-0.19,0.01-0.39-0.01-0.57-0.07
			C176.44,50.13,173.73,48.53,171.77,46.47 M161.13,65.46c0.87,0.04,1.66,0.04,2.38,0.02h0.02c1.12-0.03,2.05-0.1,2.76-0.17
			c0.28-0.03,0.53-0.06,0.74-0.09c0.14-0.01,0.29-0.04,0.44-0.07c0.24-0.03,0.37-0.06,0.37-0.06c3.03-0.52,5.9-1.58,8.25-3.34
			c1.69-1.25,3.21-2.65,4.55-4.13c2.85,3.75,6.23,6.08,9.86,6.75c0.88,0.17,1.77,0.3,2.66,0.4c0.18,0.02,0.36,0.04,0.54,0.05
			c1.47,0.15,2.89,0.21,4.24,0.2c0.58,0,1.15-0.02,1.71-0.05c-0.14,1.2-0.21,2.41-0.21,3.64c0,9.24,3.9,17.58,10.13,23.46
			c-3.88-0.96-12.16-3.63-15.92-9.6c0.1,0.01,0.21,0.01,0.31,0.01c2.38,0,4.33-1.94,4.33-4.33c0-2.38-1.95-4.32-4.33-4.32
			s-4.33,1.94-4.33,4.32c0,1.07,0.39,2.04,1.03,2.79l0.01,0.01c2.27,5.97,8.13,9.44,13.04,11.38h-21.82
			c1.14-1.55,2.18-3.24,3.04-5.04c4.18-8.76,2.87-17.43-3.88-25.77l-0.69-0.86l-0.79,0.78c-0.28,0.27-6.89,6.9-6.31,17.05
			c0.26,4.7,2.02,9.32,5.24,13.84h-20.42c4.92-1.93,10.79-5.41,13.06-11.4c0.64-0.75,1.02-1.72,1.02-2.78
			c0-2.38-1.94-4.32-4.32-4.32c-2.39,0-4.33,1.94-4.33,4.32c0,2.39,1.94,4.33,4.33,4.33c0.1,0,0.21,0,0.31-0.01
			c-4.17,6.62-13.89,9.18-17.03,9.86h-0.23c6.39-5.9,10.4-14.35,10.4-23.72C161.29,67.55,161.24,66.5,161.13,65.46 M191.63,78.15
			c0-1.28,1.05-2.32,2.33-2.32c1.28,0,2.33,1.04,2.33,2.32c0,1.29-1.05,2.33-2.33,2.33C192.68,80.48,191.63,79.44,191.63,78.15
			 M180.2,91.28c-3.04-4.23-4.69-8.53-4.95-12.88c-0.42-7.26,3.33-12.68,4.98-14.69c4.4,5.85,5.95,11.87,4.58,17.93
			C183.98,85.29,182.23,88.54,180.2,91.28 M167.84,80.48c-1.28,0-2.33-1.04-2.33-2.33c0-1.28,1.05-2.32,2.33-2.32
			c1.28,0,2.32,1.04,2.32,2.32C170.16,79.44,169.12,80.48,167.84,80.48 M153.89,68.61c0-1.43-0.12-2.83-0.36-4.2
			c1.6,0.39,3.13,0.65,4.56,0.81c0.13,1.11,0.2,2.24,0.2,3.39c0,9.75-4.79,18.4-12.13,23.72h-9.59
			C146.6,89.12,153.89,79.7,153.89,68.61 M139.12,52.86c-0.9-0.97-1.72-2.01-2.46-3.1c-0.41-0.61-0.88-1.32-1.36-2.12
			c-0.63-1.05-1.31-2.24-1.94-3.53c-0.59-1.21-1.14-2.5-1.58-3.83c-0.1-0.28-0.19-0.57-0.27-0.85l-0.15-0.54
			c-0.19-0.68,0.13-1.32,0.67-1.64c0.37-0.23,0.87-0.29,1.34-0.09c0.07,0.03,0.14,0.06,0.22,0.09c1.64,0.72,3.18,1.6,4.16,2.15
			c0.5,0.27,0.97,0.58,1.44,0.88c0.99,0.64,1.93,1.33,2.79,2.08c0.64,0.53,1.24,1.1,1.81,1.7c2.43,2.58,4.25,5.74,5.34,9.12
			c0.14,0.44,0.27,0.89,0.38,1.35c0.15,0.59,0.27,1.18,0.38,1.77c0.1,0.52,0.17,1.03,0.23,1.54c0.12,1.14,1.04,2.66,0.01,2.17
			c-0.21-0.1-0.68-0.29-1.22-0.5c-1.04-0.39-2.35-0.89-2.74-1.11c-0.99-0.55-1.93-1.15-2.82-1.8c-0.05-0.04-0.1-0.07-0.15-0.11
			C141.7,55.41,140.33,54.2,139.12,52.86 M128.11,66.04c5.39-1.83,10.12-3.75,14.24-5.73c1.5,2.41,2.37,5.25,2.37,8.3
			c0,8.68-7.05,15.74-15.73,15.74c-0.29,0-0.59-0.01-0.88-0.03V66.04z M128.11,90.49v-3.16c0.29,0.01,0.58,0.02,0.88,0.02
			c10.33,0,18.73-8.41,18.73-18.74c0-2.35-0.44-4.61-1.24-6.69c1.28,0.61,2.55,1.12,3.8,1.55c0.4,1.65,0.61,3.37,0.61,5.14
			c0,12.08-9.82,21.9-21.9,21.9C128.7,90.51,128.4,90.5,128.11,90.49"/>
		<path class="st6" d="M176.31,147.02c0.13,4.09-0.12,8.27-0.38,12.32l-0.15,2.33c-0.02,0.44-0.07,0.96-0.13,1.5
			c-0.26,2.55-0.58,5.73,0.82,7.87c1.41,2.16,3.74,3.27,6.81,3.27c0.59,0,1.21-0.04,1.86-0.13c1.4-0.18,3.66-0.75,5.43-1.52
			c1.29-0.56,1.18-2.42-0.15-2.86c-0.01-0.01-0.02-0.01-0.05-0.01c-0.6,0-4.88,2.06-8.3,1.55c-1.47-0.21-2.51-0.83-3.19-1.87
			c-0.84-1.29-0.56-4.02-0.36-6.01c0.05-0.59,0.11-1.14,0.15-1.63l0.14-2.31c0.25-4.12,0.52-8.37,0.38-12.59
			c-0.3-8.96-3.41-16.75-8.64-21.74h0c-0.16-0.16-0.33-0.32-0.5-0.47c-0.4-0.36-0.8-0.7-1.22-1.02c-2.93-2.28-6.25-3.43-9.7-3.96
			c0.01-0.01,0.02-0.02,0.03-0.02l-13.18,0.12h-0.01l-2.5,0.03h-0.04l-2.48,0.02h-0.08c-0.26,0.01-0.5,0.01-0.75,0.02
			c0,0-3.7,0.04-6.99,0.07h-0.08c-0.56,0-1.11,0.01-1.63,0.01v2.87l2.39-0.02h0.01l0.44-0.01h0.08c0,0,0,0,0,0l5.81-0.05
			c2.03-0.01,4.16-0.15,6.23-0.28c1.75-0.12,3.52-0.22,5.28-0.27c1.54-0.04,3.07-0.04,4.57,0.06c3.95,0.29,7.69,1.24,10.84,3.69
			C172.63,130.31,176.01,137.97,176.31,147.02"/>
		<path class="st6" d="M191.05,183.21c-1.83-1.94-3.57-2.1-4.69-1.91c-1.6,0.28-2.85,1.41-3.74,2.54c-0.1,0.13-0.29,0.13-0.39,0
			c-0.89-1.13-2.14-2.26-3.74-2.54c-1.13-0.19-2.85-0.03-4.69,1.91c-2.65,2.8-6.32,2.4-8.16,1.95c-0.69-0.17-1.4,0.21-1.66,0.86
			c-0.08,0.17-0.11,0.36-0.11,0.54c0,0.65,0.45,1.24,1.12,1.41c0.85,0.2,2,0.39,3.27,0.39c2.4,0,5.26-0.67,7.63-3.17
			c0.77-0.8,1.47-1.16,2.1-1.05c1.32,0.22,2.54,2.2,3.01,3.13c0.06,0.13,0.2,0.18,0.32,0.12c0.35-0.16,0.73-0.23,1.1-0.23
			s0.75,0.07,1.1,0.23c0.04,0.02,0.07,0.03,0.11,0.03c0.09,0,0.18-0.06,0.22-0.15c0.46-0.93,1.69-2.91,3-3.13
			c0.63-0.11,1.34,0.25,2.1,1.05c2.37,2.5,5.24,3.17,7.63,3.17c1.28,0,2.42-0.19,3.28-0.39c0.86-0.21,1.34-1.13,1.01-1.95
			c-0.23-0.55-0.76-0.9-1.33-0.9c-0.11,0-0.22,0.01-0.33,0.04C197.36,185.61,193.7,186.01,191.05,183.21"/>
		<path class="st6" d="M192.53,192.23c-0.23,0-0.47,0.06-0.69,0.18c-7.26,3.91-16.08,1.03-19.26-0.24c-0.7-0.28-1.49,0.02-1.82,0.69
			v0.01c-0.38,0.75-0.05,1.66,0.73,1.98c2.22,0.91,6.75,2.45,11.86,2.45c3.21,0,6.65-0.61,9.88-2.36c0.73-0.41,0.96-1.36,0.49-2.07
			C193.45,192.46,193,192.23,192.53,192.23"/>
		<path class="st6" d="M262.76,188.32l-0.2,1.7l1.71-0.1c0.25-0.01,24.33-1.63,25.48-24.29h0.01c0-1.23-0.03-2.19-0.07-2.9
			c-0.9,0.13-1.78,0.28-2.66,0.47c-6.46,1.38-12.04,4.34-16.17,8.57C266.42,176.32,263.46,182.35,262.76,188.32 M286.82,166.2
			c-1.22,16.22-15.71,19.85-20.9,20.64c0.97-4.7,3.5-9.47,7-13.05C276.49,170.15,281.27,167.54,286.82,166.2"/>
		<path class="st6" d="M97.44,189.92l1.71,0.1l-0.2-1.7c-0.7-5.97-3.65-12-8.09-16.55c-4.13-4.23-9.72-7.19-16.17-8.57
			c-0.88-0.19-1.77-0.34-2.66-0.47c-0.05,0.71-0.07,1.67-0.08,2.9h0.01C73.11,188.29,97.2,189.91,97.44,189.92 M88.79,173.79
			c3.5,3.58,6.04,8.35,7,13.05c-5.19-0.79-19.67-4.42-20.9-20.64C80.44,167.54,85.23,170.15,88.79,173.79"/>
		<path class="st6" d="M99.15,191.11l-1.71,0.1c-0.24,0.01-24.33,1.63-25.48,24.29h-0.01c0.01,1.23,0.03,2.19,0.08,2.9
			c0.89-0.13,1.78-0.28,2.66-0.47c6.45-1.38,12.04-4.34,16.17-8.57c4.44-4.55,7.39-10.58,8.09-16.55L99.15,191.11z M88.79,207.34
			c-3.56,3.64-8.35,6.25-13.9,7.59c1.23-16.22,15.71-19.85,20.9-20.64C94.83,198.99,92.29,203.76,88.79,207.34"/>
		<path class="st6" d="M87.83,190.02l-1.38-1.01c-0.2-0.15-19.78-14.28-35.12,2.44l-0.01-0.01c-0.78,0.95-1.38,1.71-1.79,2.28
			c0.77,0.48,1.54,0.93,2.34,1.34c5.85,3.05,12.05,4.34,17.92,3.72c6.33-0.67,12.45-3.43,16.8-7.57L87.83,190.02z M69.49,195.91
			c-5.07,0.53-10.42-0.52-15.54-3.03c11.29-11.71,24.76-5.26,29.26-2.55C79.47,193.33,74.47,195.38,69.49,195.91"/>
		<path class="st6" d="M309.21,191.44c-15.36-16.7-34.92-2.58-35.12-2.43l-1.38,1.01l1.24,1.19c4.35,4.14,10.47,6.9,16.79,7.57
			c5.88,0.62,12.07-0.67,17.92-3.72c0.8-0.41,1.58-0.86,2.35-1.34C310.59,193.15,310,192.39,309.21,191.44 M291.05,195.91
			c-4.98-0.53-9.98-2.58-13.72-5.58c4.5-2.71,17.96-9.16,29.26,2.55C301.47,195.39,296.11,196.44,291.05,195.91"/>
		<path class="st6" d="M264.27,191.21l-1.71-0.1l0.2,1.7c0.7,5.97,3.66,12,8.1,16.55c4.13,4.23,9.71,7.19,16.17,8.57
			c0.88,0.19,1.76,0.34,2.66,0.47c0.04-0.71,0.07-1.67,0.07-2.9h-0.01C288.6,192.84,264.52,191.22,264.27,191.21 M272.92,207.34
			c-3.5-3.58-6.03-8.35-7-13.05c5.19,0.79,19.68,4.42,20.9,20.64C281.27,213.59,276.49,210.98,272.92,207.34"/>
		<path class="st6" d="M101.61,198.49l-1.23-1.2l-0.97,1.42c-3.38,4.97-5.09,11.46-4.72,17.8c0.35,5.9,2.63,11.8,6.6,17.07
			c0.54,0.72,1.11,1.42,1.71,2.1c0.49-0.5,1.14-1.21,1.95-2.15h-0.01C118.92,215.66,101.78,198.66,101.61,198.49 M97.57,216.34
			c-0.29-4.99,0.91-10.26,3.26-14.44c3.41,3.99,11.98,16.22,2.27,29.28C99.79,226.54,97.88,221.43,97.57,216.34"/>
		<path class="st6" d="M260.91,198.49l-1.23-1.2l-0.97,1.42c-3.38,4.97-5.09,11.46-4.72,17.8c0.35,5.9,2.63,11.8,6.6,17.07
			c0.54,0.72,1.11,1.42,1.71,2.1c0.49-0.5,1.14-1.21,1.95-2.15h-0.01C278.22,215.66,261.08,198.66,260.91,198.49 M262.4,231.18
			c-3.31-4.64-5.22-9.75-5.53-14.84c-0.29-4.99,0.91-10.26,3.26-14.44C263.54,205.89,272.1,218.12,262.4,231.18"/>
		<rect x="124.91" y="89.99" class="st6" width="3.21" height="32.04"/>
		<rect x="236.45" y="89.99" class="st6" width="3.21" height="32.04"/>
		<path class="st6" d="M192.6,106.11c-2.57-0.31-4.49-1.58-5.47-3.98c-0.45-1.1-0.63-2.31-0.88-3.48c-0.26-1.21-0.54-2.41-1.18-3.49
			c-0.97-1.63-2.61-2.08-4.22-1.13c0.17,0.21,0.34,0.42,0.52,0.63c3.23,3.91,4.81,8.38,4.47,13.46c-0.25,3.72-1.56,7.09-3.59,10.2
			c-0.52,0.79-1.11,1.53-1.68,2.29c-0.09,0.13-0.21,0.23-0.33,0.37c-1.09-1.23-1.99-2.53-2.78-3.92c-1.83-3.23-2.9-6.68-2.86-10.42
			c0.05-4.47,1.6-8.4,4.41-11.86c0.2-0.25,0.41-0.49,0.61-0.73c-1.19-0.82-2.74-0.64-3.68,0.42c-0.98,1.1-1.33,2.47-1.64,3.85
			c-0.26,1.17-0.41,2.39-0.82,3.51c-0.89,2.43-2.71,3.83-5.24,4.32c-0.11,0.02-0.22,0.02-0.34,0.03c0-0.04-0.01-0.09,0-0.09
			c1.45-0.89,2.35-2.23,2.91-3.78c0.58-1.58,1.03-3.21,1.55-4.81c0.24-0.73,0.47-1.48,0.82-2.16c0.84-1.64,2.16-2.69,4.01-2.99
			c0.9-0.15,1.72,0.09,2.47,0.59c0.2,0.13,0.38,0.28,0.56,0.41c0.04-0.01,0.06-0.01,0.07-0.02c1.94-1.74,4.25-1.05,5.85,0.42
			c0.83,0.76,1.32,1.73,1.66,2.78c0.55,1.74,1.06,3.5,1.65,5.23c0.48,1.41,1.17,2.71,2.33,3.71
			C192.04,105.71,192.32,105.9,192.6,106.11 M180.23,95.61c-4.28,6.04-4.43,14.06-0.01,19.95
			C184.52,110.06,184.69,101.78,180.23,95.61"/>
		<path class="st6" d="M189.69,97.65c2.86-0.19,5.06,1.13,6.11,3.65c0.41,1,0.71,2.04,1.01,3.09c0.6,2.12,1.12,4.26,2.39,6.12
			c-0.89-0.38-1.6-0.96-2.23-1.66c-0.99-1.1-1.57-2.42-2.09-3.79c-0.26-0.7-0.52-1.41-0.78-2.11
			C193.26,100.72,192.01,98.84,189.69,97.65"/>
		<path class="st6" d="M161.31,110.51c1.5-2.21,1.97-4.8,2.69-7.28c0.41-1.4,0.88-2.77,1.92-3.86c1.28-1.34,2.92-1.72,4.73-1.75
			c-0.04,0.08-0.05,0.12-0.07,0.14c-2.12,1.14-3.35,3-4.18,5.19c-0.51,1.34-1,2.69-1.6,3.99
			C164.08,108.51,162.92,109.73,161.31,110.51"/>
	</g>
</g>
</svg>
