<?xml version="1.0" encoding="utf-8"?>
<!-- Generator: Adobe Illustrator 25.2.1, SVG Export Plug-In . SVG Version: 6.00 Build 0)  -->
<svg version="1.1" xmlns="http://www.w3.org/2000/svg" xmlns:xlink="http://www.w3.org/1999/xlink" x="0px" y="0px"
	 viewBox="0 0 126.1 79.4" style="enable-background:new 0 0 126.1 79.4;" xml:space="preserve">
<style type="text/css">
	.st0{clip-path:url(#SVGID_16_);}
	.st1{clip-path:url(#SVGID_18_);}
	.st2{fill:#FBEDE2;}
	.st3{fill:#FCEEE3;}
	.st4{fill:#F9EBE0;}
	.st5{fill:#E3EDE2;}
	.st6{fill:#EDF1F4;}
	.st7{fill:#FFFFFF;}
	.st8{fill:#FAECE1;}
	.st9{fill:#174C1E;}
	.st10{fill:#D8A995;}
	.st11{fill:#F6E5DA;}
	.st12{fill:#F3E4D7;}
	.st13{fill:#E4AFB4;}
	.st14{fill:#F69B9A;}
	.st15{fill:#E6EFE3;}
	.st16{fill:#0C5B47;}
	.st17{opacity:0.51;}
	.st18{fill:#697B4C;}
	.st19{fill:#38522A;}
	.st20{fill:#8A9971;}
	.st21{fill:#BAC69E;}
	.st22{fill:#D1DCBB;}
	.st23{fill:#FCFCFC;}
	.st24{fill:#ADADAD;}
	.st25{opacity:0.62;}
	.st26{fill:#FADCDB;}
	.st27{fill:#F9C7C8;}
	.st28{fill:#F9D4D6;}
	.st29{fill:#F6BFCC;}
	.st30{fill:#F7C9D3;}
	.st31{fill:#584F36;}
	.st32{fill:#F0909B;}
	.st33{fill:#F8B6BF;}
	.st34{fill:#F59EA6;}
	.st35{fill:#F6ACB3;}
	.st36{fill:#F9BFC5;}
	.st37{fill:#EC7D87;}
	.st38{fill:#E0647E;}
	.st39{fill:#CD4966;}
	.st40{fill:#B31D42;}
	.st41{fill:#FBEDE3;}
	.st42{opacity:0.32;}
	.st43{fill:#F9E6EB;}
	.st44{fill:#F4C6D6;}
	.st45{fill:#F1B2CA;}
	.st46{fill:#F7D8E5;}
	.st47{fill:#E58024;}
	.st48{fill:#828051;}
	.st49{fill:#CE9084;}
	.st50{fill:#F5EFE9;}
	.st51{fill:#F3E2DB;}
	.st52{fill:#DDC4B8;}
	.st53{fill:#E4D8CD;}
	.st54{fill:#E0D0C4;}
	.st55{fill:#E7DFD5;}
	.st56{fill:#D8A897;}
	.st57{fill:#EACEC4;}
	.st58{fill:#D8BCAA;}
	.st59{fill:#EAD8D0;}
	.st60{fill:#D9B4A1;}
	.st61{fill:#CD8079;}
	.st62{fill:#C56B5C;}
	.st63{fill:#E2E3DC;}
	.st64{fill:#DCDCDC;}
	.st65{fill:#D7D6D2;}
	.st66{fill:#CAC5B8;}
	.st67{fill:#B3ABA1;}
	.st68{fill:#C0BFBB;}
	.st69{fill:#CCC8C5;}
	.st70{fill:#D4D1CB;}
	.st71{fill:#EBEBEA;}
	.st72{fill:#E5E4E4;}
	.st73{fill:#EACB77;}
	.st74{fill:#F0F0EF;}
	.st75{fill:#D6B13C;}
	.st76{fill:#DEBF0B;}
	.st77{fill:#AA8811;}
	.st78{clip-path:url(#SVGID_41_);fill:#F7E5D9;}
	.st79{clip-path:url(#SVGID_41_);}
	.st80{fill:#A5AF76;}
	.st81{opacity:0.7;}
	.st82{fill:#DB6491;}
	.st83{fill:#CDD799;}
	.st84{fill:#7A8443;}
	.st85{fill:#FBCEE0;}
	.st86{fill:#ACB373;}
	.st87{fill:#FAC9DD;}
	.st88{fill:#E2739A;}
	.st89{fill:#F494B4;}
	.st90{fill:#EE86A9;}
	.st91{fill:#F5A0BD;}
	.st92{fill:#FBC2D7;}
	.st93{fill:#F7A7C3;}
	.st94{fill:#F9B5CF;}
	.st95{fill:#FBDBE9;}
	.st96{fill:#FCE7F0;}
	.st97{fill:#F5EAE2;}
	.st98{fill:#F7F1ED;}
	.st99{fill:#F5EEE8;}
	.st100{fill:#F4E6DD;}
	.st101{fill:#F3E1D6;}
	.st102{fill:#F0DDD1;}
	.st103{fill:#F1D4C4;}
	.st104{fill:#F1CEBA;}
	.st105{fill:#ECC1AB;}
	.st106{fill:#E4AA8A;}
	.st107{fill:#E9BDA1;}
	.st108{fill:#F7EDEE;}
	.st109{fill:#D28D62;}
	.st110{fill:#FDFDFD;}
	.st111{fill:#F0D1D5;}
	.st112{fill:#D3926C;}
	.st113{fill:#E39E50;}
	.st114{fill:#F6CD7C;}
	.st115{fill:#1B745E;}
	.st116{fill:#FF0000;}
	.st117{display:none;}
	.st118{display:inline;fill:none;stroke:#EB1C24;stroke-miterlimit:10;}
</style>
<g id="Layer_1">
	<g>
		<path class="st15" d="M126,35.5L126,35.5c-0.1-0.1-0.2-0.1-0.3,0c-0.2,0.2-0.5,0.3-0.7,0.5c-3.1,2.9-6.7,4.9-11,5.5
			c-2.3,0.3-3.9-0.8-4.1-3c-0.1-1.1,0.2-2.3,0.7-3.3c0.9-2.1,2-4,3.1-6c0.6-1.2,0.7-1.2-0.3-2.1c-0.1-0.1-0.2-0.3-0.3-0.4
			c-0.8-1-1.8-1.4-2.9-0.9c-1.4,0.5-2.9,1-3.9,2c-2.4,2.2-4.5,4.7-6.8,7c-1.7,1.7-3.6,3.2-5.4,4.7c-0.3,0.3-1,0.4-1.3,0.2
			c-0.2-0.1-0.2-0.8-0.3-1.2c0-0.1,0-0.2,0.1-0.4c0.7-2.2,1.5-4.5,2.3-6.7c0.1-0.3,0.3-0.5,0.5-0.7c2-1.9,4.1-3.7,6-5.7
			c4-4.1,7.5-8.6,10.8-13.4c1.4-2.1,2.6-4.3,3.3-6.7c0.2-0.8,0.5-1.8-0.3-2.4c-0.8-0.7-1.6-0.1-2.4,0.3c-2.8,1.4-4.9,3.5-6.7,5.9
			c-2.3,3.1-4.4,6.4-6.5,9.6c-2.4,3.7-4.3,7.7-6,11.7c-0.4,0.8-0.7,1.8-1.3,2.5c-1.5,1.8-3.1,3.5-4.8,5.1c-0.8,0.8-1.8,1.5-2.7,2.2
			c-0.3,0.2-0.7,0.2-1,0.2c-0.1,0-0.2-0.1-0.2-0.2c-0.1-0.4-0.2-0.7-0.1-1c0.7-1.7,1.3-3.4,2.2-5c1.1-2,2.3-3.9,3.4-5.9
			c0.1-0.2,0.1-0.6,0-1c0-0.1-0.1-0.2-0.2-0.2c-0.3,0.1-0.7,0.2-1,0.3c-0.1,0-0.2,0.2-0.3,0.3c-2,2.3-3.9,4.7-5.9,6.9
			c-1.7,1.9-3.5,3.8-5.9,5.1c-1.7,0.9-3.3,0.6-3.6-1c-0.2-0.8,0.1-1.8,0.4-2.7c0.1-0.3,0.8-0.5,1.2-0.7c1.9-1.1,3.8-2,5.5-3.2
			c1.2-0.8,2.2-2,2.6-3.4c0.3-1.1-0.4-2.2-1.6-2.2c-0.5,0-1.1,0.1-1.5,0.3c-2.6,1.1-4.6,2.9-6.3,5.1c-2.1,2.8-4.2,5.6-7.3,7.5
			c-0.4,0.2-0.8,0.4-1.2,0.5c-0.1,0-0.3,0-0.3-0.2c0-0.5,0-1,0.1-1.4c0.7-1.7,1.5-3.3,2.3-5c0.7-1.7,1.5-3.4,2-5.2
			c0.4-1.2-0.5-1.9-1.7-1.4c-0.8,0.3-1.5,0.7-2.2,1.1c-3,1.9-5.5,4.4-7.9,7c-0.1,0.1-0.2,0.2-0.2,0.3c-0.1,0.2-0.4,0-0.3-0.2
			c0.4-0.8,0.8-1.6,1.3-2.3c1.4-2.3,2.5-4.8,4.8-6.6c3-2.4,5.7-5,8.1-8c2.4-3,4.6-6,6.2-9.5c0.5-1,0.7-2.2,1-3.3
			c0.2-0.8-0.1-1.6-0.8-1.9c-0.5-0.2-1.3,0-1.8,0.2c-0.6,0.3-1.3,0.7-1.7,1.2C70.5,6.6,68.5,8.6,67,11c-3.4,5.5-6.5,11.1-9.7,16.6
			c-0.4,0.8-0.9,1.4-1.7,1.8c-0.6,0.3-1.1,0.7-1.7,1c-0.9,0.5-1.8,0.9-2.7,1.3c-0.1,0.1-0.3,0-0.3-0.2c0.1-1.1,0.3-2,0.3-2.9
			c0-2.1-1.6-3.1-3.5-2.2c-2.6,1.1-4.5,3-6.1,5.3c-1.4,2-2.1,4.1-2.2,6.5c0,1.9,1.6,3.1,3.4,2.6c0.8-0.2,1.6-0.6,2.3-1.1
			c2-1.4,3.3-3.4,4.5-5.5c0.5-1,1.1-1.8,2.3-2.1c1.1-0.3,2.1-0.9,3.2-1.4c0.2-0.1,0.3,0.1,0.3,0.3c-0.1,0.2-0.2,0.4-0.3,0.6
			c-1.3,2.5-2.6,5-3.9,7.5c-0.2,0.4-0.2,1.2,0,1.5c0.5,0.5,1.1,0,1.6-0.4c0.1-0.1,0.2-0.3,0.3-0.4c3-4.6,6.9-8.2,11.2-11.4
			c0.4-0.3,0.8-0.5,1.2-0.6c0.2,0.2,0.3,0.2,0.5,0.4c-0.1,0.2-0.1,0.4-0.2,0.6c-0.8,1.6-1.7,3.2-2.5,4.9c-0.8,1.6-1.7,3.2-1.8,5
			c0,1.9,1.3,2.7,3,1.7c0.5-0.3,1-0.7,1.5-1.1c1.2-1,2.3-2,3.4-3c0.1-0.1,0.3,0,0.3,0.2c-0.1,0.6-0.2,1.2-0.1,1.7
			c0.4,2.6,2.8,3.7,5.4,2.6c2-0.9,3.5-2.5,5.1-4c0.8-0.7,1.6-1.4,2.4-2c0.1-0.2,0.1-0.4,0.2-0.7c0-0.1,0.2-0.2,0.3-0.1l0,0
			c0.1,0.1,0.1,0.2,0,0.3c-0.2,0.1-0.4,0.3-0.5,0.4c-0.4,1.2-0.8,2.4-1.1,3.7c-0.2,0.9,0,1.8,0.9,2.3c0.8,0.5,1.7,0.4,2.4-0.2
			c1.3-1,2.5-1.9,3.6-3c1-0.9,1.8-1.9,2.7-2.9c0.1-0.1,0.4,0,0.3,0.2c-0.2,1.1-0.4,2.1-0.6,3.2c-0.2,1-0.1,1.9,0.8,2.5
			c0.9,0.6,1.8,0.2,2.7-0.2c0.1-0.1,0.3-0.1,0.4-0.3c1.4-1.2,2.9-2.4,4.3-3.7c0.2-0.2,0.4-0.4,0.7-0.6c0.1-0.1,0.4,0,0.3,0.2
			c-0.2,0.9-0.5,1.9-0.6,2.9c-0.2,1.3,0.9,2,2.1,1.6c0.5-0.1,0.9-0.4,1.3-0.7c1-0.8,2-1.5,2.9-2.4c0.9-0.8,1.8-1.8,2.7-2.7
			c0.1-0.1,0.4,0,0.3,0.2c-0.2,0.9-0.5,1.7-0.6,2.6c-0.4,2.3,0.9,4.5,2.7,4.9c1.1,0.2,2.3,0.3,3.4,0.2c4.5-0.4,8-2.9,11.2-5.8
			c0.2-0.2,0.4-0.6,0.5-0.9C126.1,35.7,126.1,35.6,126,35.5z M97.4,25.2c2.6-5.2,5.3-10.3,8.9-14.9c1.7-2.2,3.4-4.3,5.6-5.9
			c0.5-0.4,1.1-0.7,1.7-1c0.2-0.1,0.4-0.1,0.6-0.1c0.1,0,0.2,0.1,0.2,0.2c0,0.2,0.1,0.4,0,0.6c-0.6,1.6-1.2,3.2-2,4.7
			c-2.3,4.1-5.1,7.9-8.3,11.4c-2.6,2.8-5.3,5.5-7.9,8.2c-0.1,0.1-0.1,0.1-0.5,0.2C96.4,27.4,96.9,26.3,97.4,25.2z M73.2,33.8
			c1.6-2.6,3.3-5.1,6.1-6.4c0.2-0.1,0.5-0.1,0.8,0c0.1,0,0.2,0.1,0.2,0.2c0,0.3,0.1,0.7-0.1,0.9c-0.7,0.9-1.4,1.9-2.2,2.7
			c-1.3,1.3-2.9,2.3-4.6,3C73.3,34.1,73.1,34,73.2,33.8z M71.1,7.5c0.9-1.1,1.9-2.2,3-3.2c0.3-0.3,0.7-0.3,1.1-0.4
			c0.1,0,0.2,0,0.2,0.1c0.1,0.4,0.3,0.8,0.2,1.2c-0.5,2.6-1.9,4.9-3.3,7.1c-2.8,4.4-6.2,8.3-10.1,11.7c-0.2,0.2-0.4,0.4-0.6,0.5
			c-0.3-0.2-0.2-0.2-0.5-0.4C64.2,18.5,67,12.6,71.1,7.5z M49.3,33.1c-0.9,1.4-1.6,2.7-2.5,3.9c-0.7,0.9-1.6,1.7-2.5,2.5
			c-0.7,0.6-1.5,0.9-2.4,0.4c-0.8-0.5-0.8-1.3-0.7-2.2c0.3-2.5,2.3-6.5,4.2-8.2c0.1-0.1,0.3,0,0.3,0.1c0.1,2.2,1,3,3.5,3.2
			C49.3,32.8,49.4,33,49.3,33.1z M50.4,29.4c-0.1,0.4-0.1,0.9-0.2,1.4c-0.4,1.4-0.7,1.6-2.1,1.3c-1.1-0.3-1.7-1.2-1.4-2.3
			c0.3-0.8,0.7-1.6,1.3-2.2c0.3-0.3,1-0.6,1.3-0.4c0.4,0.2,0.7,0.8,0.9,1.2C50.4,28.6,50.3,28.9,50.4,29.4
			C50.4,29.4,50.4,29.4,50.4,29.4z M106.6,35.4c-1.3,1.3-2.5,2.6-4.2,3.3c-0.2,0.1-0.5,0.1-0.8,0.1c-0.1,0-0.2-0.1-0.2-0.2
			c0-0.3-0.1-0.5,0-0.8c1.5-4.6,4.2-8.2,8.4-10.6c0.4-0.3,0.9-0.4,1.2-0.5c0,0,0,0,0.1,0c1.3,0,1.7,0.7,1.2,1.6
			C110.8,31.1,108.7,33.2,106.6,35.4z"/>
		<path class="st15" d="M27.1,38.3c0,0.1-0.1,0.1-0.2,0.1c-0.2,0-0.4,0-0.6-0.1c-6.3-3-12-1.5-17.2,2.4c-4,3-6.7,6.9-7.4,12
			c-0.7,5.5,2.7,10.2,8.3,10.9c6.7,0.8,12.2-1.6,17.1-6c3.6-3.2,5.9-7.2,7-11.9c0.9-4.1,0.3-8-1.5-11.8c-1.2-2.5-2.6-4.8-3.8-7.2
			c-1-2-2-4.1-2.6-6.2C24.7,15.8,26,11.6,29,8c3.7-4.5,8.4-7.2,14.2-7.9C45-0.1,46.8,0,48.4,1c2.3,1.5,2.8,3.7,2.2,6.2
			c-1.3,5.4-4.6,9.2-9.8,11.3c-0.2,0.1-0.3,0.1-0.6,0c0.6-0.5,1.3-0.9,1.9-1.4c2.5-1.7,4.4-3.8,5.9-6.4c1-1.7,1.6-3.6,1.6-5.7
			c-0.1-2.5-2.1-4.2-4.9-4.3c-2.4-0.1-4.7,0.7-6.8,1.7c-3.6,1.7-6.6,4.1-8.6,7.6c-2.3,3.9-2.5,8-0.6,12.1c1.3,2.8,2.9,5.4,4.4,8.1
			c1.8,3.4,3.2,6.9,3.2,10.8c0,3.3-0.8,6.5-2.3,9.4c-1.8,3.3-3.9,6.3-7,8.6c-3.7,2.8-7.7,4.7-12.3,5.2c-3.3,0.4-6.5,0.1-9.5-1.4
			c-2.3-1.2-3.8-3.2-4.5-5.8c-1.2-4.2-0.3-8.1,2-11.6c3.4-5.4,8.3-8.8,14.6-9.9c3.1-0.5,6,0,8.8,1.5c0.4,0.2,0.7,0.5,1,0.8
			C27.1,38.1,27.1,38.2,27.1,38.3L27.1,38.3z"/>
		<path class="st15" d="M50.8,79.3c0,0.1-0.2,0.2-0.3,0.1c-0.5-0.4-0.4-1-0.3-1.5c0.4-1.3,0.8-2.5,1.5-3.7c2-3.2,4.7-5.7,7.7-8
			c5.3-4,11.2-6.7,17.4-9c5.7-2.1,11.6-3.5,17.7-4.3c4.3-0.6,8.6-1,12.9-0.9c0.4,0,0.8-0.2,1.3-0.3c0.1,0,0.2-0.2,0.1-0.3
			c-0.3-0.3-0.6-0.7-0.9-0.9c-2.1-1.2-4.5-1.6-6.8-2c-5.6-1-11.2-1.2-16.9-0.9c-6.5,0.4-13,1.3-19.4,2.8c-5.2,1.2-10.4,2.7-15.3,4.8
			c-4.5,1.9-8.8,4-12.7,6.9c-2.1,1.5-4.2,3.1-5.5,5.3c-0.6,1-1.1,2.1-1.5,3.2c-0.1,0.1-0.2,0.1-0.3,0c-0.3-0.3-0.3-0.8,0-1.6
			c0.9-2.3,2.3-4.1,4.2-5.7c5.4-4.6,11.7-7.7,18.3-10.2c6.9-2.6,14.1-4.4,21.3-5.5c7.4-1.1,14.9-1.6,22.4-0.9
			c4,0.4,8.1,0.7,11.9,2.4c0.9,0.4,1.7,1,2.4,1.6c0.9,0.8,0.6,1.7-0.5,1.9c-1.2,0.2-2.4,0.2-3.6,0.2c-2.4,0.1-4.8,0.1-7.2,0.3
			c-6.1,0.5-12,1.8-17.8,3.6C75.2,58.7,70,61,65,63.8c-3.9,2.2-7.6,4.9-10.4,8.4c-1.3,1.6-2.2,3.5-3.3,5.4
			C51,78.1,50.9,78.7,50.8,79.3z"/>
		<path class="st15" d="M91.3,21.8c-0.2,0.2-0.6,0.2-0.8,0c-0.2-0.2-0.4-0.3-0.4-0.4c-0.1-0.4,0.9-1.1,1.4-1c0,0,0.1,0,0.1,0
			c0.5,0.2,0.5,0.8,0.2,1.1C91.7,21.6,91.5,21.7,91.3,21.8z"/>
	</g>
</g>
<g id="Layer_2">
</g>
<g id="GUIDE" class="st117">
</g>
</svg>
