<?xml version="1.0" encoding="utf-8"?>
<!-- Generator: Adobe Illustrator 25.2.1, SVG Export Plug-In . SVG Version: 6.00 Build 0)  -->
<svg version="1.1" xmlns="http://www.w3.org/2000/svg" xmlns:xlink="http://www.w3.org/1999/xlink" x="0px" y="0px"
	 viewBox="0 0 304.5 146.2" style="enable-background:new 0 0 304.5 146.2;" xml:space="preserve">
<style type="text/css">
	.st0{clip-path:url(#SVGID_16_);}
	.st1{clip-path:url(#SVGID_18_);}
	.st2{fill:#FBEDE2;}
	.st3{fill:#FCEEE3;}
	.st4{fill:#F9EBE0;}
	.st5{fill:#E3EDE2;}
	.st6{fill:#EDF1F4;}
	.st7{fill:#FFFFFF;}
	.st8{fill:#FAECE1;}
	.st9{fill:#174C1E;}
	.st10{fill:#D8A995;}
	.st11{fill:#F6E5DA;}
	.st12{fill:#F3E4D7;}
	.st13{fill:#E4AFB4;}
	.st14{fill:#F69B9A;}
	.st15{fill:#E6EFE3;}
	.st16{fill:#0C5B47;}
	.st17{opacity:0.51;}
	.st18{fill:#697B4C;}
	.st19{fill:#38522A;}
	.st20{fill:#8A9971;}
	.st21{fill:#BAC69E;}
	.st22{fill:#D1DCBB;}
	.st23{fill:#FCFCFC;}
	.st24{fill:#ADADAD;}
	.st25{opacity:0.62;}
	.st26{fill:#FADCDB;}
	.st27{fill:#F9C7C8;}
	.st28{fill:#F9D4D6;}
	.st29{fill:#F6BFCC;}
	.st30{fill:#F7C9D3;}
	.st31{fill:#584F36;}
	.st32{fill:#F0909B;}
	.st33{fill:#F8B6BF;}
	.st34{fill:#F59EA6;}
	.st35{fill:#F6ACB3;}
	.st36{fill:#F9BFC5;}
	.st37{fill:#EC7D87;}
	.st38{fill:#E0647E;}
	.st39{fill:#CD4966;}
	.st40{fill:#B31D42;}
	.st41{fill:#FBEDE3;}
	.st42{opacity:0.32;}
	.st43{fill:#F9E6EB;}
	.st44{fill:#F4C6D6;}
	.st45{fill:#F1B2CA;}
	.st46{fill:#F7D8E5;}
	.st47{fill:#E58024;}
	.st48{fill:#828051;}
	.st49{fill:#CE9084;}
	.st50{fill:#F5EFE9;}
	.st51{fill:#F3E2DB;}
	.st52{fill:#DDC4B8;}
	.st53{fill:#E4D8CD;}
	.st54{fill:#E0D0C4;}
	.st55{fill:#E7DFD5;}
	.st56{fill:#D8A897;}
	.st57{fill:#EACEC4;}
	.st58{fill:#D8BCAA;}
	.st59{fill:#EAD8D0;}
	.st60{fill:#D9B4A1;}
	.st61{fill:#CD8079;}
	.st62{fill:#C56B5C;}
	.st63{fill:#E2E3DC;}
	.st64{fill:#DCDCDC;}
	.st65{fill:#D7D6D2;}
	.st66{fill:#CAC5B8;}
	.st67{fill:#B3ABA1;}
	.st68{fill:#C0BFBB;}
	.st69{fill:#CCC8C5;}
	.st70{fill:#D4D1CB;}
	.st71{fill:#EBEBEA;}
	.st72{fill:#E5E4E4;}
	.st73{fill:#EACB77;}
	.st74{fill:#F0F0EF;}
	.st75{fill:#D6B13C;}
	.st76{fill:#DEBF0B;}
	.st77{fill:#AA8811;}
	.st78{clip-path:url(#SVGID_41_);fill:#F7E5D9;}
	.st79{clip-path:url(#SVGID_41_);}
	.st80{fill:#A5AF76;}
	.st81{opacity:0.7;}
	.st82{fill:#DB6491;}
	.st83{fill:#CDD799;}
	.st84{fill:#7A8443;}
	.st85{fill:#FBCEE0;}
	.st86{fill:#ACB373;}
	.st87{fill:#FAC9DD;}
	.st88{fill:#E2739A;}
	.st89{fill:#F494B4;}
	.st90{fill:#EE86A9;}
	.st91{fill:#F5A0BD;}
	.st92{fill:#FBC2D7;}
	.st93{fill:#F7A7C3;}
	.st94{fill:#F9B5CF;}
	.st95{fill:#FBDBE9;}
	.st96{fill:#FCE7F0;}
	.st97{fill:#F5EAE2;}
	.st98{fill:#F7F1ED;}
	.st99{fill:#F5EEE8;}
	.st100{fill:#F4E6DD;}
	.st101{fill:#F3E1D6;}
	.st102{fill:#F0DDD1;}
	.st103{fill:#F1D4C4;}
	.st104{fill:#F1CEBA;}
	.st105{fill:#ECC1AB;}
	.st106{fill:#E4AA8A;}
	.st107{fill:#E9BDA1;}
	.st108{fill:#F7EDEE;}
	.st109{fill:#D28D62;}
	.st110{fill:#FDFDFD;}
	.st111{fill:#F0D1D5;}
	.st112{fill:#D3926C;}
	.st113{fill:#E39E50;}
	.st114{fill:#F6CD7C;}
	.st115{fill:#1B745E;}
	.st116{display:none;}
	.st117{display:inline;fill:none;stroke:#EB1C24;stroke-miterlimit:10;}
</style>
<g id="Layer_1">
	<g>
		<g>
			<g>
				<path class="st2" d="M279.1,76.2h-17.4c-6,0-11.5,3.2-14.5,8.3l-8.7,15.1c-3,5.2-3,11.5,0,16.7l8.7,15.1c3,5.2,8.5,8.3,14.5,8.3
					h17.4c6,0,11.5-3.2,14.5-8.3l8.7-15.1c3-5.2,3-11.5,0-16.7l-8.7-15.1C290.6,79.4,285.1,76.2,279.1,76.2z"/>
				<g>
					<g>
						<path class="st16" d="M225.6,128.3v10.2l5.2,0v1h-11.4v-1h5.1v-10.2H225.6z"/>
						<path class="st16" d="M215.4,128.3v11.2h-1.1v-5h-7.7v5h-1.1v-11.2h1.1v5.2l7.7,0v-5.2H215.4z"/>
						<path class="st16" d="M200.2,128.3v11.2h-9.9v-1l8.8,0v-4.1h-7.5v-0.9l7.5,0v-4.3h-8.8v-1H200.2z"/>
						<path class="st16" d="M179,128.3v11.2h-1.1v-10.2h-8.4v-1H179z"/>
						<path class="st16" d="M161,128c0.8,0,1.5,0.1,2.1,0.4c0.7,0.2,1.2,0.6,1.8,1.1c0.5,0.5,0.9,1,1.2,1.8c0.3,0.7,0.4,1.5,0.4,2.4
							v5.8h-1.1v-5.8c0-0.7-0.1-1.4-0.3-2c-0.2-0.6-0.5-1.1-0.9-1.5c-0.4-0.4-0.9-0.7-1.4-0.9s-1.1-0.3-1.8-0.3
							c-0.8,0-1.6,0.2-2.3,0.5c-0.7,0.4-1.2,0.9-1.6,1.6c-0.4,0.7-0.6,1.5-0.6,2.5v5.8h-1.1v-5.8c0-0.9,0.1-1.7,0.4-2.4
							c0.3-0.7,0.7-1.3,1.2-1.8c0.5-0.5,1.1-0.8,1.8-1.1C159.5,128.2,160.2,128,161,128z"/>
						<path class="st16" d="M152.3,128.3l-4.8,5.8l4.3,5.4h-1.3l-3.7-4.7l-4,4.7h-1.3l4.6-5.4l-4.7-5.8h1.3l4.1,5.1l4.1-5.1H152.3z"
							/>
						<path class="st16" d="M137.5,128.3v11.2h-9.9v-1l8.8,0v-4.1h-7.5v-0.9l7.5,0v-4.3h-8.8v-1H137.5z"/>
						<path class="st16" d="M116.3,128.3v11.2h-6.5c-1.2,0-2.1-0.2-2.7-0.7c-0.6-0.5-0.9-1.2-0.9-2.2c0-0.7,0.2-1.3,0.5-1.8
							s0.8-0.8,1.4-0.8c-0.7-0.1-1.3-0.4-1.7-0.8c-0.4-0.4-0.6-1-0.6-1.7c0-1.1,0.3-1.9,1-2.4c0.7-0.5,1.7-0.7,3-0.7H116.3z
							 M115.3,129.2h-5.5c-1,0-1.8,0.2-2.3,0.5s-0.7,0.9-0.7,1.7c0,0.4,0.1,0.8,0.4,1.1c0.2,0.3,0.5,0.6,0.9,0.7s0.7,0.2,1.1,0.2
							l6.1,0V129.2z M115.3,134.4h-6.1c-0.6,0-1.1,0.2-1.5,0.6c-0.4,0.4-0.6,0.9-0.6,1.6c0,0.7,0.2,1.2,0.7,1.5s1.1,0.4,2,0.4l5.5,0
							V134.4z"/>
						<path class="st16" d="M101.3,128.3v11.2h-1.1v-10.2h-8.4v-1H101.3z"/>
						<path class="st16" d="M82.9,128c1.2,0,2.3,0.3,3.3,0.8c1,0.5,1.7,1.2,2.2,2.1c0.5,0.9,0.8,1.9,0.8,3s-0.3,2.1-0.8,3
							c-0.5,0.9-1.3,1.6-2.2,2.1c-1,0.5-2.1,0.7-3.3,0.7c-1.2,0-2.3-0.2-3.3-0.7c-1-0.5-1.7-1.2-2.3-2.1c-0.5-0.9-0.8-1.9-0.8-3
							c0-1.1,0.3-2.1,0.8-3c0.5-0.9,1.3-1.6,2.3-2.1C80.5,128.2,81.6,128,82.9,128z M86.7,130.3c-1-0.9-2.3-1.4-3.8-1.4
							s-2.9,0.5-3.9,1.4c-1,0.9-1.5,2.1-1.5,3.6s0.5,2.6,1.5,3.5c1,0.9,2.3,1.3,3.9,1.3c1.6,0,2.9-0.4,3.8-1.3
							c1-0.9,1.5-2.1,1.5-3.5S87.7,131.2,86.7,130.3z"/>
						<path class="st16" d="M66.4,128c1.2,0,2.3,0.3,3.3,0.8c1,0.5,1.7,1.2,2.2,2.1c0.5,0.9,0.8,1.9,0.8,3s-0.3,2.1-0.8,3
							c-0.5,0.9-1.3,1.6-2.2,2.1c-1,0.5-2.1,0.7-3.3,0.7c-1.2,0-2.3-0.2-3.3-0.7c-1-0.5-1.7-1.2-2.3-2.1c-0.5-0.9-0.8-1.9-0.8-3
							c0-1.1,0.3-2.1,0.8-3c0.5-0.9,1.3-1.6,2.3-2.1C64.1,128.2,65.2,128,66.4,128z M70.3,130.3c-1-0.9-2.3-1.4-3.8-1.4
							s-2.9,0.5-3.9,1.4c-1,0.9-1.5,2.1-1.5,3.6s0.5,2.6,1.5,3.5c1,0.9,2.3,1.3,3.9,1.3c1.6,0,2.9-0.4,3.8-1.3
							c1-0.9,1.5-2.1,1.5-3.5S71.2,131.2,70.3,130.3z"/>
						<path class="st16" d="M56.3,128.2l-3,10.8l-1.5-0.4l-2.9-9.5l-7.3,6.7l-1.5-0.4l3-10.8l1,0.3l-2.7,9.6l8-7.1l3.2,10.2l2.7-9.6
							L56.3,128.2z"/>
						<path class="st16" d="M22.2,108l-8.1,6.2l3.1,4.1l-0.8,0.6l-6.9-9.1l0.8-0.6l3.1,4.1l8.1-6.2L22.2,108z"/>
						<path class="st16" d="M16.8,99.9L6.4,104L6,103l4.7-1.8L7.9,94l-4.7,1.8l-0.4-1l10.4-4.1l0.4,1l-4.8,1.9l2.8,7.2l4.8-1.9
							L16.8,99.9z"/>
						<path class="st16" d="M12.1,86.2L1,87.3l-1-9.9l0.9-0.1l0.9,8.8l4-0.4l-0.8-7.5l0.9-0.1l0.8,7.5l4.2-0.4l-0.9-8.8l0.9-0.1
							L12.1,86.2z"/>
						<path class="st16" d="M11.2,65.3L0.1,64.8l0.1-1.1l10.2,0.5l0.4-8.4l1,0L11.2,65.3z"/>
						<path class="st16" d="M13.9,48.2c-0.2,0.7-0.6,1.4-1,1.9c-0.4,0.6-0.9,1-1.5,1.4c-0.6,0.3-1.3,0.6-2,0.6
							c-0.8,0.1-1.6,0-2.4-0.3l-5.6-1.7l0.3-1l5.6,1.7c0.7,0.2,1.4,0.3,2,0.3c0.6,0,1.2-0.2,1.7-0.5s0.9-0.6,1.3-1.1
							c0.4-0.5,0.6-1,0.8-1.6c0.2-0.8,0.3-1.6,0.2-2.3s-0.5-1.4-1.1-2c-0.6-0.6-1.3-1-2.2-1.3l-5.6-1.7l0.3-1l5.6,1.7
							c0.8,0.3,1.6,0.6,2.2,1.1c0.6,0.5,1,1,1.3,1.7s0.4,1.3,0.5,2C14.2,46.8,14.1,47.5,13.9,48.2z"/>
						<path class="st16" d="M16.4,40.4l-2.3-7.1L7.3,34L7.9,33l6-0.6l-1.8-5.9l0.7-1.1l2.1,6.8l7.4-0.9l-0.7,1.1l-6.5,0.8l2.1,6.2
							L16.4,40.4z"/>
						<path class="st16" d="M24.4,28.7l-7.6-8.2l7.3-6.8l0.7,0.7l-6.5,6l2.8,3l5.5-5.1l0.6,0.7l-5.5,5.1l2.9,3.1l6.5-6l0.7,0.7
							L24.4,28.7z"/>
						<path class="st16" d="M40.6,16.4L36.7,6l6.1-2.3c1.1-0.4,2.1-0.5,2.8-0.3s1.3,0.8,1.6,1.7c0.3,0.7,0.3,1.3,0.1,1.9
							c-0.2,0.6-0.5,1-1,1.3c0.7-0.2,1.4-0.1,1.9,0.2c0.5,0.3,0.9,0.7,1.2,1.4c0.4,1,0.4,1.9-0.1,2.6s-1.3,1.3-2.6,1.7L40.6,16.4z
							 M39.4,10.3l5.7-2.1c0.5-0.2,0.9-0.6,1.2-1.1c0.2-0.5,0.3-1.1,0-1.7c-0.2-0.6-0.6-1-1.2-1.1c-0.5-0.1-1.2,0-2,0.3L38,6.5
							L39.4,10.3z M41.3,15.2l5.1-1.9c1-0.4,1.6-0.8,2-1.2c0.3-0.5,0.4-1.1,0.1-1.8c-0.2-0.4-0.4-0.7-0.8-0.9
							C47.3,9,47,8.9,46.6,8.9s-0.7,0-1.1,0.2l-5.7,2.1L41.3,15.2z"/>
						<path class="st16" d="M54.4,12l-1-11.1l1.1-0.1L55.4,11l8.4-0.8l0.1,1L54.4,12z"/>
						<path class="st16" d="M72.6,11.7c-1.2,0-2.3-0.3-3.3-0.8c-1-0.5-1.7-1.2-2.2-2.1c-0.5-0.9-0.8-1.9-0.8-3s0.3-2.1,0.8-3
							c0.5-0.9,1.3-1.6,2.2-2.1c1-0.5,2.1-0.7,3.3-0.7c1.2,0,2.3,0.2,3.3,0.7c1,0.5,1.7,1.2,2.3,2.1c0.5,0.9,0.8,1.9,0.8,3
							c0,1.1-0.3,2.1-0.8,3c-0.5,0.9-1.3,1.6-2.3,2.1C74.9,11.5,73.8,11.7,72.6,11.7z M68.7,9.4c1,0.9,2.3,1.4,3.8,1.4
							s2.9-0.5,3.9-1.4c1-0.9,1.5-2.1,1.5-3.6s-0.5-2.6-1.5-3.5c-1-0.9-2.3-1.3-3.9-1.3c-1.6,0-2.9,0.4-3.8,1.3
							c-1,0.9-1.5,2.1-1.5,3.5S67.7,8.5,68.7,9.4z"/>
						<path class="st16" d="M89,11.7c-1.2,0-2.3-0.3-3.3-0.8c-1-0.5-1.7-1.2-2.2-2.1c-0.5-0.9-0.8-1.9-0.8-3s0.3-2.1,0.8-3
							c0.5-0.9,1.3-1.6,2.2-2.1C86.7,0.2,87.8,0,89,0c1.2,0,2.3,0.2,3.3,0.7c1,0.5,1.7,1.2,2.3,2.1c0.5,0.9,0.8,1.9,0.8,3
							c0,1.1-0.3,2.1-0.8,3c-0.5,0.9-1.3,1.6-2.3,2.1C91.3,11.5,90.2,11.7,89,11.7z M85.2,9.4c1,0.9,2.3,1.4,3.8,1.4
							s2.9-0.5,3.9-1.4c1-0.9,1.5-2.1,1.5-3.6s-0.5-2.6-1.5-3.5c-1-0.9-2.3-1.3-3.9-1.3c-1.6,0-2.9,0.4-3.8,1.3
							c-1,0.9-1.5,2.1-1.5,3.5S84.2,8.5,85.2,9.4z"/>
						<path class="st16" d="M99.7,11.4V0.2h1.6l5.3,8.4l5.3-8.4h1.6v11.2h-1.1v-10l-5.8,9l-5.8-9v10H99.7z"/>
						<path class="st16" d="M141.6,11.4V1.2h-5.2v-1h11.4v1h-5.1v10.2H141.6z"/>
						<path class="st16" d="M151.9,11.4V0.2h1.1v5h7.7v-5h1.1v11.2h-1.1V6.2H153v5.2H151.9z"/>
						<path class="st16" d="M167.1,11.4V0.2h9.9v1h-8.8v4.1h7.5v0.9h-7.5v4.2h8.8v1H167.1z"/>
						<path class="st16" d="M188.2,11.4V0.2h1.1v10.2h8.4v1H188.2z"/>
						<path class="st16" d="M206.3,11.6c-0.8,0-1.5-0.1-2.1-0.4c-0.7-0.2-1.2-0.6-1.8-1.1c-0.5-0.5-0.9-1-1.2-1.8
							c-0.3-0.7-0.4-1.5-0.4-2.4V0.2h1.1v5.8c0,0.7,0.1,1.4,0.3,2c0.2,0.6,0.5,1.1,0.9,1.5c0.4,0.4,0.9,0.7,1.4,0.9s1.1,0.3,1.8,0.3
							c0.8,0,1.6-0.2,2.3-0.5c0.7-0.4,1.2-0.9,1.6-1.6c0.4-0.7,0.6-1.5,0.6-2.5V0.2h1.1v5.8c0,0.9-0.1,1.7-0.4,2.4
							c-0.3,0.7-0.7,1.3-1.2,1.8c-0.5,0.5-1.1,0.8-1.8,1.1C207.7,11.5,207,11.6,206.3,11.6z"/>
						<path class="st16" d="M215,11.4l4.8-5.8l-4.3-5.4h1.3l3.7,4.7l4-4.7h1.3l-4.6,5.4l4.7,5.8h-1.3l-4.1-5.1l-4.1,5.1H215z"/>
						<path class="st16" d="M229.6,11.2l0.8-11.1l9.9,0.7l-0.1,1l-8.8-0.6l-0.3,4.1l7.5,0.5l-0.1,0.9l-7.5-0.5l-0.3,4.2l8.8,0.6
							l-0.1,1L229.6,11.2z"/>
						<path class="st16" d="M249.6,14.7l5-10l5.8,2.9c1.1,0.5,1.8,1.1,2.2,1.8c0.4,0.7,0.3,1.5-0.1,2.4c-0.3,0.6-0.7,1.1-1.3,1.4
							s-1.1,0.3-1.6,0.1c0.6,0.4,1,0.9,1.2,1.5c0.2,0.6,0.1,1.2-0.2,1.8c-0.5,1-1.2,1.6-2,1.7c-0.8,0.1-1.8-0.1-3-0.7L249.6,14.7z
							 M250.9,14.3l4.9,2.4c0.9,0.5,1.7,0.7,2.2,0.6c0.6-0.1,1-0.5,1.4-1.2c0.2-0.4,0.3-0.8,0.2-1.2c-0.1-0.4-0.2-0.7-0.5-1
							c-0.2-0.3-0.5-0.5-0.9-0.7l-5.5-2.7L250.9,14.3z M253.2,9.6l5.5,2.7c0.5,0.3,1,0.3,1.6,0.1c0.5-0.2,1-0.5,1.2-1.1
							c0.3-0.6,0.3-1.2,0-1.6s-0.8-0.9-1.6-1.3L255,6L253.2,9.6z"/>
						<path class="st16" d="M262.2,21.7l7.4-8.4l0.8,0.7l-6.8,7.6l6.3,5.6l-0.6,0.7L262.2,21.7z"/>
						<path class="st16" d="M274,34.9c-0.7-1-1.1-2.1-1.2-3.2c-0.1-1.1,0-2.1,0.5-3c0.4-0.9,1.1-1.7,2.1-2.3c0.9-0.6,1.9-1,3-1
							c1,0,2,0.2,3,0.7c0.9,0.5,1.8,1.3,2.4,2.3c0.7,1,1.1,2.1,1.2,3.1c0.1,1.1,0,2.1-0.5,3c-0.4,0.9-1.1,1.7-2.1,2.3
							c-0.9,0.6-1.9,1-3,1c-1,0-2-0.2-3-0.7S274.7,36,274,34.9z M273.8,30.4c-0.2,1.3,0.1,2.6,1,4c0.9,1.3,2,2.1,3.3,2.5
							s2.6,0.1,3.8-0.8c1.2-0.8,1.9-1.9,2.1-3.2s-0.1-2.6-1-4c-0.9-1.3-2-2.1-3.2-2.5c-1.3-0.3-2.5-0.1-3.8,0.7S274,29.1,273.8,30.4
							z"/>
						<path class="st16" d="M280.6,49.1c-0.3-1.2-0.4-2.3-0.2-3.4c0.2-1.1,0.7-2,1.4-2.7c0.7-0.8,1.6-1.3,2.7-1.6s2.1-0.3,3.1-0.1
							s1.9,0.8,2.6,1.6c0.7,0.8,1.3,1.8,1.6,3c0.3,1.2,0.4,2.3,0.2,3.4c-0.2,1.1-0.7,2-1.4,2.7s-1.6,1.3-2.7,1.6
							c-1.1,0.3-2.1,0.3-3.1,0.1c-1-0.3-1.9-0.8-2.6-1.6C281.5,51.3,280.9,50.3,280.6,49.1z M281.7,44.8c-0.6,1.2-0.7,2.5-0.2,4.1
							c0.4,1.5,1.2,2.6,2.4,3.3s2.4,0.8,3.8,0.4s2.4-1.2,3-2.4c0.6-1.2,0.7-2.5,0.2-4.1c-0.4-1.5-1.2-2.6-2.4-3.3
							c-1.1-0.7-2.4-0.8-3.8-0.4C283.3,42.8,282.3,43.6,281.7,44.8z"/>
						<path class="st16" d="M282.9,58.9h11.2v1.6l-8.4,5.3l8.4,5.3v1.6h-11.2v-1.1h10l-9-5.8l9-5.8h-10V58.9z"/>
					</g>
				</g>
			</g>
			<g>
				<g>
					<path class="st16" d="M269.2,122.2L267,120l10.2-10.3L267,99.5l2.2-2.2l12.5,12.4L269.2,122.2z"/>
				</g>
			</g>
		</g>
		<g>
			<g>
				<path class="st115" d="M80.2,46.3c0.7,0.6,1.3,1.4,1.7,2.4c0.4,0.9,0.7,1.9,0.8,3c0.1,1.1,0.1,2.2,0,3.4
					c-0.1,1.2-0.4,2.3-0.7,3.4c-0.4,1.1-0.8,2.1-1.4,3c-0.6,0.9-1.2,1.7-1.9,2.4c-0.6,0.5-1.1,0.8-1.6,0.7c-0.5-0.1-0.8-0.2-1-0.6
					c-0.2-0.3-0.2-0.7-0.1-1.1c0.1-0.4,0.5-0.8,1-1c0.9-0.4,1.6-0.9,2.3-1.7c0.7-0.8,1.2-1.7,1.6-2.7c0.4-1,0.7-2.1,0.8-3.2
					c0.1-1.1,0.1-2.2-0.1-3.2c-0.2-1-0.6-1.9-1.1-2.8c-0.6-0.8-1.3-1.4-2.2-1.8c-0.9-0.4-1.9-0.6-3.1-0.5c-1.1,0.1-2.3,0.3-3.6,0.7
					c-1.2,0.4-2.5,1-3.8,1.7c-1.3,0.7-2.5,1.5-3.7,2.4c-0.7,0.6-1.5,1.2-2.2,1.8c-0.7,0.7-1.4,1.4-2,2.1c-0.6,0.8-1.1,1.6-1.6,2.4
					c-0.5,0.8-0.8,1.7-1,2.5c-0.2,0.9-0.3,1.7-0.2,2.6c0.1,0.9,0.3,1.7,0.7,2.6c0.5,1,1.1,2,1.9,3.1c0.8,1,1.6,2.1,2.4,3.2
					c0.8,1.1,1.6,2.2,2.5,3.3c0.8,1.1,1.5,2.3,2.1,3.4c1.3-0.8,2.7-1.6,4.1-2.4c1.4-0.7,2.8-1.4,4.2-2c1.4-0.6,2.7-1.1,4-1.6
					c1.3-0.4,2.5-0.8,3.7-1c0.6-0.2,1.1-0.2,1.3-0.1c0.2,0.1,0.3,0.2,0.2,0.4c-0.1,0.2-0.2,0.3-0.5,0.5c-0.3,0.2-0.5,0.3-0.8,0.3
					c-1.1,0.3-2.3,0.7-3.5,1.1c-1.3,0.5-2.6,1-3.9,1.6c-1.4,0.6-2.7,1.3-4.1,2.1c-1.4,0.8-2.7,1.6-4,2.4c0.4,0.8,0.6,1.6,0.9,2.4
					c0.2,0.8,0.3,1.6,0.3,2.4c0,0.8-0.1,1.6-0.3,2.5c-0.2,0.8-0.6,1.7-1.1,2.5c-0.4,0.7-0.9,1.3-1.4,1.9c-0.5,0.6-1.1,1.1-1.7,1.6
					c-0.6,0.5-1.2,0.9-1.9,1.2c-0.6,0.3-1.3,0.6-1.9,0.8c-1.3,0.4-2.3,0.5-3,0.2c-0.7-0.3-1.2-0.8-1.5-1.6s-0.3-1.6-0.2-2.5
					c0.1-1,0.4-1.9,0.9-2.8c0.9-1.6,2.1-3.2,3.8-4.8c1.6-1.6,3.5-3,5.6-4.4c-0.6-1.2-1.3-2.3-2.3-3.5c-0.9-1.1-1.9-2.2-2.8-3.4
					c-1-1.1-1.9-2.2-2.8-3.3c-0.9-1.1-1.6-2.3-2.2-3.4c-0.7-1.6-1-3.1-0.9-4.6s0.6-3,1.3-4.4c0.7-1.4,1.6-2.7,2.8-3.9
					c1.2-1.2,2.4-2.3,3.7-3.2c1.5-1.1,3.1-1.9,4.7-2.6c1.7-0.7,3.3-1.2,4.9-1.4c1.6-0.3,3.1-0.3,4.6,0C78,44.9,79.2,45.4,80.2,46.3z
					 M64.9,88c1-1.5,1.5-3,1.7-4.3s0-2.6-0.5-3.9c-1,0.7-2,1.4-2.9,2.1c-0.9,0.7-1.8,1.5-2.6,2.2c-0.8,0.7-1.5,1.5-2.1,2.2
					c-0.6,0.7-1.1,1.5-1.6,2.2c-0.4,0.7-0.6,1.4-0.7,2.1c-0.1,0.7,0,1.3,0.2,1.8c0.2,0.5,0.6,0.7,1.2,0.8c0.6,0.1,1.4-0.2,2.4-0.8
					c0.8-0.4,1.6-1.1,2.5-1.8C63.4,89.9,64.2,89,64.9,88z"/>
				<path class="st115" d="M86,69.3c-0.1,0.3-0.2,0.7-0.5,1.3c-0.2,0.6-0.5,1.2-0.8,1.9c-0.3,0.7-0.6,1.3-0.8,1.9
					c-0.2,0.6-0.4,1.2-0.5,1.6c-0.1,0.3,0,0.5,0,0.6c0.1,0.1,0.2,0.2,0.3,0.2c0.1,0,0.3,0,0.4-0.1c0.2-0.1,0.3-0.2,0.5-0.3
					c0.4-0.3,0.8-0.7,1.2-1.3c0.4-0.6,0.8-1.1,1.2-1.7c0.4-0.6,0.7-1,1-1.5s0.5-0.7,0.6-0.8c0.3-0.2,0.6-0.4,0.9-0.4
					c0.3,0,0.6,0,0.8,0.2c0.2,0.1,0.4,0.3,0.5,0.6c0.1,0.2,0.1,0.5-0.1,0.8c-0.7,1.4-1,2.5-1,3.3c0,0.8,0.3,1.3,0.9,1.5
					c0.4,0,0.9,0,1.3-0.2c0.5-0.2,1-0.5,1.5-0.8c0.5-0.3,1-0.7,1.5-1.2c0.5-0.4,1-0.9,1.4-1.3c0.5-0.5,0.9-0.9,1.3-1.4
					c0.4-0.4,0.7-0.9,1-1.2c0.2-0.2,0.4-0.4,0.6-0.5c0.2-0.1,0.4-0.1,0.5,0c0.1,0.1,0.2,0.2,0.2,0.4c0,0.2-0.2,0.4-0.4,0.7
					c-0.6,0.7-1.2,1.4-1.9,2.2c-0.7,0.8-1.5,1.5-2.3,2.1c-0.8,0.7-1.7,1.2-2.6,1.6C91.9,77.8,91,78,90,77.9c-0.6,0-1.1-0.2-1.4-0.4
					c-0.4-0.2-0.6-0.5-0.8-0.9c-0.2-0.3-0.2-0.7-0.2-1.2c0-0.4,0.2-0.9,0.4-1.4c-0.4,0.5-0.8,1-1.2,1.5c-0.4,0.5-0.9,0.9-1.3,1.3
					c-0.5,0.4-0.9,0.6-1.4,0.7c-0.5,0.1-1,0.1-1.5-0.2c-0.4-0.2-0.6-0.4-0.8-0.7c-0.2-0.3-0.3-0.6-0.3-1c-0.1-0.4-0.1-0.7,0-1.1
					c0-0.4,0.1-0.7,0.2-1c0.1-0.6,0.3-1.1,0.5-1.7c0.2-0.6,0.4-1.1,0.6-1.6c0.2-0.5,0.4-0.9,0.6-1.3s0.4-0.7,0.6-0.9
					c0.3-0.3,0.5-0.6,0.8-0.7c0.3-0.1,0.6-0.1,0.8,0c0.2,0.1,0.4,0.3,0.5,0.6C86.1,68.5,86.1,68.8,86,69.3z"/>
				<path class="st115" d="M98.7,80.7c0,0.1-0.1,0.3-0.2,0.3c-0.1,0.1-0.2,0.1-0.4,0.1c-0.1,0-0.2-0.1-0.4-0.3
					c-0.1-0.2-0.2-0.5-0.2-0.9c0-0.6,0-1.3,0.1-2.2c0.1-0.9,0.2-2,0.3-3.2c0.2-1.2,0.4-2.4,0.6-3.8s0.6-2.7,0.9-4.2
					c0.4-1.4,0.8-2.8,1.2-4.3c0.5-1.4,1-2.8,1.6-4.1c0.6-1.3,1.2-2.5,1.9-3.6s1.5-2.1,2.3-2.9c0.4-0.4,0.9-0.7,1.4-0.9
					c0.5-0.2,0.9-0.2,1.3-0.1c0.4,0.1,0.7,0.4,0.9,0.8c0.2,0.4,0.2,1.1,0.1,1.9c-0.1,0.7-0.4,1.6-0.8,2.5c-0.4,0.9-0.9,1.9-1.4,2.9
					c-0.6,1-1.2,2-1.8,3.1c-0.7,1-1.3,2-2,3c-0.7,1-1.3,1.9-2,2.7c-0.6,0.8-1.2,1.6-1.7,2.2c-0.2,0.8-0.5,1.6-0.7,2.3
					c-0.2,0.7-0.4,1.4-0.5,2c-0.1,0.6-0.3,1.1-0.4,1.6c-0.1,0.4-0.2,0.8-0.2,1.1c0.3-0.5,0.6-1,0.9-1.7c0.3-0.7,0.6-1.3,1-2
					c0.3-0.5,0.6-1,0.9-1.4c0.3-0.5,0.7-0.9,1.2-1.3c0.4-0.4,0.9-0.7,1.4-0.9c0.5-0.2,1.1-0.3,1.7-0.3c0.9,0,1.7,0.3,2.4,0.9
					c0.7,0.6,1.1,1.5,1.2,2.7c2.1-0.9,4.3-1.6,6.6-2.1c0.3-0.1,0.5,0,0.6,0c0.1,0.1,0.2,0.2,0.2,0.3c0,0.1,0,0.2-0.1,0.4
					c-0.1,0.1-0.2,0.2-0.4,0.2c-1.1,0.2-2.2,0.6-3.4,1c-1.2,0.4-2.3,0.9-3.5,1.4c0,0.8-0.2,1.7-0.4,2.6c-0.4,1.4-0.8,2.7-1.4,3.7
					c-0.5,1.1-1.1,2-1.7,2.8c-0.6,0.8-1.2,1.4-1.9,1.8c-0.6,0.5-1.2,0.8-1.8,0.9c-0.6,0.2-1.1,0.2-1.6,0.1c-0.5-0.1-0.9-0.3-1.2-0.7
					c-0.4-0.5-0.6-1-0.6-1.7c0-0.6,0.2-1.3,0.5-2c0.3-0.7,0.7-1.4,1.3-2.1c0.5-0.7,1.1-1.4,1.8-2.1c0.7-0.7,1.3-1.3,2.1-1.8
					c0.7-0.6,1.4-1,2.1-1.4c0.1-0.8,0-1.6-0.3-2.2c-0.3-0.6-0.7-1-1.2-1.2c-0.4-0.1-0.9-0.1-1.3,0.2c-0.4,0.2-0.8,0.5-1.2,0.9
					c-0.4,0.4-0.7,0.8-1,1.3c-0.3,0.5-0.5,0.9-0.7,1.2c-0.4,0.8-0.8,1.7-1.1,2.5c-0.4,0.9-0.7,1.7-0.9,2.5c-0.1,0.2-0.1,0.4-0.2,0.6
					C98.8,80.3,98.7,80.5,98.7,80.7z M106.3,76.6c0.1-0.1,0.1-0.3,0.1-0.4c0-0.1,0.1-0.2,0.1-0.4c-0.5,0.3-1,0.7-1.5,1.2
					c-0.5,0.5-1,1-1.5,1.5c-0.5,0.5-0.9,1-1.3,1.6c-0.4,0.5-0.7,1-1,1.5c-0.2,0.5-0.4,0.9-0.4,1.3s0.1,0.7,0.4,0.9
					c0.2,0.2,0.5,0.2,0.9,0c0.4-0.2,0.8-0.5,1.3-1.1c0.5-0.6,0.9-1.3,1.4-2.3C105.3,79.3,105.8,78,106.3,76.6z M106,57
					c-0.8,1.3-1.6,2.8-2.3,4.5c-0.7,1.7-1.4,3.4-2,5.2c0.5-0.7,1-1.4,1.5-2.2c0.5-0.8,1-1.6,1.5-2.4c0.5-0.8,1-1.6,1.4-2.4
					c0.5-0.8,0.9-1.6,1.3-2.3c0.5-1.1,0.9-1.8,1-2.4c0.1-0.5,0.1-0.8,0-0.8c-0.2,0-0.4,0.2-0.9,0.7C107,55.4,106.5,56.1,106,57z"/>
				<path class="st115" d="M131.1,71.6c-0.4,0.3-1,0.6-1.6,0.9c-0.6,0.4-1.3,0.8-2,1.2c-0.7,0.4-1.5,0.9-2.3,1.4
					c-0.8,0.5-1.6,1-2.4,1.6c0.8,1.1,1,2.3,0.8,3.5c-0.2,1.3-0.8,2.6-1.7,3.9c-0.5,0.7-1,1.4-1.6,2c-0.6,0.6-1.2,1.2-1.9,1.7
					c-0.7,0.5-1.3,0.9-2,1.2c-0.7,0.3-1.3,0.4-1.8,0.4c-0.5,0-0.9-0.1-1.3-0.2c-0.4-0.1-0.7-0.3-1-0.6c-0.3-0.2-0.5-0.6-0.6-1
					s-0.2-0.8-0.1-1.4c0.1-0.8,0.4-1.6,1-2.4c0.6-0.8,1.3-1.7,2.1-2.5c0.9-0.9,1.8-1.7,2.9-2.5c1.1-0.8,2.2-1.7,3.4-2.4
					c-0.4-0.4-0.9-0.7-1.5-1c-0.6-0.3-1.1-0.7-1.6-1c-0.5-0.4-1-0.8-1.3-1.2c-0.4-0.5-0.5-1.1-0.5-1.8c0-0.7,0.2-1.3,0.6-1.8
					c0.4-0.6,0.8-1.1,1.3-1.5c0.5-0.4,1.1-0.7,1.8-0.9c0.7-0.2,1.3-0.2,2,0c0.4,0.1,0.7,0.2,0.9,0.4c0.2,0.2,0.4,0.4,0.4,0.6
					c0.1,0.2,0,0.4,0,0.6c-0.1,0.2-0.2,0.3-0.4,0.4c-0.2,0.1-0.4,0.1-0.7,0.1c-0.3,0-0.5-0.2-0.8-0.4c-0.4-0.4-0.9-0.6-1.3-0.6
					c-0.4,0-0.8,0.1-1.1,0.3c-0.3,0.2-0.6,0.5-0.7,1c-0.2,0.4-0.2,0.9-0.2,1.4c0.1,0.5,0.2,1,0.5,1.4c0.3,0.4,0.6,0.8,1,1.2
					c0.4,0.4,0.8,0.7,1.3,1.1c0.4,0.3,0.8,0.7,1.2,1c1.6-1,3.1-2,4.6-2.9c1.5-0.9,2.7-1.6,3.7-2.1c0.3-0.2,0.6-0.3,0.8-0.3
					c0.2,0,0.4,0,0.5,0.1c0.1,0.1,0.1,0.2,0,0.4C131.6,71.3,131.4,71.4,131.1,71.6z M121.7,78.6c0.1-0.4,0-0.7-0.1-1
					c-1.1,0.7-2.1,1.5-3.1,2.3c-1,0.8-1.9,1.5-2.7,2.3c-0.8,0.7-1.5,1.5-2,2.2c-0.6,0.7-0.9,1.3-1.1,1.9c-0.1,0.3-0.1,0.6-0.1,0.8
					c0,0.3,0.1,0.5,0.3,0.6c0.1,0.2,0.3,0.3,0.6,0.3c0.2,0.1,0.5,0,0.9-0.1c0.3-0.1,0.7-0.4,1.1-0.6c0.4-0.3,0.8-0.6,1.2-1
					c0.4-0.4,0.8-0.8,1.3-1.3c0.4-0.5,0.8-1,1.2-1.5c0.8-1.1,1.4-2,1.8-2.8C121.4,79.8,121.6,79.2,121.7,78.6z"/>
				<path class="st115" d="M137.1,67.9c-0.1-0.4-0.2-0.7-0.4-0.8c-0.2-0.1-0.4-0.1-0.7,0c-0.5,0.2-1.1,0.5-1.6,1.1
					c-0.5,0.5-0.9,1.1-1.3,1.8c-0.4,0.7-0.7,1.4-0.9,2.1s-0.3,1.4-0.2,2c0.1,0.4,0.2,0.8,0.4,1.1c0.2,0.3,0.5,0.6,1,0.8
					c0.5,0.2,1.2,0.3,1.8,0.1c0.7-0.1,1.4-0.4,2.2-0.7c0.7-0.3,1.5-0.7,2.2-1.2c0.7-0.5,1.4-0.9,2-1.4c0.6-0.5,1.1-0.9,1.5-1.2
					c0.4-0.4,0.7-0.6,0.8-0.8c0.2-0.2,0.4-0.4,0.6-0.5c0.2-0.1,0.4-0.1,0.5,0c0.1,0.1,0.2,0.2,0.1,0.4c0,0.2-0.2,0.4-0.4,0.7
					c-0.4,0.5-0.9,1-1.5,1.5c-0.6,0.5-1.2,1-1.9,1.5c-0.7,0.5-1.4,0.9-2.2,1.3c-0.8,0.4-1.6,0.8-2.4,1c-0.8,0.3-1.6,0.4-2.4,0.5
					c-0.8,0.1-1.6,0.1-2.3-0.1c-0.7-0.2-1.3-0.5-1.8-0.9c-0.5-0.4-0.8-1.1-0.8-1.9c0-0.8,0.1-1.6,0.5-2.6c0.4-0.9,0.9-1.8,1.5-2.6
					c0.6-0.8,1.4-1.5,2.3-2c0.9-0.5,1.8-0.8,2.8-0.9c0.5,0,0.9,0.1,1.3,0.5c0.4,0.3,0.6,0.8,0.7,1.5c0,0.3-0.1,0.5-0.2,0.6
					c-0.2,0.1-0.3,0.2-0.5,0.1c-0.2,0-0.3-0.1-0.5-0.3C137.2,68.5,137.1,68.3,137.1,67.9z"/>
				<path class="st115" d="M159.9,71.4c-0.3,0.3-0.6,0.7-1,1.2s-0.9,1-1.4,1.6c-0.5,0.6-1.1,1.1-1.7,1.7c-0.6,0.6-1.3,1.1-2,1.6
					c-0.7,0.5-1.4,0.9-2.1,1.3c-0.7,0.4-1.4,0.6-2.1,0.7c-0.6,0.1-1.2,0.1-1.9-0.1c-0.6-0.2-1.2-0.5-1.6-1.1c-0.3-0.5-0.5-1-0.6-1.6
					c0-0.6,0-1.1,0.1-1.7c0.1-0.6,0.3-1.1,0.6-1.6c0.2-0.5,0.5-1,0.8-1.4c-0.3,0.1-0.7,0-1.1,0c-0.4-0.1-0.7-0.2-1-0.3
					c-0.3-0.2-0.6-0.4-0.8-0.6c-0.2-0.2-0.4-0.5-0.5-0.9c-0.1-0.3,0-0.7,0.2-1.2c0.2-0.4,0.5-0.8,1-1.1c0.2-0.1,0.4-0.2,0.6-0.2
					c0.2,0,0.4,0,0.5,0.1c0.2,0.1,0.3,0.1,0.4,0.2c0.1,0.1,0.2,0.2,0.2,0.4c0,0.2,0,0.3-0.1,0.4c-0.1,0.1-0.2,0.2-0.3,0.3
					c-0.1,0.1-0.2,0.2-0.3,0.2c-0.1,0.1-0.1,0.1-0.1,0.2c0,0.2,0.2,0.3,0.4,0.5c0.2,0.1,0.5,0.3,0.8,0.4c0.3,0.1,0.6,0.3,0.9,0.4
					c0.3,0.1,0.5,0.2,0.7,0.3c0.4,0.3,0.7,0.5,0.8,0.9c0.1,0.3,0.1,0.7,0.1,1c-0.1,0.4-0.2,0.7-0.4,1.1c-0.2,0.4-0.4,0.7-0.6,1.1
					c-0.2,0.4-0.4,0.7-0.5,1.1c-0.1,0.3-0.2,0.7-0.2,1c0,0.3,0.1,0.5,0.2,0.7c0.1,0.2,0.3,0.3,0.6,0.4c0.2,0.1,0.5,0.1,0.7,0.1
					c0.3,0,0.5,0,0.8-0.1c0.6-0.1,1.2-0.4,1.8-0.8c0.6-0.4,1.2-0.8,1.8-1.3c0.6-0.5,1.2-1,1.8-1.6s1.1-1.1,1.6-1.7
					c0.5-0.5,0.9-1,1.3-1.5c0.4-0.4,0.7-0.8,0.9-1.1c0.2-0.2,0.4-0.4,0.6-0.4c0.2-0.1,0.4-0.1,0.5,0c0.1,0.1,0.2,0.2,0.1,0.4
					C160.3,70.9,160.2,71.2,159.9,71.4z"/>
				<path class="st115" d="M159.5,69.6c0.3-0.3,0.6-0.5,0.9-0.6c0.3-0.1,0.6-0.1,0.8,0c0.2,0.1,0.4,0.2,0.5,0.4
					c0.1,0.2,0.1,0.4,0,0.7c-0.3,0.9-0.5,1.6-0.5,2.3c-0.1,0.6-0.1,1.2,0.1,1.6c0.1,0.4,0.3,0.8,0.5,1c0.3,0.2,0.6,0.4,0.9,0.5
					c0.6,0.1,1.4,0.1,2.2-0.2s1.7-0.6,2.6-1.1c0.9-0.5,1.7-1,2.5-1.6c0.8-0.6,1.4-1.2,1.9-1.7c0.2-0.2,0.4-0.4,0.6-0.5
					c0.2-0.1,0.4-0.1,0.5,0c0.1,0.1,0.2,0.2,0.2,0.4c0,0.2-0.2,0.4-0.4,0.7c-0.6,0.7-1.3,1.3-2.1,2c-0.8,0.7-1.7,1.2-2.6,1.7
					c-0.9,0.5-1.9,0.9-2.9,1.1c-1,0.3-2,0.3-2.9,0.2c-0.8-0.1-1.4-0.3-2-0.8c-0.5-0.5-0.9-1-1.2-1.7c-0.2-0.7-0.3-1.4-0.3-2.2
					C159,71,159.2,70.3,159.5,69.6z M160.6,66.2c0.1-0.3,0.2-0.6,0.4-0.8c0.2-0.2,0.4-0.4,0.6-0.6c0.2-0.2,0.5-0.2,0.7-0.3
					c0.2,0,0.4,0,0.5,0.2c0.1,0.1,0.2,0.4,0.1,0.7c0,0.3-0.2,0.8-0.5,1.4c-0.2,0.3-0.4,0.4-0.6,0.5c-0.3,0.1-0.5,0.1-0.7,0.1
					c-0.2-0.1-0.4-0.2-0.5-0.4S160.5,66.6,160.6,66.2z"/>
				<path class="st115" d="M180.2,74.2c-0.6,1-1.2,1.7-1.9,2.2s-1.3,0.9-1.9,1c-0.6,0.2-1.1,0.2-1.4,0c-0.4-0.1-0.5-0.4-0.5-0.7
					c0.1-0.3,0.4-0.8,1-1.3c0.6-0.5,1.6-1,2.9-1.6c0.1-0.2,0.2-0.4,0.3-0.8c0.1-0.3,0.2-0.7,0.3-1c0.1-0.3,0.1-0.7,0.1-1
					c0-0.3-0.1-0.6-0.2-0.7c-0.1-0.2-0.3-0.2-0.6-0.2c-0.3,0-0.6,0.2-1.1,0.6c-0.5,0.4-1.1,1-1.7,1.7c-0.6,0.7-1.2,1.6-1.8,2.5
					c-0.6,1-1.2,2-1.8,3.1c-0.6,1.1-1.1,2.3-1.5,3.4c-0.4,1.2-0.8,2.4-1.1,3.6c-0.3,1.2-0.4,2.3-0.4,3.4c0,1.3,0.2,2.4,0.6,3.5
					c0.4,1,1.1,1.9,2.1,2.5c0.3,0.2,0.5,0.4,0.4,0.7c0,0.2-0.1,0.4-0.3,0.5c-0.2,0.1-0.5,0.2-0.8,0.1c-0.3-0.1-0.7-0.3-1.1-0.7
					c-0.5-0.6-0.9-1.4-1.2-2.5s-0.4-2.4-0.4-3.7c0.1-1.6,0.2-3.3,0.5-5.2c0.3-1.9,0.6-3.9,1.1-5.8c0.5-2,1.1-3.9,1.8-5.7
					c0.7-1.9,1.5-3.5,2.4-4.9c0.2-0.4,0.5-0.6,0.8-0.7c0.3-0.1,0.6-0.1,0.9,0c0.3,0.1,0.5,0.2,0.6,0.5c0.1,0.2,0.1,0.5,0,0.7
					c-0.5,0.8-1.1,2-1.8,3.4c-0.7,1.4-1.4,3-2.1,4.7c0.1-0.2,0.3-0.5,0.6-1c0.2-0.4,0.5-0.9,0.9-1.4s0.7-1.1,1.1-1.6
					c0.4-0.6,0.9-1.1,1.3-1.5c0.5-0.5,1-0.9,1.5-1.2s1.1-0.5,1.7-0.6c1-0.1,1.7,0.3,2,1.1s0.2,2-0.4,3.4c1.2-0.4,2.5-0.8,3.6-1.1
					c1.2-0.3,2.3-0.7,3.3-1c0.4-0.2,0.7-0.2,0.9-0.1c0.2,0.1,0.3,0.2,0.3,0.4s0,0.3-0.1,0.5c-0.1,0.2-0.2,0.3-0.4,0.3
					c-0.6,0.1-1.2,0.3-1.9,0.4c-0.7,0.1-1.4,0.3-2.1,0.5c-0.7,0.2-1.5,0.4-2.2,0.6S180.9,73.9,180.2,74.2z"/>
				<path class="st115" d="M177,60.5c0.6,0.1,1.1,0.2,1.6,0.2c0.5,0.1,1,0.1,1.5,0.1c1.7,0.1,3.4,0.1,5.2,0s3.5-0.2,5.2-0.4
					c0.4-1.4,0.9-2.7,1.3-4c0.5-1.3,0.9-2.5,1.4-3.6c0.5-1.1,1-2.1,1.5-3.1c0.5-0.9,1-1.7,1.5-2.4c0.4-0.5,0.8-0.8,1.3-1.1
					c0.5-0.2,0.9-0.3,1.3-0.2c0.4,0.1,0.7,0.4,1,0.8c0.2,0.4,0.3,1.1,0.2,1.9c-0.1,0.7-0.3,1.6-0.6,2.4c-0.3,0.9-0.7,1.8-1.1,2.8
					c-0.4,1-0.9,1.9-1.5,2.9c-0.5,1-1.1,2-1.7,3c1-0.1,2.2-0.2,3.4-0.3c1.2-0.1,2.5-0.2,3.7-0.3c1.3-0.1,2.5-0.1,3.8-0.1
					s2.5,0,3.6,0.2c1.1,0.1,2.1,0.3,3,0.6c0.9,0.3,1.6,0.6,2.2,1.1c0.2,0.2,0.3,0.4,0.2,0.6c-0.1,0.2-0.2,0.4-0.5,0.5
					c-0.2,0.1-0.5,0.2-0.7,0.1c-0.3-0.1-0.5-0.3-0.7-0.7c-0.2-0.6-0.7-1-1.4-1.3c-0.7-0.3-1.5-0.5-2.4-0.6c-1-0.1-2.2-0.1-3.4-0.1
					s-2.6,0.2-3.9,0.3c-1.3,0.1-2.6,0.3-3.9,0.5c-1.3,0.2-2.5,0.3-3.6,0.5c-0.1,0-0.1,0-0.2,0c-0.6,0.9-1.1,1.7-1.6,2.5
					c-0.5,0.8-1,1.6-1.4,2.2c-0.3,0.7-0.6,1.6-0.9,2.6s-0.7,2-1,3.2c-0.3,1.1-0.6,2.3-0.9,3.5s-0.5,2.4-0.7,3.6
					c-0.2,1.2-0.4,2.3-0.5,3.4c-0.1,1.1-0.2,2.1-0.1,2.9c0,1.4,0.3,2.5,0.7,3.4c0.4,0.9,1.1,1.6,1.9,2.1c0.3,0.2,0.5,0.4,0.5,0.6
					c0,0.2-0.1,0.4-0.3,0.5s-0.5,0.2-0.8,0.2c-0.4,0-0.7-0.2-1.1-0.6c-0.6-0.6-1-1.3-1.3-2.4c-0.3-1-0.4-2.3-0.5-3.7
					c-0.1-1.4,0-3.1,0.2-5c0.2-1.9,0.4-3.8,0.8-5.9c0.3-2.1,0.8-4.2,1.3-6.4c0.5-2.2,1-4.3,1.6-6.4c-1.6,0.1-3.2,0.2-4.8,0.2
					c-1.6,0-3.2,0-4.9-0.1c-1,0-1.8-0.1-2.6-0.2c-0.8-0.1-1.4-0.2-1.9-0.3c-0.3-0.2-0.5-0.4-0.5-0.6c0-0.2,0-0.4,0.2-0.6
					c0.1-0.1,0.3-0.2,0.6-0.1S176.7,60.1,177,60.5z M193,61.2c-0.1,0-0.1,0-0.2,0c-0.1,0-0.1,0-0.2,0c-0.1,0.2-0.1,0.4-0.2,0.6
					c-0.1,0.2-0.1,0.4-0.2,0.6L193,61.2z M195.9,52.5c-0.6,1.1-1.1,2.3-1.6,3.6c-0.5,1.3-1,2.6-1.4,4l0.7-0.1c0.7-1.2,1.3-2.4,2-3.6
					c0.6-1.2,1.2-2.4,1.7-3.6c0.5-1.1,0.8-1.9,0.9-2.4c0.1-0.5,0.1-0.8-0.1-0.8c-0.2,0-0.4,0.2-0.8,0.7
					C196.9,50.9,196.5,51.6,195.9,52.5z"/>
				<path class="st115" d="M195.4,69.6c0.3-0.3,0.6-0.5,0.9-0.6c0.3-0.1,0.6-0.1,0.8,0c0.2,0.1,0.4,0.2,0.5,0.4
					c0.1,0.2,0.1,0.4,0,0.7c-0.3,0.9-0.5,1.6-0.5,2.3c-0.1,0.6-0.1,1.2,0.1,1.6c0.1,0.4,0.3,0.8,0.5,1c0.3,0.2,0.6,0.4,0.9,0.5
					c0.6,0.1,1.4,0.1,2.2-0.2s1.7-0.6,2.6-1.1c0.9-0.5,1.7-1,2.5-1.6c0.8-0.6,1.4-1.2,1.9-1.7c0.2-0.2,0.4-0.4,0.6-0.5
					c0.2-0.1,0.4-0.1,0.5,0c0.1,0.1,0.2,0.2,0.2,0.4c0,0.2-0.2,0.4-0.4,0.7c-0.6,0.7-1.3,1.3-2.1,2c-0.8,0.7-1.7,1.2-2.6,1.7
					c-0.9,0.5-1.9,0.9-2.9,1.1c-1,0.3-2,0.3-2.9,0.2c-0.8-0.1-1.4-0.3-2-0.8c-0.5-0.5-0.9-1-1.2-1.7c-0.2-0.7-0.3-1.4-0.3-2.2
					C194.8,71,195,70.3,195.4,69.6z M196.5,66.2c0.1-0.3,0.2-0.6,0.4-0.8c0.2-0.2,0.4-0.4,0.6-0.6c0.2-0.2,0.5-0.2,0.7-0.3
					c0.2,0,0.4,0,0.5,0.2c0.1,0.1,0.2,0.4,0.1,0.7c0,0.3-0.2,0.8-0.5,1.4c-0.2,0.3-0.4,0.4-0.6,0.5c-0.3,0.1-0.5,0.1-0.7,0.1
					c-0.2-0.1-0.4-0.2-0.5-0.4S196.4,66.6,196.5,66.2z"/>
				<path class="st115" d="M206.7,76.8c-0.2-0.3-0.3-0.7-0.3-1.2c0-0.4,0-0.8,0-1.3c0-0.4,0.1-0.9,0.3-1.3c0.1-0.4,0.3-0.8,0.5-1.2
					c0.3-0.7,0.8-1.3,1.3-1.8c0.5-0.6,1.1-1,1.8-1.3c0.7-0.3,1.4-0.6,2.1-0.7c0.8-0.1,1.5,0,2.3,0.2c0.2,0.2,0.3,0.3,0.3,0.5
					c0,0.2-0.1,0.3-0.2,0.4c-0.1,0.1-0.3,0.2-0.6,0.2c-0.2,0-0.5-0.1-0.7-0.2c-0.5-0.3-1-0.3-1.4-0.2c-0.4,0.1-0.8,0.3-1.1,0.7
					c-0.3,0.4-0.6,0.8-0.9,1.3c-0.2,0.5-0.4,1.1-0.6,1.6c-0.1,0.6-0.3,1.1-0.3,1.7c-0.1,0.5-0.1,1-0.1,1.3c0,0.4,0.2,0.7,0.4,0.8
					c0.3,0.1,0.6,0,0.9-0.4c0.2-0.2,0.4-0.5,0.6-0.9c0.2-0.4,0.4-0.7,0.5-1.1c0.1-0.4,0.3-0.7,0.4-1.1c0.1-0.3,0.2-0.6,0.2-0.8
					c-0.5-0.2-0.9-0.4-1.1-0.6c-0.2-0.2-0.3-0.5-0.3-0.7c0-0.2,0.1-0.4,0.3-0.6c0.2-0.2,0.4-0.3,0.6-0.3c0.2,0,0.4,0.1,0.7,0.3
					c0.2,0.2,0.4,0.6,0.5,1.1c0.6,0.1,1.2,0.1,1.8,0.1s1.3,0,2,0c0.7,0,1.3-0.1,1.9-0.2c0.6-0.1,1.2-0.2,1.7-0.3
					c0.6-0.2,1-0.2,1.2-0.1c0.2,0.1,0.3,0.2,0.2,0.3c0,0.2-0.2,0.3-0.3,0.5c-0.2,0.2-0.4,0.3-0.6,0.3c-0.6,0.1-1.2,0.3-1.8,0.3
					s-1.3,0.2-2,0.2c-0.7,0-1.4,0-2.1,0c-0.7,0-1.3-0.1-1.9-0.2c0,0.4,0,0.8-0.1,1.2c-0.1,0.4-0.2,0.9-0.4,1.3
					c-0.2,0.4-0.4,0.9-0.6,1.3c-0.2,0.4-0.5,0.8-0.9,1c-0.3,0.3-0.6,0.5-1,0.6c-0.4,0.2-0.8,0.2-1.2,0.2c-0.4,0-0.8-0.1-1.2-0.3
					S206.9,77.2,206.7,76.8z"/>
				<path class="st115" d="M226.6,71.7c0-0.1-0.2,0-0.4,0.3c-0.2,0.3-0.5,0.7-0.8,1.1c-0.3,0.5-0.7,1-1,1.6
					c-0.4,0.6-0.7,1.2-1.1,1.7c-0.3,0.6-0.6,1.1-0.9,1.6c-0.3,0.5-0.5,0.8-0.6,1c-0.2,0.2-0.4,0.4-0.6,0.6c-0.2,0.2-0.4,0.2-0.6,0.2
					c-0.3,0-0.5-0.1-0.7-0.2c-0.2-0.2-0.3-0.4-0.4-0.6s-0.2-0.5-0.2-0.8s-0.1-0.5-0.1-0.8c-0.1-0.7,0-1.5,0.1-2.4
					c0.1-0.9,0.3-1.9,0.6-2.8c0.2-0.9,0.5-1.8,0.9-2.6c0.3-0.8,0.7-1.4,1.1-1.9c0.3-0.3,0.6-0.5,0.9-0.6c0.3-0.1,0.6-0.1,0.8,0
					c0.2,0.1,0.4,0.2,0.6,0.4c0.1,0.2,0.1,0.5,0.1,0.7c-0.2,0.5-0.4,1.2-0.8,2.1s-0.7,1.7-1.1,2.7c-0.4,0.9-0.7,1.8-1,2.7
					c-0.3,0.9-0.5,1.6-0.5,2.2c0,0,0,0.1,0,0.2c0,0.1,0,0.1,0,0.2c0,0.1,0,0.1,0.1,0.1c0,0,0.1,0,0.2-0.1c0.1-0.1,0.2-0.3,0.4-0.6
					c0.2-0.4,0.4-0.8,0.7-1.3c0.3-0.5,0.6-1.1,1-1.7c0.4-0.6,0.8-1.2,1.2-1.8c0.4-0.6,0.9-1.2,1.3-1.7c0.4-0.5,0.9-0.9,1.3-1.2
					c0.4-0.3,0.8-0.5,1.1-0.5c0.4,0,0.7,0.1,0.9,0.5c0.2,0.3,0.3,0.6,0.2,1c0,0.4-0.1,0.9-0.2,1.4c-0.1,0.5-0.3,1-0.4,1.5
					c-0.1,0.5-0.2,1-0.2,1.4c0,0.4,0.1,0.8,0.3,1.1c0.2,0.3,0.5,0.5,1.1,0.7c0.4,0.1,0.9,0.1,1.4-0.1c0.5-0.2,1.1-0.4,1.7-0.8
					c0.6-0.3,1.2-0.7,1.7-1.2c0.6-0.5,1.1-0.9,1.7-1.4c0.5-0.5,1-1,1.5-1.4c0.5-0.5,0.8-0.9,1.1-1.3c0.2-0.2,0.4-0.4,0.6-0.5
					c0.2-0.1,0.4-0.1,0.5,0c0.1,0.1,0.2,0.2,0.2,0.4c0,0.2-0.2,0.4-0.4,0.7c-0.6,0.7-1.3,1.4-2.1,2.2c-0.8,0.8-1.7,1.6-2.6,2.2
					s-1.9,1.2-2.9,1.7c-1,0.4-2,0.6-2.9,0.5c-0.7-0.1-1.3-0.3-1.7-0.7c-0.4-0.4-0.8-0.8-1-1.4c-0.2-0.6-0.3-1.2-0.3-1.8
					s0.1-1.3,0.3-1.9c0-0.1,0.1-0.2,0.1-0.3C226.6,71.8,226.6,71.8,226.6,71.7z"/>
			</g>
		</g>
	</g>
	<polygon class="st16" points="30.3,123 28.6,123 27.8,124.4 28.6,125.8 30.3,125.8 31.1,124.4 	"/>
	<polygon class="st16" points="126.8,5.2 125.2,5.2 124.3,6.7 125.2,8.1 126.8,8.1 127.7,6.7 	"/>
</g>
<g id="Layer_2">
</g>
<g id="GUIDE" class="st116">
</g>
</svg>
