<?xml version="1.0" encoding="utf-8"?>
<!-- Generator: Adobe Illustrator 25.2.1, SVG Export Plug-In . SVG Version: 6.00 Build 0)  -->
<svg version="1.1" xmlns="http://www.w3.org/2000/svg" xmlns:xlink="http://www.w3.org/1999/xlink" x="0px" y="0px"
	 viewBox="0 0 28.2 28.3" style="enable-background:new 0 0 28.2 28.3;" xml:space="preserve">
<style type="text/css">
	.st0{clip-path:url(#SVGID_16_);}
	.st1{clip-path:url(#SVGID_18_);}
	.st2{fill:#FBEDE2;}
	.st3{fill:#FCEEE3;}
	.st4{fill:#F9EBE0;}
	.st5{fill:#E3EDE2;}
	.st6{fill:#EDF1F4;}
	.st7{fill:#FFFFFF;}
	.st8{fill:#FAECE1;}
	.st9{fill:#174C1E;}
	.st10{fill:#D8A995;}
	.st11{fill:#F6E5DA;}
	.st12{fill:#F3E4D7;}
	.st13{fill:#E4AFB4;}
	.st14{fill:#F69B9A;}
	.st15{fill:#E6EFE3;}
	.st16{fill:#0C5B47;}
	.st17{opacity:0.51;}
	.st18{fill:#697B4C;}
	.st19{fill:#38522A;}
	.st20{fill:#8A9971;}
	.st21{fill:#BAC69E;}
	.st22{fill:#D1DCBB;}
	.st23{fill:#FCFCFC;}
	.st24{fill:#ADADAD;}
	.st25{opacity:0.62;}
	.st26{fill:#FADCDB;}
	.st27{fill:#F9C7C8;}
	.st28{fill:#F9D4D6;}
	.st29{fill:#F6BFCC;}
	.st30{fill:#F7C9D3;}
	.st31{fill:#584F36;}
	.st32{fill:#F0909B;}
	.st33{fill:#F8B6BF;}
	.st34{fill:#F59EA6;}
	.st35{fill:#F6ACB3;}
	.st36{fill:#F9BFC5;}
	.st37{fill:#EC7D87;}
	.st38{fill:#E0647E;}
	.st39{fill:#CD4966;}
	.st40{fill:#B31D42;}
	.st41{fill:#FBEDE3;}
	.st42{opacity:0.32;}
	.st43{fill:#F9E6EB;}
	.st44{fill:#F4C6D6;}
	.st45{fill:#F1B2CA;}
	.st46{fill:#F7D8E5;}
	.st47{fill:#E58024;}
	.st48{fill:#828051;}
	.st49{fill:#CE9084;}
	.st50{fill:#F5EFE9;}
	.st51{fill:#F3E2DB;}
	.st52{fill:#DDC4B8;}
	.st53{fill:#E4D8CD;}
	.st54{fill:#E0D0C4;}
	.st55{fill:#E7DFD5;}
	.st56{fill:#D8A897;}
	.st57{fill:#EACEC4;}
	.st58{fill:#D8BCAA;}
	.st59{fill:#EAD8D0;}
	.st60{fill:#D9B4A1;}
	.st61{fill:#CD8079;}
	.st62{fill:#C56B5C;}
	.st63{fill:#E2E3DC;}
	.st64{fill:#DCDCDC;}
	.st65{fill:#D7D6D2;}
	.st66{fill:#CAC5B8;}
	.st67{fill:#B3ABA1;}
	.st68{fill:#C0BFBB;}
	.st69{fill:#CCC8C5;}
	.st70{fill:#D4D1CB;}
	.st71{fill:#EBEBEA;}
	.st72{fill:#E5E4E4;}
	.st73{fill:#EACB77;}
	.st74{fill:#F0F0EF;}
	.st75{fill:#D6B13C;}
	.st76{fill:#DEBF0B;}
	.st77{fill:#AA8811;}
	.st78{clip-path:url(#SVGID_41_);fill:#F7E5D9;}
	.st79{clip-path:url(#SVGID_41_);}
	.st80{fill:#A5AF76;}
	.st81{opacity:0.7;}
	.st82{fill:#DB6491;}
	.st83{fill:#CDD799;}
	.st84{fill:#7A8443;}
	.st85{fill:#FBCEE0;}
	.st86{fill:#ACB373;}
	.st87{fill:#FAC9DD;}
	.st88{fill:#E2739A;}
	.st89{fill:#F494B4;}
	.st90{fill:#EE86A9;}
	.st91{fill:#F5A0BD;}
	.st92{fill:#FBC2D7;}
	.st93{fill:#F7A7C3;}
	.st94{fill:#F9B5CF;}
	.st95{fill:#FBDBE9;}
	.st96{fill:#FCE7F0;}
	.st97{fill:#F5EAE2;}
	.st98{fill:#F7F1ED;}
	.st99{fill:#F5EEE8;}
	.st100{fill:#F4E6DD;}
	.st101{fill:#F3E1D6;}
	.st102{fill:#F0DDD1;}
	.st103{fill:#F1D4C4;}
	.st104{fill:#F1CEBA;}
	.st105{fill:#ECC1AB;}
	.st106{fill:#E4AA8A;}
	.st107{fill:#E9BDA1;}
	.st108{fill:#F7EDEE;}
	.st109{fill:#D28D62;}
	.st110{fill:#FDFDFD;}
	.st111{fill:#F0D1D5;}
	.st112{fill:#D3926C;}
	.st113{fill:#E39E50;}
	.st114{fill:#F6CD7C;}
	.st115{fill:#1B745E;}
	.st116{display:none;}
	.st117{display:inline;fill:none;stroke:#EB1C24;stroke-miterlimit:10;}
</style>
<g id="Layer_1">
	<g>
		<defs>
			<rect id="SVGID_15_" x="-244" y="-964" width="1419.1" height="711.1"/>
		</defs>
		<clipPath id="SVGID_16_">
			<use xlink:href="#SVGID_15_"  style="overflow:visible;"/>
		</clipPath>
		<g id="_x31_11.psd" class="st0">
			
				<image style="overflow:visible;" width="4912" height="7360" id="_x31_11_1_" xlink:href="6427257F.png"  transform="matrix(0.2459 2.170774e-02 -2.170774e-02 0.2459 115.947 -1115.9727)">
			</image>
		</g>
	</g>
	<g>
		<path class="st10" d="M14.2,0C21,0.1,26.8,5,28,11.7c1.3,7.6-3.7,14.9-11.3,16.3c-3,0.5-5.8,0.1-8.5-1.1c-0.2-0.1-0.5-0.1-0.8-0.1
			c-2.1,0.5-4.3,1-6.4,1.5c-0.7,0.2-1-0.1-0.9-0.8C0.5,25.2,1,23,1.4,20.8c0-0.2,0-0.5-0.1-0.7c-0.9-2-1.4-4.2-1.3-6.4
			C0.3,6.8,5.3,1.5,11.5,0.3C12.4,0.2,13.3,0.1,14.2,0z M3.9,24.3c0.2,0,0.3,0,0.4-0.1c1.1-0.2,2.2-0.5,3.2-0.7
			c0.5-0.1,0.9-0.1,1.3,0.2c2.1,1.2,4.4,1.6,6.9,1.3c6.2-0.9,10.4-6.7,9.2-12.8c-1.5-7.6-10-11.3-16.6-7.2c-3.7,2.3-5.7,6.7-5,11
			c0.2,1.3,0.7,2.5,1.3,3.7c0.1,0.2,0.1,0.5,0.1,0.7C4.5,21.7,4.2,22.9,3.9,24.3z"/>
		<path class="st10" d="M17.7,21.1c-1.3-0.1-2.5-0.4-3.6-1.1c-2.6-1.5-4.7-3.4-6.2-6c-0.6-1-0.9-2-0.9-3.2C7,10,7.3,9.2,7.9,8.6
			c0.3-0.4,0.7-0.7,1-1c0.6-0.5,1.3-0.3,1.6,0.4c0.4,0.9,0.8,1.7,1.1,2.6c0.2,0.4,0.1,0.7-0.1,1c-0.1,0.2-0.3,0.4-0.5,0.6
			c-0.4,0.6-0.5,0.9-0.1,1.5c1.2,1.5,2.5,2.8,4.2,3.8c0.6,0.4,1,0.3,1.4-0.2c0.7-0.8,1.4-1,2.3-0.6c0.6,0.2,1.2,0.3,1.8,0.5
			c0.9,0.3,1.2,1,0.6,1.8c-0.6,0.8-1.2,1.6-2.3,1.9C18.6,21,18.2,21,17.7,21.1z"/>
	</g>
</g>
<g id="Layer_2">
</g>
<g id="GUIDE" class="st116">
</g>
</svg>
