<svg xmlns="http://www.w3.org/2000/svg" viewBox="0 0 33.5 29.11"><defs><style>.cls-1{fill:#0c5b47;}</style></defs><g id="GUIDE"><path class="cls-1" d="M3,29.11A5.67,5.67,0,0,0,4.3,25.32c0-2,0-3.95.07-5.93v-.47c-.47,0-.91,0-1.34,0a2.79,2.79,0,0,1-3-2.81c0-.26,0-.52,0-.78,0,0,.08,0,.09,0A3,3,0,0,0,2.35,16c.64,0,1.29,0,2,0V13.1c-.41,0-.8,0-1.19,0a2.84,2.84,0,0,1-3.13-3V9.45l.24.16a2.34,2.34,0,0,0,1.63.6c.81,0,1.62,0,2.44,0A.76.76,0,0,0,4.37,10c0-2,0-4,0-6A7.1,7.1,0,0,0,3.2.32,2.79,2.79,0,0,1,3.05,0h.37c3.64,0,7.29,0,10.93,0a17.15,17.15,0,0,1,8.44,2.12,12,12,0,0,1,5.75,7.6c.1.36.25.48.61.45.55,0,1.09,0,1.64,0a2.73,2.73,0,0,1,2.69,2.52,11.36,11.36,0,0,1,0,1.18,2.26,2.26,0,0,0-1.58-.8c-.89,0-1.79,0-2.72,0V16c.44,0,.9,0,1.35,0a2.72,2.72,0,0,1,3,2.92c0,.24,0,.47,0,.82a2.66,2.66,0,0,0-2.41-.84c-.79,0-1.59,0-2.39,0-.15.52-.28,1-.44,1.5a11.92,11.92,0,0,1-7.9,7.7,19.35,19.35,0,0,1-6.08,1c-3.66,0-7.32,0-11,0Zm5.84-19H23.73c-.15-.62-.27-1.18-.43-1.74-1.2-4.17-4-6.52-8.27-6.83-2-.15-4.1-.08-6.15-.1,0,0,0,0-.08.05ZM8.8,19v8.67l.16,0a50.22,50.22,0,0,0,6.37-.2,8.75,8.75,0,0,0,7.7-6c.29-.79.47-1.63.72-2.47Zm0-3H24V13.12H8.8Z"/></g></svg>